<svg width="11" height="14" viewBox="0 0 11 14" fill="none" xmlns="http://www.w3.org/2000/svg">
<path d="M0.371582 3.74767C0.764936 3.52007 1.15007 3.29682 1.53618 3.07404C2.79887 2.34533 4.06253 1.61806 5.3233 0.884988C5.41704 0.830382 5.48131 0.836181 5.57071 0.887887C7.17989 1.82053 8.79051 2.74931 10.4011 3.67906C10.4354 3.69887 10.4693 3.72013 10.5171 3.74912C10.4688 3.7786 10.4306 3.80373 10.3915 3.82644C8.77746 4.75812 7.16297 5.68883 5.54945 6.62148C5.48228 6.66014 5.43154 6.6756 5.35422 6.63114C3.72427 5.68738 2.0919 4.74652 0.460497 3.8047C0.432953 3.78923 0.407341 3.77087 0.371582 3.74767Z" fill="#49CBD7"/>
<path d="M10.8859 4.3835C10.8859 4.4526 10.8859 4.49658 10.8859 4.54007C10.8859 6.39328 10.8849 8.24648 10.8883 10.0997C10.8883 10.2065 10.8559 10.263 10.7636 10.3162C9.15109 11.2425 7.54095 12.1733 5.92985 13.1025C5.89602 13.1223 5.86075 13.1397 5.81339 13.1649C5.81097 13.1136 5.80711 13.0759 5.80711 13.0378C5.80663 11.1643 5.80711 9.29124 5.80518 7.41773C5.80518 7.3409 5.82499 7.29644 5.89457 7.25585C7.52452 6.31886 9.15254 5.37848 10.781 4.43955C10.8081 4.42457 10.8361 4.41056 10.8859 4.3835Z" fill="#49CBD7"/>
<path d="M5.07542 13.1695C4.74634 12.9801 4.43417 12.7998 4.12152 12.6196C2.78537 11.8483 1.45019 11.0761 0.112111 10.3082C0.0260947 10.259 0 10.2048 0 10.1096C0.00241618 8.25207 0.00193294 6.395 0.00193294 4.53744C0.00193294 4.49394 0.00193294 4.44997 0.00193294 4.38811C0.0478403 4.41034 0.0792506 4.42339 0.108728 4.4403C1.73723 5.37923 3.36574 6.31913 4.99472 7.25757C5.05174 7.29043 5.08315 7.32233 5.08315 7.39578C5.08074 9.29731 5.08122 11.1988 5.08122 13.1004C5.08074 13.1163 5.07832 13.1323 5.07542 13.1695Z" fill="#49CBD7"/>
</svg>
