<svg width="12" height="13" viewBox="0 0 12 13" fill="none" xmlns="http://www.w3.org/2000/svg">
<path d="M0.993774 3.52556C1.38713 3.29796 1.77227 3.0747 2.15837 2.85193C3.42107 2.12321 4.68473 1.39594 5.94549 0.662873C6.03924 0.608268 6.10351 0.614067 6.1929 0.665773C7.80208 1.59842 9.4127 2.5272 11.0233 3.45694C11.0576 3.47675 11.0915 3.49802 11.1393 3.52701C11.091 3.55649 11.0528 3.58162 11.0137 3.60433C9.39966 4.53601 7.78517 5.46672 6.17164 6.39936C6.10447 6.43802 6.05373 6.45348 5.97642 6.40903C4.34646 5.46527 2.71409 4.52441 1.08269 3.58258C1.05515 3.56712 1.02953 3.54876 0.993774 3.52556Z" fill="#EF6070"/>
<path d="M11.508 4.16138C11.508 4.23048 11.508 4.27445 11.508 4.31795C11.508 6.17115 11.507 8.02436 11.5104 9.87757C11.5104 9.98436 11.478 10.0409 11.3857 10.0941C9.77316 11.0204 8.16302 11.9511 6.55192 12.8804C6.51809 12.9002 6.48282 12.9176 6.43546 12.9427C6.43305 12.8915 6.42918 12.8538 6.42918 12.8156C6.4287 10.9421 6.42918 9.06912 6.42725 7.19561C6.42725 7.11878 6.44706 7.07432 6.51664 7.03373C8.14659 6.09674 9.77461 5.15636 11.4031 4.21743C11.4302 4.20245 11.4582 4.18844 11.508 4.16138Z" fill="#EF6070"/>
<path d="M5.69749 12.9474C5.36841 12.758 5.05624 12.5777 4.74359 12.3975C3.40744 11.6262 2.07226 10.854 0.734181 10.0861C0.648165 10.0369 0.62207 9.98273 0.62207 9.88753C0.624486 8.02997 0.624003 6.1729 0.624003 4.31534C0.624003 4.27184 0.624003 4.22787 0.624003 4.16602C0.669911 4.18824 0.701321 4.20129 0.730798 4.21821C2.3593 5.15713 3.98781 6.09703 5.61679 7.03547C5.67381 7.06833 5.70522 7.10023 5.70522 7.17368C5.70281 9.07521 5.70329 10.9768 5.70329 12.8783C5.70281 12.8942 5.70039 12.9102 5.69749 12.9474Z" fill="#EF6070"/>
</svg>
