<svg width="12" height="13" viewBox="0 0 12 13" fill="none" xmlns="http://www.w3.org/2000/svg">
<path d="M0.6604 3.39177C1.05375 3.16417 1.43889 2.94091 1.825 2.71814C3.08769 1.98942 4.35135 1.26215 5.61211 0.529084C5.70586 0.474479 5.77013 0.480278 5.85953 0.531984C7.46871 1.46463 9.07933 2.39341 10.69 3.32315C10.7243 3.34296 10.7581 3.36423 10.8059 3.39322C10.7576 3.4227 10.7194 3.44783 10.6803 3.47054C9.06628 4.40222 7.45179 5.33293 5.83827 6.26557C5.7711 6.30423 5.72036 6.31969 5.64304 6.27524C4.01309 5.33148 2.38072 4.39062 0.749316 3.44879C0.721771 3.43333 0.69616 3.41497 0.6604 3.39177Z" fill="#5AABE0"/>
<path d="M11.1747 4.02759C11.1747 4.09669 11.1747 4.14066 11.1747 4.18416C11.1747 6.03736 11.1738 7.89057 11.1771 9.74378C11.1771 9.85057 11.1448 9.90711 11.0525 9.96027C9.43991 10.8866 7.82977 11.8173 6.21867 12.7466C6.18484 12.7664 6.14957 12.7838 6.10221 12.8089C6.09979 12.7577 6.09593 12.72 6.09593 12.6819C6.09544 10.8083 6.09593 8.93533 6.09399 7.06182C6.09399 6.98499 6.11381 6.94053 6.18339 6.89994C7.81334 5.96295 9.44136 5.02257 11.0699 4.08364C11.0969 4.06866 11.1249 4.05465 11.1747 4.02759Z" fill="#5AABE0"/>
<path d="M5.36424 12.8136C5.03516 12.6242 4.72299 12.4439 4.41033 12.2637C3.07419 11.4924 1.73901 10.7202 0.400929 9.95236C0.314913 9.90307 0.288818 9.84894 0.288818 9.75375C0.291235 7.89618 0.290751 6.03911 0.290751 4.18155C0.290751 4.13806 0.290751 4.09408 0.290751 4.03223C0.336659 4.05446 0.368069 4.0675 0.397546 4.08442C2.02605 5.02334 3.65455 5.96324 5.28354 6.90168C5.34056 6.93454 5.37197 6.96644 5.37197 7.03989C5.36956 8.94143 5.37004 10.843 5.37004 12.7445C5.36956 12.7604 5.36714 12.7764 5.36424 12.8136Z" fill="#5AABE0"/>
</svg>
