<svg width="12" height="13" viewBox="0 0 12 13" fill="none" xmlns="http://www.w3.org/2000/svg">
<path d="M1.09619 2.90074C1.48955 2.67314 1.87468 2.44988 2.26079 2.22711C3.52348 1.49839 4.78714 0.771125 6.04791 0.0380566C6.14165 -0.016549 6.20592 -0.0107502 6.29532 0.040956C7.9045 0.9736 9.51512 1.90238 11.1257 2.83212C11.1601 2.85194 11.1939 2.8732 11.2417 2.90219C11.1934 2.93167 11.1552 2.9568 11.1161 2.97951C9.50207 3.91119 7.88758 4.8419 6.27406 5.77455C6.20689 5.8132 6.15615 5.82867 6.07883 5.78421C4.44888 4.84045 2.81651 3.89959 1.18511 2.95777C1.15756 2.9423 1.13195 2.92394 1.09619 2.90074Z" fill="#F45EA4"/>
<path d="M11.6104 3.53656C11.6104 3.60566 11.6104 3.64964 11.6104 3.69313C11.6104 5.54634 11.6094 7.39954 11.6128 9.25275C11.6128 9.35955 11.5804 9.41609 11.4881 9.46924C9.87558 10.3956 8.26544 11.3263 6.65434 12.2556C6.62051 12.2754 6.58524 12.2928 6.53788 12.3179C6.53546 12.2667 6.5316 12.229 6.5316 12.1908C6.53111 10.3173 6.5316 8.4443 6.52966 6.5708C6.52966 6.49396 6.54948 6.4495 6.61906 6.40891C8.24901 5.47192 9.87703 4.53154 11.5055 3.59262C11.5326 3.57763 11.5606 3.56362 11.6104 3.53656Z" fill="#F45EA4"/>
<path d="M5.79991 12.3226C5.47083 12.1331 5.15866 11.9529 4.846 11.7726C3.50986 11.0014 2.17468 10.2292 0.836598 9.46133C0.750582 9.41204 0.724487 9.35792 0.724487 9.26272C0.726903 7.40516 0.72642 5.54808 0.72642 3.69052C0.72642 3.64703 0.72642 3.60305 0.72642 3.5412C0.772328 3.56343 0.803738 3.57648 0.833215 3.59339C2.46172 4.53232 4.09022 5.47221 5.71921 6.41066C5.77623 6.44352 5.80764 6.47541 5.80764 6.54886C5.80523 8.4504 5.80571 10.3519 5.80571 12.2535C5.80523 12.2694 5.80281 12.2854 5.79991 12.3226Z" fill="#F45EA4"/>
</svg>
