<svg width="12" height="13" viewBox="0 0 12 13" fill="none" xmlns="http://www.w3.org/2000/svg">
<path d="M1.28748 3.06206C1.68083 2.83446 2.06597 2.6112 2.45207 2.38843C3.71477 1.65971 4.97843 0.932441 6.23919 0.199372C6.33294 0.144767 6.39721 0.150566 6.48661 0.202272C8.09578 1.13492 9.7064 2.0637 11.317 2.99344C11.3513 3.01325 11.3852 3.03452 11.433 3.06351C11.3847 3.09299 11.3465 3.11811 11.3074 3.14083C9.69336 4.0725 8.07887 5.00322 6.46534 5.93586C6.39817 5.97452 6.34743 5.98998 6.27012 5.94553C4.64016 5.00177 3.00779 4.06091 1.37639 3.11908C1.34885 3.10362 1.32324 3.08525 1.28748 3.06206Z" fill="#CD6CFC"/>
<path d="M11.8017 3.69788C11.8017 3.76698 11.8017 3.81095 11.8017 3.85444C11.8017 5.70765 11.8007 7.56086 11.8041 9.41407C11.8041 9.52086 11.7717 9.5774 11.6794 9.63056C10.0669 10.5569 8.45673 11.4876 6.84562 12.4169C6.8118 12.4367 6.77652 12.4541 6.72916 12.4792C6.72675 12.428 6.72288 12.3903 6.72288 12.3521C6.7224 10.4786 6.72288 8.60562 6.72095 6.73211C6.72095 6.65528 6.74076 6.61082 6.81035 6.57023C8.4403 5.63323 10.0683 4.69286 11.6968 3.75393C11.7239 3.73895 11.7519 3.72494 11.8017 3.69788Z" fill="#CD6CFC"/>
<path d="M5.99119 12.4839C5.66211 12.2945 5.34994 12.1142 5.03729 11.934C3.70114 11.1627 2.36596 10.3905 1.02788 9.62264C0.941866 9.57335 0.915771 9.51923 0.915771 9.42403C0.918188 7.56647 0.917704 5.7094 0.917704 3.85183C0.917704 3.80834 0.917704 3.76437 0.917704 3.70251C0.963612 3.72474 0.995022 3.73779 1.0245 3.7547C2.653 4.69363 4.28151 5.63353 5.91049 6.57197C5.96752 6.60483 5.99893 6.63673 5.99893 6.71018C5.99651 8.61171 5.99699 10.5132 5.99699 12.4148C5.99651 12.4307 5.99409 12.4467 5.99119 12.4839Z" fill="#CD6CFC"/>
</svg>
