<svg width="256" height="181" viewBox="0 0 256 181" fill="none" xmlns="http://www.w3.org/2000/svg">
<g opacity="0.4">
<path opacity="0.4" fill-rule="evenodd" clip-rule="evenodd" d="M37.4512 48.7517C37.4512 48.7517 67.6124 23.1829 165.874 53.1584L37.4512 48.7517Z" fill="url(#paint0_radial_2211_11001)"/>
<path opacity="0.4" fill-rule="evenodd" clip-rule="evenodd" d="M141.523 130.459C141.523 130.459 -12.23 117.467 12.0314 72.2199C12.0314 72.2199 64.6577 110.831 141.523 130.459Z" fill="url(#paint1_radial_2211_11001)"/>
<path opacity="0.4" fill-rule="evenodd" clip-rule="evenodd" d="M17.5417 84.4557C17.5417 84.4557 34.2178 99.2956 76.7108 111.559C119.204 123.823 209.089 124.92 229.204 99.3099C246.341 77.4797 180.434 59.1955 147.516 52.412C124.823 47.7307 67.9998 40.8266 58.9505 55.5039C51.9835 66.8045 106.158 81.7134 119.667 84.9231C133.176 88.1329 192.278 94.0578 203.038 83.32C210.898 75.4679 164.396 62.5806 143.374 59.5547C120.555 56.2681 94.7795 58.7722 107.001 67.0827C110.947 69.7721 141.64 78.8616 160.224 75.9595C178.808 73.0575 163.392 66.9073 155.995 64.9576C148.603 62.997 138.69 62.8442 131.46 65.8781C131.46 65.8781 149.176 72.4262 154.505 65.8333C160.36 68.7898 150.509 74.3901 133.776 72.4292C119.237 70.7221 112.593 66.7913 114.959 63.9083C117.315 61.0208 140.925 58.7678 164.704 65.6186C188.484 72.4695 186.182 79.1297 179.181 81.8748C172.18 84.62 136.912 85.948 102.779 75.537C68.6468 65.126 76.6619 59.7438 94.03 56.6483C111.398 53.5528 137.34 56.2223 151.531 59.2478C165.726 62.2624 217.796 74.6966 212.535 90.328C207.275 105.959 121.926 103.276 73.3242 91.3629C34.4862 81.8502 -0.941009 58.7056 56.4202 46.7891C114.54 34.7189 232.736 64.9168 242.966 93.8504C252.224 120.039 191.969 134.223 147.893 131.01C103.635 127.776 74.6279 116.621 58.4647 110.693C42.3213 104.746 21.7009 91.2477 17.5417 84.4557Z" fill="url(#paint2_radial_2211_11001)"/>
<path opacity="0.4" fill-rule="evenodd" clip-rule="evenodd" d="M18.6658 58.1633L15.0535 59.1808C15.0535 59.1808 -4.41959 76.7966 46.2223 98.8127C96.8751 120.833 151.47 114.961 160.861 110.546C160.861 110.546 112.146 109.462 61.2167 93.4395C10.2939 77.4325 18.6658 58.1633 18.6658 58.1633Z" fill="url(#paint3_radial_2211_11001)"/>
<path opacity="0.4" fill-rule="evenodd" clip-rule="evenodd" d="M163.538 131.98C163.538 131.98 212.012 134.716 233.791 122.089C255.57 109.461 243.628 96.1928 243.628 96.1928C243.628 96.1928 262.239 128.103 163.538 131.98Z" fill="url(#paint4_radial_2211_11001)"/>
<path opacity="0.5" fill-rule="evenodd" clip-rule="evenodd" d="M68.3171 67.2882C68.3171 67.2882 49.8556 57.8446 51.7341 51.4842C53.6125 45.1239 91.0947 41.866 130.747 47.8763C170.399 53.8865 215.714 67.9728 229.588 85.3574C229.588 85.3574 214.806 69.8665 171.925 59.1465C129.056 48.4308 80.5922 44.8744 65.8077 52.7393C53.8896 59.0737 68.3171 67.2882 68.3171 67.2882Z" fill="url(#paint5_linear_2211_11001)"/>
<path opacity="0.5" fill-rule="evenodd" clip-rule="evenodd" d="M121.105 71.9488C121.105 71.9488 103.54 68.1351 96.4402 62.8692C89.3402 57.6034 116.491 53.0498 151.059 59.668C178.057 64.8372 210.024 75.5627 203.038 83.32C203.038 83.32 209.157 74.4312 154.347 62.323C115.239 53.6783 89.3098 62.6986 121.105 71.9488Z" fill="url(#paint6_linear_2211_11001)"/>
<path opacity="0.5" fill-rule="evenodd" clip-rule="evenodd" d="M145.794 68.7704C145.794 68.7704 133.319 69.1292 121.956 64.8618C111.548 60.9629 138.229 60.189 154.775 63.3808C171.32 66.5725 179.44 73.0309 164.132 75.1868C164.132 75.1868 173.733 71.3879 159.823 66.9282C145.902 62.4642 135.748 64.5346 136.112 65.9091C136.476 67.2837 145.794 68.7704 145.794 68.7704Z" fill="url(#paint7_linear_2211_11001)"/>
<path opacity="0.5" fill-rule="evenodd" clip-rule="evenodd" d="M205.202 77.8336C205.202 77.8336 223.87 89.1088 172.529 91.7169C112.935 94.7456 38.8955 86.904 26.7388 66.1997C26.7388 66.1997 17.5136 82.0489 82.3551 97.2214C144.772 111.832 199.639 106.993 213.504 97.6211C227.369 88.2488 205.202 77.8336 205.202 77.8336Z" fill="url(#paint8_linear_2211_11001)"/>
<path opacity="0.5" fill-rule="evenodd" clip-rule="evenodd" d="M15.0491 59.1918C15.0491 59.1918 6.53601 69.7615 39.15 87.9817C66.8411 103.452 117.332 115.333 160.856 110.557C160.856 110.557 133.891 121.508 87.8722 114.301C41.8536 107.094 -2.20404 83.1555 15.0491 59.1918Z" fill="url(#paint9_linear_2211_11001)"/>
<path opacity="0.5" fill-rule="evenodd" clip-rule="evenodd" d="M58.4845 110.675C58.4845 110.675 141.354 130.151 200.952 119.013C260.546 107.885 235.798 84.211 235.798 84.211C235.798 84.211 262.84 106.202 228.143 122.459C193.446 138.716 109.218 132.208 58.4845 110.675Z" fill="url(#paint10_linear_2211_11001)"/>
<path opacity="0.5" fill-rule="evenodd" clip-rule="evenodd" d="M100.449 125.059C100.449 125.059 21.5105 107.482 9.58332 79.5314C9.56803 79.5379 -2.04368 108.072 100.449 125.059Z" fill="url(#paint11_linear_2211_11001)"/>
<path opacity="0.5" fill-rule="evenodd" clip-rule="evenodd" d="M80.659 65.9897C80.659 65.9897 112.066 76.1496 149.985 78.1482C178.136 79.6332 177.142 70.2131 177.142 70.2131C177.142 70.2131 200.945 82.0542 170.775 85.1876C140.615 88.3252 90.2024 75.7409 80.659 65.9897Z" fill="url(#paint12_linear_2211_11001)"/>
<path opacity="0.5" fill-rule="evenodd" clip-rule="evenodd" d="M115.432 66.8851C115.432 66.8851 153.518 73.6772 155.77 66.7307C155.77 66.7307 162.556 72.5302 146.694 73.9456C131.012 75.3565 114.756 68.3262 115.432 66.8851Z" fill="url(#paint13_linear_2211_11001)"/>
<path opacity="0.5" fill-rule="evenodd" clip-rule="evenodd" d="M37.4512 48.7517C37.4512 48.7517 75.342 26.0131 165.874 53.1584C165.874 53.1584 92.7918 33.4817 37.4512 48.7517Z" fill="url(#paint14_linear_2211_11001)"/>
<path opacity="0.4" fill-rule="evenodd" clip-rule="evenodd" d="M199.829 74.6888C199.829 74.6888 229.324 86.3674 183.08 91.3513C136.826 96.3308 64.1672 75.7839 45.6667 64.2462C27.1728 52.7238 58.322 46.407 58.322 46.407C58.322 46.407 33.3947 51.3913 46.3692 62.7395C59.3284 74.0942 146.77 92.783 181.708 89.7394C216.638 86.7176 204.589 76.9556 199.829 74.6888Z" fill="url(#paint15_radial_2211_11001)"/>
<path opacity="0.4" fill-rule="evenodd" clip-rule="evenodd" d="M155.766 66.7415C155.766 66.7415 151.415 70.4046 137.746 69.3108C124.061 68.2237 115.872 64.8299 115.565 63.44C115.258 62.0501 126.606 61.3054 126.606 61.3054C126.606 61.3054 117.828 61.7701 120.919 64.2833C124.003 66.7811 145.621 71.2994 155.766 66.7415Z" fill="url(#paint16_radial_2211_11001)"/>
<path opacity="0.4" fill-rule="evenodd" clip-rule="evenodd" d="M177.141 70.2129C177.141 70.2129 179.779 82.0251 131.047 76.4733C82.3112 70.9324 76.6083 61.2433 91.6585 57.0963C106.709 52.9493 131.18 56.2235 131.18 56.2235C131.18 56.2235 99.1002 53.437 92.2942 59.0608C85.4881 64.6846 118.558 75.0266 141.758 76.374C164.958 77.7214 174.227 77.0092 177.141 70.2129Z" fill="url(#paint17_radial_2211_11001)"/>
<path opacity="0.4" fill-rule="evenodd" clip-rule="evenodd" d="M160.868 110.561C160.868 110.561 126.249 116.203 75.105 102.275C23.9611 88.3472 15.0412 67.1219 15.0412 67.1219C15.0412 67.1219 21.9497 85.479 72.8211 100.185C123.692 114.892 160.868 110.561 160.868 110.561Z" fill="url(#paint18_linear_2211_11001)"/>
<path opacity="0.4" fill-rule="evenodd" clip-rule="evenodd" d="M119.408 120.356C119.408 120.356 192.55 129.145 228.414 110.629C264.278 92.113 216.27 71.8826 216.27 71.8826C216.27 71.8826 261.085 92.3979 220.864 110.684C183.646 127.607 119.408 120.356 119.408 120.356Z" fill="url(#paint19_linear_2211_11001)"/>
<path opacity="0.4" fill-rule="evenodd" clip-rule="evenodd" d="M81.6417 50.2483C81.6417 50.2483 92.7905 46.5725 111.055 48.4097C129.319 50.2468 138.476 53.2157 138.476 53.2157C138.476 53.2157 108.456 50.6678 81.6417 50.2483Z" fill="url(#paint20_radial_2211_11001)"/>
<path opacity="0.4" fill-rule="evenodd" clip-rule="evenodd" d="M135.16 54.7946C135.16 54.7946 148.72 51.2697 161.519 59.278C161.53 59.2824 149.595 56.5739 135.16 54.7946Z" fill="url(#paint21_radial_2211_11001)"/>
<path opacity="0.4" fill-rule="evenodd" clip-rule="evenodd" d="M166.393 115.008C166.393 115.008 196.546 119.384 214.245 105.229C214.245 105.229 185.439 109.135 166.393 115.008Z" fill="url(#paint22_radial_2211_11001)"/>
<path opacity="0.5" fill-rule="evenodd" clip-rule="evenodd" d="M135.16 54.7947C135.16 54.7947 148.757 53.1475 161.519 59.2782C161.53 59.2825 149.806 58.0778 135.16 54.7947Z" fill="url(#paint23_linear_2211_11001)"/>
<path opacity="0.5" fill-rule="evenodd" clip-rule="evenodd" d="M166.393 115.008C166.393 115.008 190.464 115.664 214.245 105.229C214.245 105.229 203.881 120.409 166.393 115.008Z" fill="url(#paint24_linear_2211_11001)"/>
<path opacity="0.4" fill-rule="evenodd" clip-rule="evenodd" d="M177.096 114.513C177.096 114.513 201.922 110.832 214.241 105.24C214.245 105.229 198.374 113.307 177.096 114.513Z" fill="url(#paint25_radial_2211_11001)"/>
<path opacity="0.4" fill-rule="evenodd" clip-rule="evenodd" d="M140.67 54.6105C140.67 54.6105 147.966 53.9219 156.483 57.2564C156.487 57.2455 151.051 55.2416 140.67 54.6105Z" fill="url(#paint26_radial_2211_11001)"/>
<path opacity="0.4" fill-rule="evenodd" clip-rule="evenodd" d="M22.4019 55.8514C22.4019 55.8514 15.705 49.2256 35.1222 49.5076C35.1222 49.5076 27.8412 52.0016 22.4019 55.8514Z" fill="url(#paint27_radial_2211_11001)"/>
<path opacity="0.5" fill-rule="evenodd" clip-rule="evenodd" d="M22.4012 55.8514C22.4012 55.8514 19.9895 50.3016 35.1214 49.5076C35.1214 49.5076 31.2554 52.7811 22.4012 55.8514Z" fill="url(#paint28_linear_2211_11001)"/>
<path opacity="0.4" fill-rule="evenodd" clip-rule="evenodd" d="M22.5048 53.8778C22.5048 53.8778 21.6454 51.013 30.0163 50.0436C30.0163 50.0436 24.9501 50.7346 22.5048 53.8778Z" fill="url(#paint29_radial_2211_11001)"/>
<path opacity="0.4" fill-rule="evenodd" clip-rule="evenodd" d="M188.117 86.9861C188.117 86.9861 170.341 81.4151 164.933 88.2682C164.933 88.2682 170.28 88.7158 178.072 88.3394C181.141 88.2077 185.809 87.4974 188.117 86.9861Z" fill="url(#paint30_radial_2211_11001)"/>
<path opacity="0.5" fill-rule="evenodd" clip-rule="evenodd" d="M188.117 86.9861C188.117 86.9861 171.643 83.3921 164.933 88.2682C164.928 88.2791 178.521 89.8494 188.117 86.9861Z" fill="url(#paint31_linear_2211_11001)"/>
<path opacity="0.4" fill-rule="evenodd" clip-rule="evenodd" d="M181.989 86.0495C181.989 86.0495 173.36 84.3305 168.018 86.7616C168.018 86.7616 171.575 85.342 181.989 86.0495Z" fill="url(#paint32_radial_2211_11001)"/>
<path opacity="0.4" fill-rule="evenodd" clip-rule="evenodd" d="M104.275 48.6955C104.275 48.6955 106.2 48.1582 113.386 48.8578C120.571 49.5573 132.41 52.1893 132.41 52.1893C132.41 52.1893 118.683 49.7164 104.275 48.6955Z" fill="url(#paint33_radial_2211_11001)"/>
<path opacity="0.5" fill-rule="evenodd" clip-rule="evenodd" d="M81.6417 50.2482C81.6417 50.2482 95.1567 47.6939 108.658 48.9867C122.159 50.2794 138.481 53.2047 138.481 53.2047C138.481 53.2047 102.228 52.9991 81.6417 50.2482Z" fill="url(#paint34_linear_2211_11001)"/>
<path opacity="0.4" fill-rule="evenodd" clip-rule="evenodd" d="M141.83 117.553C141.83 117.553 151.081 120.002 156.568 116.032C156.568 116.032 147.049 116.226 141.83 117.553Z" fill="url(#paint35_radial_2211_11001)"/>
<path opacity="0.4" fill-rule="evenodd" clip-rule="evenodd" d="M159.732 117.154C159.732 117.154 165.317 119.737 168.798 116.539L159.732 117.154Z" fill="url(#paint36_radial_2211_11001)"/>
<path opacity="0.4" fill-rule="evenodd" clip-rule="evenodd" d="M226.114 85.2643C226.114 85.2643 225.651 78.5782 210.948 74.8668L226.114 85.2643Z" fill="url(#paint37_radial_2211_11001)"/>
<path opacity="0.4" fill-rule="evenodd" clip-rule="evenodd" d="M67.0141 57.7198C67.0141 57.7198 61.5738 53.0907 74.797 51.776C74.8013 51.7651 69.44 54.8476 67.0141 57.7198Z" fill="url(#paint38_radial_2211_11001)"/>
<path opacity="0.4" fill-rule="evenodd" clip-rule="evenodd" d="M222.782 100.765L226.825 95.5218C226.825 95.5218 230.18 97.0882 222.782 100.765Z" fill="url(#paint39_radial_2211_11001)"/>
<path opacity="0.4" fill-rule="evenodd" clip-rule="evenodd" d="M228.304 95.0221L228.74 93.8654C228.74 93.8654 230.747 93.9816 228.304 95.0221Z" fill="url(#paint40_radial_2211_11001)"/>
<path opacity="0.4" fill-rule="evenodd" clip-rule="evenodd" d="M75.1039 64.9518C75.1039 64.9518 69.846 61.4854 79.0443 59.3634C79.0552 59.3678 75.2129 62.1691 75.1039 64.9518Z" fill="url(#paint41_radial_2211_11001)"/>
<path opacity="0.4" fill-rule="evenodd" clip-rule="evenodd" d="M78.759 67.6395C78.759 67.6395 75.6457 66.9297 77.4871 65.5859L78.759 67.6395Z" fill="url(#paint42_radial_2211_11001)"/>
<path opacity="0.4" fill-rule="evenodd" clip-rule="evenodd" d="M24.1733 66.9125C24.1733 66.9125 15.4737 64.5443 22.029 62.0903L24.1733 66.9125Z" fill="url(#paint43_radial_2211_11001)"/>
<path opacity="0.4" fill-rule="evenodd" clip-rule="evenodd" d="M22.7317 60.8373L23.9434 59.1663C23.9543 59.1706 20.5231 59.7661 22.7317 60.8373Z" fill="url(#paint44_radial_2211_11001)"/>
<path opacity="0.4" fill-rule="evenodd" clip-rule="evenodd" d="M210.057 73.637C210.057 73.637 210.567 71.4704 202.331 70.0351L210.057 73.637Z" fill="url(#paint45_radial_2211_11001)"/>
<path opacity="0.4" fill-rule="evenodd" clip-rule="evenodd" d="M139.204 86.051C139.204 86.051 143.325 85.1227 150.893 87.2799C150.888 87.2908 146.414 87.356 139.204 86.051Z" fill="url(#paint46_radial_2211_11001)"/>
<path opacity="0.4" fill-rule="evenodd" clip-rule="evenodd" d="M47.6378 87.7053C47.6378 87.7053 40.232 85.1436 39.3889 83.4132L47.6378 87.7053Z" fill="url(#paint47_radial_2211_11001)"/>
<path opacity="0.4" fill-rule="evenodd" clip-rule="evenodd" d="M59.3526 91.6312C59.3526 91.6312 52.8792 90.4173 53.1382 89.1646L59.3526 91.6312Z" fill="url(#paint48_radial_2211_11001)"/>
</g>
<defs>
<radialGradient id="paint0_radial_2211_11001" cx="0" cy="0" r="1" gradientUnits="userSpaceOnUse" gradientTransform="translate(98.285 23.8541) rotate(-40.8494) scale(49.5497 101.494)">
<stop offset="0.0196" stop-color="#22B4FF"/>
<stop offset="0.2933" stop-color="#0A66FF"/>
<stop offset="0.3926" stop-color="#0B58EC"/>
<stop offset="0.5933" stop-color="#0D35BC"/>
<stop offset="0.8547" stop-color="#110075"/>
</radialGradient>
<radialGradient id="paint1_radial_2211_11001" cx="0" cy="0" r="1" gradientUnits="userSpaceOnUse" gradientTransform="translate(58.4746 72.9005) rotate(-40.8494) scale(70.9674 145.365)">
<stop offset="0.0196" stop-color="#22B4FF"/>
<stop offset="0.2933" stop-color="#0A66FF"/>
<stop offset="0.3926" stop-color="#0B58EC"/>
<stop offset="0.5933" stop-color="#0D35BC"/>
<stop offset="0.8547" stop-color="#110075"/>
</radialGradient>
<radialGradient id="paint2_radial_2211_11001" cx="0" cy="0" r="1" gradientUnits="userSpaceOnUse" gradientTransform="translate(75.0362 65.5502) rotate(-40.8494) scale(68.4373 140.182)">
<stop offset="0.0196" stop-color="#22B4FF"/>
<stop offset="0.2933" stop-color="#0A66FF"/>
<stop offset="0.3926" stop-color="#0B58EC"/>
<stop offset="0.5933" stop-color="#0D35BC"/>
<stop offset="0.8547" stop-color="#110075"/>
</radialGradient>
<radialGradient id="paint3_radial_2211_11001" cx="0" cy="0" r="1" gradientUnits="userSpaceOnUse" gradientTransform="translate(66.1201 57.6063) rotate(-40.8494) scale(74.3802 152.355)">
<stop offset="0.0196" stop-color="#22B4FF"/>
<stop offset="0.2933" stop-color="#0A66FF"/>
<stop offset="0.3926" stop-color="#0B58EC"/>
<stop offset="0.5933" stop-color="#0D35BC"/>
<stop offset="0.8547" stop-color="#110075"/>
</radialGradient>
<radialGradient id="paint4_radial_2211_11001" cx="0" cy="0" r="1" gradientUnits="userSpaceOnUse" gradientTransform="translate(243.705 75.1037) rotate(-40.8494) scale(38.0839 78.0085)">
<stop offset="0.0196" stop-color="#16BEFF"/>
<stop offset="0.2877" stop-color="#0A70FF"/>
<stop offset="0.8547" stop-color="#2F0BD7"/>
</radialGradient>
<linearGradient id="paint5_linear_2211_11001" x1="219.325" y1="107.021" x2="60.9173" y2="32.0297" gradientUnits="userSpaceOnUse">
<stop stop-color="#3479F3"/>
<stop offset="0.0848" stop-color="#346DEC"/>
<stop offset="0.5105" stop-color="#3533CC"/>
<stop offset="0.826" stop-color="#3510B8"/>
<stop offset="0.9944" stop-color="#3502B0"/>
</linearGradient>
<linearGradient id="paint6_linear_2211_11001" x1="198.606" y1="93.124" x2="101.764" y2="47.2782" gradientUnits="userSpaceOnUse">
<stop stop-color="#3479F3"/>
<stop offset="0.0848" stop-color="#346DEC"/>
<stop offset="0.5105" stop-color="#3533CC"/>
<stop offset="0.826" stop-color="#3510B8"/>
<stop offset="0.9944" stop-color="#3502B0"/>
</linearGradient>
<linearGradient id="paint7_linear_2211_11001" x1="169.424" y1="77.7367" x2="123.095" y2="55.8043" gradientUnits="userSpaceOnUse">
<stop stop-color="#3479F3"/>
<stop offset="0.0848" stop-color="#346DEC"/>
<stop offset="0.5105" stop-color="#3533CC"/>
<stop offset="0.826" stop-color="#3510B8"/>
<stop offset="0.9944" stop-color="#3502B0"/>
</linearGradient>
<linearGradient id="paint8_linear_2211_11001" x1="205.135" y1="119.501" x2="38.783" y2="40.7491" gradientUnits="userSpaceOnUse">
<stop offset="0.00558659" stop-color="#3502B0"/>
<stop offset="0.174" stop-color="#3510B8"/>
<stop offset="0.4895" stop-color="#3533CC"/>
<stop offset="0.9152" stop-color="#346DEC"/>
<stop offset="1" stop-color="#3479F3"/>
</linearGradient>
<linearGradient id="paint9_linear_2211_11001" x1="151.844" y1="129.611" x2="12.5049" y2="63.6471" gradientUnits="userSpaceOnUse">
<stop offset="0.00558659" stop-color="#3502B0"/>
<stop offset="0.174" stop-color="#3510B8"/>
<stop offset="0.4895" stop-color="#3533CC"/>
<stop offset="0.9152" stop-color="#346DEC"/>
<stop offset="1" stop-color="#3479F3"/>
</linearGradient>
<linearGradient id="paint10_linear_2211_11001" x1="230.974" y1="137.129" x2="79.8299" y2="65.5761" gradientUnits="userSpaceOnUse">
<stop offset="0.00558659" stop-color="#3502B0"/>
<stop offset="0.174" stop-color="#3510B8"/>
<stop offset="0.4895" stop-color="#3533CC"/>
<stop offset="0.9152" stop-color="#346DEC"/>
<stop offset="1" stop-color="#3479F3"/>
</linearGradient>
<linearGradient id="paint11_linear_2211_11001" x1="98.3406" y1="129.506" x2="6.49955" y2="86.0276" gradientUnits="userSpaceOnUse">
<stop offset="0.00558659" stop-color="#3502B0"/>
<stop offset="0.174" stop-color="#3510B8"/>
<stop offset="0.4895" stop-color="#3533CC"/>
<stop offset="0.9152" stop-color="#346DEC"/>
<stop offset="1" stop-color="#3479F3"/>
</linearGradient>
<linearGradient id="paint12_linear_2211_11001" x1="179.731" y1="92.8114" x2="88.4224" y2="49.5853" gradientUnits="userSpaceOnUse">
<stop offset="0.00558659" stop-color="#3502B0"/>
<stop offset="0.174" stop-color="#3510B8"/>
<stop offset="0.4895" stop-color="#3533CC"/>
<stop offset="0.9152" stop-color="#346DEC"/>
<stop offset="1" stop-color="#3479F3"/>
</linearGradient>
<linearGradient id="paint13_linear_2211_11001" x1="154.304" y1="76.0584" x2="118.999" y2="59.3447" gradientUnits="userSpaceOnUse">
<stop offset="0.00558659" stop-color="#3502B0"/>
<stop offset="0.174" stop-color="#3510B8"/>
<stop offset="0.4895" stop-color="#3533CC"/>
<stop offset="0.9152" stop-color="#346DEC"/>
<stop offset="1" stop-color="#3479F3"/>
</linearGradient>
<linearGradient id="paint14_linear_2211_11001" x1="154.974" y1="76.195" x2="48.3551" y2="25.7212" gradientUnits="userSpaceOnUse">
<stop offset="0.00558659" stop-color="#3502B0"/>
<stop offset="0.174" stop-color="#3510B8"/>
<stop offset="0.4895" stop-color="#3533CC"/>
<stop offset="0.9152" stop-color="#346DEC"/>
<stop offset="1" stop-color="#3479F3"/>
</linearGradient>
<radialGradient id="paint15_radial_2211_11001" cx="0" cy="0" r="1" gradientUnits="userSpaceOnUse" gradientTransform="translate(78.8658 56.8149) rotate(-40.8495) scale(46.9758 96.2221)">
<stop offset="0.00837989" stop-color="#3ABCFF"/>
<stop offset="0.6564" stop-color="#2897FF"/>
<stop offset="1" stop-color="#1079FF"/>
</radialGradient>
<radialGradient id="paint16_radial_2211_11001" cx="0" cy="0" r="1" gradientUnits="userSpaceOnUse" gradientTransform="translate(125.595 62.3188) rotate(-40.8494) scale(10.3901 21.2824)">
<stop offset="0.00837989" stop-color="#3ABCFF"/>
<stop offset="0.6564" stop-color="#2897FF"/>
<stop offset="1" stop-color="#1079FF"/>
</radialGradient>
<radialGradient id="paint17_radial_2211_11001" cx="0" cy="0" r="1" gradientUnits="userSpaceOnUse" gradientTransform="translate(107.657 59.3839) rotate(-40.8495) scale(25.0719 51.3555)">
<stop offset="0.00837989" stop-color="#3ABCFF"/>
<stop offset="0.6564" stop-color="#2897FF"/>
<stop offset="1" stop-color="#1079FF"/>
</radialGradient>
<linearGradient id="paint18_linear_2211_11001" x1="153.977" y1="125.107" x2="18.0499" y2="60.758" gradientUnits="userSpaceOnUse">
<stop stop-color="#103EFF"/>
<stop offset="0.9916" stop-color="#3ABCFF"/>
</linearGradient>
<linearGradient id="paint19_linear_2211_11001" x1="228.863" y1="124.991" x2="137.656" y2="81.813" gradientUnits="userSpaceOnUse">
<stop offset="0.00837989" stop-color="#1B5AFF"/>
<stop offset="1" stop-color="#103EFF"/>
</linearGradient>
<radialGradient id="paint20_radial_2211_11001" cx="0" cy="0" r="1" gradientUnits="userSpaceOnUse" gradientTransform="translate(84.8087 57.4985) rotate(-40.8494) scale(93.7571 171.644)">
<stop offset="0.0196" stop-color="#22B4FF"/>
<stop offset="0.2933" stop-color="#0A66FF"/>
<stop offset="0.3926" stop-color="#0B58EC"/>
<stop offset="0.5933" stop-color="#0D35BC"/>
<stop offset="0.8547" stop-color="#110075"/>
</radialGradient>
<radialGradient id="paint21_radial_2211_11001" cx="0" cy="0" r="1" gradientUnits="userSpaceOnUse" gradientTransform="translate(84.8091 57.4979) rotate(-40.8494) scale(93.753 171.636)">
<stop offset="0.0196" stop-color="#22B4FF"/>
<stop offset="0.2933" stop-color="#0A66FF"/>
<stop offset="0.3926" stop-color="#0B58EC"/>
<stop offset="0.5933" stop-color="#0D35BC"/>
<stop offset="0.8547" stop-color="#110075"/>
</radialGradient>
<radialGradient id="paint22_radial_2211_11001" cx="0" cy="0" r="1" gradientUnits="userSpaceOnUse" gradientTransform="translate(84.8204 57.4959) rotate(-40.8494) scale(93.7426 171.617)">
<stop offset="0.0196" stop-color="#22B4FF"/>
<stop offset="0.2933" stop-color="#0A66FF"/>
<stop offset="0.3926" stop-color="#0B58EC"/>
<stop offset="0.5933" stop-color="#0D35BC"/>
<stop offset="0.8547" stop-color="#110075"/>
</radialGradient>
<linearGradient id="paint23_linear_2211_11001" x1="159.982" y1="62.5457" x2="136.711" y2="51.5292" gradientUnits="userSpaceOnUse">
<stop stop-color="#3479F3"/>
<stop offset="0.0848" stop-color="#346DEC"/>
<stop offset="0.5105" stop-color="#3533CC"/>
<stop offset="0.826" stop-color="#3510B8"/>
<stop offset="0.9944" stop-color="#3502B0"/>
</linearGradient>
<linearGradient id="paint24_linear_2211_11001" x1="207.971" y1="118.477" x2="172.663" y2="101.762" gradientUnits="userSpaceOnUse">
<stop stop-color="#3479F3"/>
<stop offset="0.0848" stop-color="#346DEC"/>
<stop offset="0.5105" stop-color="#3533CC"/>
<stop offset="0.826" stop-color="#3510B8"/>
<stop offset="0.9944" stop-color="#3502B0"/>
</linearGradient>
<radialGradient id="paint25_radial_2211_11001" cx="0" cy="0" r="1" gradientUnits="userSpaceOnUse" gradientTransform="translate(195.667 109.868) rotate(-40.8495) scale(8.58475 15.7164)">
<stop offset="0.00837989" stop-color="#3ABCFF"/>
<stop offset="0.6564" stop-color="#2897FF"/>
<stop offset="1" stop-color="#1079FF"/>
</radialGradient>
<radialGradient id="paint26_radial_2211_11001" cx="0" cy="0" r="1" gradientUnits="userSpaceOnUse" gradientTransform="translate(148.691 55.8266) rotate(-40.8494) scale(2.49782 4.57284)">
<stop offset="0.00837989" stop-color="#3ABCFF"/>
<stop offset="0.6564" stop-color="#2897FF"/>
<stop offset="1" stop-color="#1079FF"/>
</radialGradient>
<radialGradient id="paint27_radial_2211_11001" cx="0" cy="0" r="1" gradientUnits="userSpaceOnUse" gradientTransform="translate(23.6806 74.4563) rotate(-155.845) scale(144.84 91.3966)">
<stop offset="0.0196" stop-color="#22B4FF"/>
<stop offset="0.2933" stop-color="#0A66FF"/>
<stop offset="0.3926" stop-color="#0B58EC"/>
<stop offset="0.5933" stop-color="#0D35BC"/>
<stop offset="0.8547" stop-color="#110075"/>
</radialGradient>
<linearGradient id="paint28_linear_2211_11001" x1="33.1696" y1="47.4261" x2="23.2167" y2="56.7255" gradientUnits="userSpaceOnUse">
<stop stop-color="#3479F3"/>
<stop offset="0.0848" stop-color="#346DEC"/>
<stop offset="0.5105" stop-color="#3533CC"/>
<stop offset="0.826" stop-color="#3510B8"/>
<stop offset="0.9944" stop-color="#3502B0"/>
</linearGradient>
<radialGradient id="paint29_radial_2211_11001" cx="0" cy="0" r="1" gradientUnits="userSpaceOnUse" gradientTransform="translate(26.0481 51.8686) rotate(-155.845) scale(3.85915 2.43519)">
<stop offset="0.00837989" stop-color="#3ABCFF"/>
<stop offset="0.6564" stop-color="#2897FF"/>
<stop offset="1" stop-color="#1079FF"/>
</radialGradient>
<radialGradient id="paint30_radial_2211_11001" cx="0" cy="0" r="1" gradientUnits="userSpaceOnUse" gradientTransform="translate(244.86 96.4427) rotate(-152.71) scale(163.417 97.2978)">
<stop offset="0.0196" stop-color="#22B4FF"/>
<stop offset="0.2933" stop-color="#0A66FF"/>
<stop offset="0.3926" stop-color="#0B58EC"/>
<stop offset="0.5933" stop-color="#0D35BC"/>
<stop offset="0.8547" stop-color="#110075"/>
</radialGradient>
<linearGradient id="paint31_linear_2211_11001" x1="168.9" y1="93.464" x2="184.145" y2="81.8015" gradientUnits="userSpaceOnUse">
<stop stop-color="#3479F3"/>
<stop offset="0.0848" stop-color="#346DEC"/>
<stop offset="0.5105" stop-color="#3533CC"/>
<stop offset="0.826" stop-color="#3510B8"/>
<stop offset="0.9944" stop-color="#3502B0"/>
</linearGradient>
<radialGradient id="paint32_radial_2211_11001" cx="0" cy="0" r="1" gradientUnits="userSpaceOnUse" gradientTransform="translate(174.771 86.2861) rotate(-152.71) scale(4.38029 2.608)">
<stop offset="0.00837989" stop-color="#3ABCFF"/>
<stop offset="0.6564" stop-color="#2897FF"/>
<stop offset="1" stop-color="#1079FF"/>
</radialGradient>
<radialGradient id="paint33_radial_2211_11001" cx="0" cy="0" r="1" gradientUnits="userSpaceOnUse" gradientTransform="translate(118.346 50.4474) rotate(-40.8494) scale(4.38306 8.0242)">
<stop offset="0.00837989" stop-color="#3ABCFF"/>
<stop offset="0.6564" stop-color="#2897FF"/>
<stop offset="1" stop-color="#1079FF"/>
</radialGradient>
<linearGradient id="paint34_linear_2211_11001" x1="133.855" y1="62.9983" x2="86.2743" y2="40.4732" gradientUnits="userSpaceOnUse">
<stop stop-color="#3479F3"/>
<stop offset="0.0848" stop-color="#346DEC"/>
<stop offset="0.5105" stop-color="#3533CC"/>
<stop offset="0.826" stop-color="#3510B8"/>
<stop offset="0.9944" stop-color="#3502B0"/>
</linearGradient>
<radialGradient id="paint35_radial_2211_11001" cx="0" cy="0" r="1" gradientUnits="userSpaceOnUse" gradientTransform="translate(109.237 100.246) rotate(-40.8494) scale(32.8171 60.0792)">
<stop offset="0.0196" stop-color="#22B4FF"/>
<stop offset="0.2933" stop-color="#0A66FF"/>
<stop offset="0.3926" stop-color="#0B58EC"/>
<stop offset="0.5933" stop-color="#0D35BC"/>
<stop offset="0.8547" stop-color="#110075"/>
</radialGradient>
<radialGradient id="paint36_radial_2211_11001" cx="0" cy="0" r="1" gradientUnits="userSpaceOnUse" gradientTransform="translate(138.171 106.536) rotate(-40.8494) scale(21.0592 38.5537)">
<stop offset="0.0196" stop-color="#22B4FF"/>
<stop offset="0.2933" stop-color="#0A66FF"/>
<stop offset="0.3926" stop-color="#0B58EC"/>
<stop offset="0.5933" stop-color="#0D35BC"/>
<stop offset="0.8547" stop-color="#110075"/>
</radialGradient>
<radialGradient id="paint37_radial_2211_11001" cx="0" cy="0" r="1" gradientUnits="userSpaceOnUse" gradientTransform="translate(129.987 49.6045) rotate(-40.8494) scale(68.1266 124.721)">
<stop offset="0.0196" stop-color="#22B4FF"/>
<stop offset="0.2933" stop-color="#0A66FF"/>
<stop offset="0.3926" stop-color="#0B58EC"/>
<stop offset="0.5933" stop-color="#0D35BC"/>
<stop offset="0.8547" stop-color="#110075"/>
</radialGradient>
<radialGradient id="paint38_radial_2211_11001" cx="0" cy="0" r="1" gradientUnits="userSpaceOnUse" gradientTransform="translate(58.0008 42.5172) rotate(-40.8494) scale(62.1638 113.805)">
<stop offset="0.0196" stop-color="#22B4FF"/>
<stop offset="0.4497" stop-color="#0A89FF"/>
<stop offset="0.8547" stop-color="#1121F0"/>
</radialGradient>
<radialGradient id="paint39_radial_2211_11001" cx="0" cy="0" r="1" gradientUnits="userSpaceOnUse" gradientTransform="translate(220.749 90.122) rotate(-40.8495) scale(38.7515 70.9435)">
<stop offset="0.0196" stop-color="#22B4FF"/>
<stop offset="0.4497" stop-color="#0A89FF"/>
<stop offset="0.8547" stop-color="#1121F0"/>
</radialGradient>
<radialGradient id="paint40_radial_2211_11001" cx="0" cy="0" r="1" gradientUnits="userSpaceOnUse" gradientTransform="translate(225.495 92.1699) rotate(-40.8497) scale(13.7118 25.1025)">
<stop offset="0.0196" stop-color="#22B4FF"/>
<stop offset="0.4497" stop-color="#0A89FF"/>
<stop offset="0.8547" stop-color="#1121F0"/>
</radialGradient>
<radialGradient id="paint41_radial_2211_11001" cx="0" cy="0" r="1" gradientUnits="userSpaceOnUse" gradientTransform="translate(65.2454 51.7352) rotate(-40.8495) scale(55.5808 101.753)">
<stop offset="0.0196" stop-color="#22B4FF"/>
<stop offset="0.4497" stop-color="#0A89FF"/>
<stop offset="0.8547" stop-color="#1121F0"/>
</radialGradient>
<radialGradient id="paint42_radial_2211_11001" cx="0" cy="0" r="1" gradientUnits="userSpaceOnUse" gradientTransform="translate(67.0329 61.7884) rotate(-40.8495) scale(36.8767 67.5111)">
<stop offset="0.0196" stop-color="#22B4FF"/>
<stop offset="0.4497" stop-color="#0A89FF"/>
<stop offset="0.8547" stop-color="#1121F0"/>
</radialGradient>
<radialGradient id="paint43_radial_2211_11001" cx="0" cy="0" r="1" gradientUnits="userSpaceOnUse" gradientTransform="translate(-2.52451 53.0332) rotate(-40.8494) scale(85.4818 156.494)">
<stop offset="0.0196" stop-color="#22B4FF"/>
<stop offset="0.4497" stop-color="#0A89FF"/>
<stop offset="0.8547" stop-color="#1121F0"/>
</radialGradient>
<radialGradient id="paint44_radial_2211_11001" cx="0" cy="0" r="1" gradientUnits="userSpaceOnUse" gradientTransform="translate(18.8082 56.6084) rotate(-40.8494) scale(18.9304 34.6565)">
<stop offset="0.0196" stop-color="#22B4FF"/>
<stop offset="0.4497" stop-color="#0A89FF"/>
<stop offset="0.8547" stop-color="#1121F0"/>
</radialGradient>
<radialGradient id="paint45_radial_2211_11001" cx="0" cy="0" r="1" gradientUnits="userSpaceOnUse" gradientTransform="translate(166.464 59.3633) rotate(-40.8495) scale(118.133 216.27)">
<stop offset="0.0196" stop-color="#22B4FF"/>
<stop offset="0.4497" stop-color="#0A89FF"/>
<stop offset="0.8547" stop-color="#1121F0"/>
</radialGradient>
<radialGradient id="paint46_radial_2211_11001" cx="0" cy="0" r="1" gradientUnits="userSpaceOnUse" gradientTransform="translate(101.204 72.9963) rotate(-40.8495) scale(130.153 238.274)">
<stop offset="0.0196" stop-color="#22B4FF"/>
<stop offset="0.4497" stop-color="#0A89FF"/>
<stop offset="0.8547" stop-color="#1121F0"/>
</radialGradient>
<radialGradient id="paint47_radial_2211_11001" cx="0" cy="0" r="1" gradientUnits="userSpaceOnUse" gradientTransform="translate(-0.456427 71.5999) rotate(-40.8495) scale(131.207 240.204)">
<stop offset="0.0196" stop-color="#22B4FF"/>
<stop offset="0.4497" stop-color="#0A89FF"/>
<stop offset="0.8547" stop-color="#1121F0"/>
</radialGradient>
<radialGradient id="paint48_radial_2211_11001" cx="0" cy="0" r="1" gradientUnits="userSpaceOnUse" gradientTransform="translate(25.4957 81.29) rotate(-40.8495) scale(89.9929 164.752)">
<stop offset="0.0196" stop-color="#22B4FF"/>
<stop offset="0.4497" stop-color="#0A89FF"/>
<stop offset="0.8547" stop-color="#1121F0"/>
</radialGradient>
</defs>
</svg>
