<svg width="931" height="931" viewBox="0 0 931 931" fill="none" xmlns="http://www.w3.org/2000/svg">
<rect width="931" height="931" rx="65" fill="url(#paint0_linear_2994_10319)"/>
<path d="M325.338 439.225C324.48 434.856 320.682 436.588 318.156 436.572C294.594 436.429 271.031 436.715 247.469 436.365C239.779 436.254 236.983 439.432 237.078 446.677C237.237 459.117 237.126 471.558 237.126 484.014C237.126 496.725 236.872 509.436 237.221 522.13C237.396 528.422 234.647 532.013 229.229 534.349C218.727 538.893 207.732 541.784 196.436 542.992C165.756 546.265 135.774 534.063 121.538 505.146C105.348 472.257 102.314 437.43 108.526 401.665C111.624 383.87 116.407 366.473 128.418 352.3C147.897 329.278 173.668 322.399 202.553 324.925C221.635 326.593 239.938 331.503 252.649 346.962C262.563 359.021 273.574 369.984 283.758 381.741C285.093 383.283 286.427 385.793 288.652 385.237C291.384 384.554 290.161 381.662 290.177 379.755C290.479 360.451 289.653 341.131 291.003 321.827C291.591 313.438 287.015 309.148 279.42 307.321C268.14 304.62 256.891 301.871 245.372 300.203C216.217 295.976 187.189 294.26 157.97 299.853C118.393 307.416 85.7103 325.687 62.6723 359.498C51.0579 376.578 43.5428 395.246 40.7305 415.774C38.4108 432.647 38.7922 449.68 39.9361 466.474C42.5895 505.368 60.9722 535.477 95.8947 553.589C135.504 574.133 177.878 575.976 221.047 568.286C238.778 565.14 239.557 565.601 236.633 583.92C235.553 590.657 236.49 596.678 241.638 601.349C258.797 616.984 276.084 632.491 293.307 648.045C294.832 649.427 296.167 651.668 298.582 650.714C301.172 649.682 300.155 647.044 300.155 645.122C300.218 595.661 300.488 546.217 299.932 496.773C299.837 487.78 299.567 478.914 301.33 470.144C303.634 458.673 309.719 449.743 320.396 444.341C322.668 443.166 326.053 442.895 325.338 439.225Z" fill="url(#paint1_linear_2994_10319)"/>
<path d="M627.517 594.326C603.177 556.671 586.78 515.202 569.573 474.131C556.433 442.799 543.643 411.324 530.329 380.056C520.113 356.049 509.245 332.296 500.236 307.78C497.837 301.266 492.944 298.311 486.636 297.088C458.911 291.733 431.186 286.427 403.445 281.168C398.345 280.198 393.181 278.991 387.938 280.802C388.43 284.043 390.877 285.457 392.704 287.173C405.447 299.074 418.253 310.895 431.154 322.604C440.607 331.184 441.37 333.567 436.508 345.134C422.733 377.927 408.815 410.657 395.103 443.467C385.968 465.345 376.673 487.191 368.189 509.324C359.8 531.186 350.298 551.793 327.117 561.961C325.068 562.867 323.304 564.202 324.114 566.776C324.829 569.079 327.038 568.714 328.817 568.714C358.465 568.746 388.113 568.746 417.76 568.714C419.222 568.714 421.319 569.207 421.684 567.173C421.859 566.22 420.763 564.821 419.905 563.963C415.965 560.071 411.929 556.258 407.862 552.492C392.895 538.59 387.795 529.486 399.441 509.895C400.108 508.783 400.489 507.496 400.95 506.273C406.559 491.449 414.471 481.487 432.965 480.836C450.951 480.2 468.73 474.623 486.699 471.843C499.251 469.905 499.966 470.858 504.86 482.742C519.08 517.379 533.363 551.999 547.679 586.588C549.855 591.847 553.176 596.296 558.626 598.505C584.333 608.943 610.04 619.334 635.843 629.55C638.29 630.519 641.579 633.443 643.723 630.742C645.868 628.025 644.74 624.164 642.929 621.018C637.813 612.137 633.094 602.953 627.517 594.326ZM481.297 444.42C462.311 448.487 443.356 452.618 422.765 457.083C427.388 445.119 431.376 434.601 435.507 424.13C441.593 408.719 447.757 393.339 453.906 377.959C454.653 376.068 454.955 373.383 457.576 373.463C459.737 373.542 459.816 376.084 460.484 377.673C468.682 397.311 476.69 417.028 485.079 436.571C487.112 441.322 486.08 443.403 481.297 444.42Z" fill="url(#paint2_linear_2994_10319)"/>
<path d="M885.495 486.143C873.325 497.884 861.154 509.626 849.095 521.494C829.934 540.37 829.965 540.401 802.876 540.401C781.427 540.401 759.993 540.433 738.544 540.37C734.906 540.354 730.791 540.926 730.806 535.111C730.87 505.987 730.87 476.864 730.791 447.757C730.775 443.308 732.824 442.816 736.796 442.959C745.201 443.26 753.67 443.181 762.075 442.577C787.273 440.734 799.396 448.186 806.181 464.869C807.134 467.188 808.23 469.46 811.281 468.57C814.061 467.76 813.314 465.155 813.314 463.184C813.362 438.033 813.362 412.882 813.314 387.731C813.314 386.237 813.918 384.235 812.17 383.473C809.898 382.472 809.088 384.648 807.928 386.031C790.26 407.21 769.034 419.635 740.085 415.472C732.888 414.439 730.6 412.326 730.695 405.303C730.997 382.805 730.791 360.308 730.822 337.794C730.838 328.452 733.364 326.688 742.818 326.879C765.03 327.324 787.258 327.61 809.469 327.196C817.858 327.038 824.452 329.151 829.806 335.442C834.938 341.48 839.959 347.613 845.234 353.523C853.226 362.484 861.377 371.302 869.495 380.216C872.467 377.515 871.418 374.687 871.434 372.192C871.529 353.396 871.481 334.6 871.481 315.805C871.481 300.854 869.924 299.249 855.291 299.249C786.193 299.249 717.111 299.249 648.013 299.249C646.424 299.249 644.835 299.297 643.246 299.249C640.752 299.185 638.035 299.471 637.002 301.823C635.604 304.985 639.083 305.636 640.767 306.891C655.416 317.759 670.177 328.467 684.842 339.303C686.097 340.241 688.512 340.606 687.686 343.593C685.128 343.339 682.554 342.958 679.964 342.862C670.892 342.529 666.824 345.992 665.776 355.017C665.506 357.368 665.649 359.767 665.649 362.151C665.712 408.703 665.537 455.256 666.602 501.809C666.983 518.269 661.851 533.681 651.238 546.677C647.25 551.571 642.229 555.622 638.051 560.389C636.525 562.121 633.109 563.535 634.793 566.824C636.128 569.429 638.924 568.73 641.228 568.73C718.239 568.762 795.265 568.746 872.276 568.778C877.869 568.778 880.951 566.84 881.761 560.739C883.986 544.024 887.29 527.453 889.086 510.706C890.039 501.745 892.089 492.609 890.277 483.505C887.56 482.918 886.718 484.983 885.495 486.143Z" fill="url(#paint3_linear_2994_10319)"/>
<defs>
<linearGradient id="paint0_linear_2994_10319" x1="990.5" y1="99.4999" x2="-66.5" y2="849" gradientUnits="userSpaceOnUse">
<stop stop-color="#6C8BC8"/>
<stop offset="0.854065" stop-color="#0C1A62"/>
</linearGradient>
<linearGradient id="paint1_linear_2994_10319" x1="182.232" y1="296.306" x2="182.232" y2="617.655" gradientUnits="userSpaceOnUse">
<stop offset="0.132438" stop-color="#FAEF7C"/>
<stop offset="0.812629" stop-color="#E7B639"/>
</linearGradient>
<linearGradient id="paint2_linear_2994_10319" x1="484.403" y1="279.866" x2="484.403" y2="598.819" gradientUnits="userSpaceOnUse">
<stop offset="0.132438" stop-color="#FAEF7C"/>
<stop offset="0.812629" stop-color="#E7B639"/>
</linearGradient>
<linearGradient id="paint3_linear_2994_10319" x1="762.669" y1="299.241" x2="762.669" y2="543.512" gradientUnits="userSpaceOnUse">
<stop offset="0.132438" stop-color="#FAEF7C"/>
<stop offset="0.812629" stop-color="#E7B639"/>
</linearGradient>
</defs>
</svg>
