<svg width="33" height="32" viewBox="0 0 33 32" fill="none" xmlns="http://www.w3.org/2000/svg">
<rect x="0.5" width="32" height="32" rx="4" fill="#0C0E10"/>
<path d="M24.3413 10.3907L25.8307 8.97654V8.66699H20.6709L16.9936 17.7511L12.81 8.66699H7.39973V8.97654L9.13962 11.0553C9.30917 11.209 9.39784 11.4336 9.37528 11.6598V19.8291C9.42895 20.1232 9.33251 20.4258 9.12406 20.6396L7.16406 22.9971V23.3028H12.7213V22.9932L10.7613 20.6396C10.549 20.425 10.4486 20.1278 10.4914 19.8291V12.7629L15.3696 23.3066H15.9366L20.1312 12.7629V21.1622C20.1312 21.3838 20.1312 21.4293 19.985 21.5744L18.4761 23.0233V23.3337H25.7965V23.0241L24.3421 21.6107C24.2145 21.515 24.1484 21.3544 24.1756 21.1985V10.8029C24.1484 10.6462 24.2137 10.4857 24.3413 10.3907Z" fill="#676F69"/>
</svg>
