<svg width="32" height="32" viewBox="0 0 32 32" fill="none" xmlns="http://www.w3.org/2000/svg">
<rect width="32" height="32" rx="4" fill="#0C0E10"/>
<mask id="mask0_415_661" style="mask-type:alpha" maskUnits="userSpaceOnUse" x="6" y="6" width="20" height="20">
<rect x="6" y="6" width="20" height="20" fill="#C4C4C4"/>
</mask>
<g mask="url(#mask0_415_661)">
</g>
<path d="M6.5 15.586C6.66348 15.2909 6.93595 15.0703 7.26005 14.9714C8.5091 14.4871 9.76103 14.0057 11.0144 13.5301C15.3036 11.8896 19.5929 10.2492 23.8792 8.61012C23.9796 8.56857 24.0857 8.53849 24.1933 8.52129C24.6192 8.421 25.0451 8.68462 25.1455 9.10871C25.167 9.2004 25.1727 9.2964 25.1598 9.38952C25.1355 9.78782 25.0738 10.1847 24.9777 10.5715C24.0972 14.7164 23.211 18.8612 22.3204 23.0047C22.276 23.2181 22.2043 23.4244 22.1053 23.6193C21.9519 23.9732 21.5475 24.1451 21.1861 24.009C20.9882 23.9517 20.8018 23.8629 20.6326 23.7454C19.2946 22.7783 17.9667 21.7983 16.633 20.8241C16.5799 20.7854 16.5254 20.7467 16.4595 20.7008C16.4064 20.7481 16.3562 20.7882 16.3089 20.8341C15.6277 21.4845 14.9465 22.1336 14.2654 22.784C14.0703 22.9846 13.8007 23.0935 13.5225 23.0863C13.5412 22.8227 13.557 22.5648 13.5756 22.3084C13.6573 21.1708 13.7362 20.0318 13.8237 18.8913C13.8352 18.7996 13.8782 18.7137 13.9441 18.6492C16.5283 16.3253 19.1139 14.0043 21.7009 11.6862C21.7196 11.6704 21.7439 11.6575 21.7554 11.6375C21.8042 11.5472 21.8486 11.4555 21.8959 11.3652C21.7898 11.3266 21.678 11.3079 21.5647 11.3079C21.4356 11.3409 21.3137 11.3968 21.2047 11.4727C17.9853 13.4785 14.7673 15.4886 11.5493 17.4987C11.4704 17.546 11.3772 17.5632 11.2883 17.5446C9.91877 17.1276 8.55356 16.7007 7.18548 16.2752C6.9044 16.2121 6.66061 16.0416 6.50287 15.8009L6.5 15.586Z" fill="#676F69"/>
</svg>
