<svg width="33" height="32" viewBox="0 0 33 32" fill="none" xmlns="http://www.w3.org/2000/svg">
<rect x="0.5" width="32" height="32" rx="4" fill="#0C0E10"/>
<mask id="mask0_415_656" style="mask-type:alpha" maskUnits="userSpaceOnUse" x="6" y="6" width="21" height="20">
<rect x="6.5" y="6" width="20" height="20" fill="#C4C4C4"/>
</mask>
<g mask="url(#mask0_415_656)">
<path d="M7.5 21.9531C9.50754 22.1723 11.5208 21.6094 13.1205 20.3819C11.4935 20.3117 10.0748 19.2518 9.54918 17.7149C10.1164 17.8009 10.6966 17.7751 11.2537 17.6361C10.3835 17.4442 9.60806 16.9587 9.05376 16.264C8.50233 15.5793 8.20795 14.7228 8.22231 13.8448C8.73497 14.1198 9.30363 14.2759 9.88664 14.3017C8.20795 12.8895 7.81736 11.2079 8.7522 9.18835C10.6966 11.576 13.5628 13.0341 16.6416 13.2031C16.6273 12.8221 16.5942 12.4612 16.6057 12.1031C16.6962 10.476 17.8148 9.08809 19.3873 8.64836C20.7113 8.26594 22.1401 8.63547 23.1108 9.61088C23.1755 9.6825 23.276 9.70971 23.3679 9.68106C24.1706 9.50346 24.9403 9.20124 25.6511 8.7873C25.374 9.63666 24.8183 10.3671 24.073 10.8599C24.7953 10.7811 25.5004 10.5934 26.1667 10.3056C25.7086 11.0002 25.1342 11.6118 24.4693 12.1131C24.32 12.2134 24.2395 12.3896 24.2625 12.5672C24.2955 14.2988 23.9136 16.0119 23.1467 17.566C22.2679 19.438 20.8635 21.015 19.1015 22.1035C17.8335 22.8813 16.4119 23.3797 14.9342 23.5631C13.6346 23.7392 12.3135 23.6905 11.0311 23.4184C9.8091 23.1563 8.64306 22.6836 7.58616 22.0205C7.56892 22.0061 7.55457 21.9947 7.5 21.9531Z" fill="#676F69"/>
</g>
</svg>
