<svg width="32" height="32" viewBox="0 0 32 32" fill="none" xmlns="http://www.w3.org/2000/svg">
<rect width="32" height="32" rx="4" fill="#0C0E10"/>
<mask id="mask0_415_651" style="mask-type:alpha" maskUnits="userSpaceOnUse" x="6" y="6" width="20" height="20">
<rect x="6" y="6" width="20" height="20" fill="#C4C4C4"/>
</mask>
<g mask="url(#mask0_415_651)">
<path d="M25.1667 14.8156V17.0164C25.1566 17.0813 25.1423 17.1476 25.138 17.2124C25.0979 17.7414 25.075 18.2732 25.0177 18.8007C24.9575 19.5819 24.7527 20.3443 24.4132 21.0491C24.131 21.6905 23.528 22.1272 22.8347 22.1935C22.3763 22.2396 21.9151 22.2886 21.4553 22.2915C18.3569 22.3131 15.26 22.3347 12.1631 22.3333C11.1203 22.3333 10.0746 22.2756 9.03178 22.2208C8.23822 22.2007 7.5306 21.715 7.22406 20.9785C6.87884 20.2088 6.67686 19.3815 6.62529 18.5398C6.44767 16.7022 6.45913 14.8502 6.65824 13.014C6.72126 12.24 6.92468 11.4833 7.25843 10.7829C7.53632 10.1386 8.14223 9.70049 8.83696 9.63996C9.44717 9.58663 10.0603 9.53042 10.6719 9.52754C13.6542 9.50736 16.6365 9.49871 19.6189 9.50015C20.6316 9.50015 21.6458 9.5578 22.6585 9.6169C23.2787 9.6169 23.8589 9.92533 24.2084 10.4413C24.4576 10.8175 24.6453 11.2326 24.7642 11.6693C24.9475 12.3726 25.0592 13.0918 25.0993 13.8182C25.118 14.1483 25.1452 14.4812 25.1667 14.8156ZM19.3352 15.9153L13.5181 12.4043V19.4277L19.3352 15.9153Z" fill="#676F69"/>
</g>
</svg>
