<svg width="350" height="65" viewBox="0 0 350 65" fill="none" xmlns="http://www.w3.org/2000/svg">
<g filter="url(#filter0_d_839_3149)">
<path d="M72.3724 49.8834L64.9886 49.8583L64.9718 48.6011L64.997 36.0209L59.4235 46.0281L53.7578 35.979V49.8666L52.5006 49.8918L45.0833 49.8666L41.9068 41.4017H45.1252V36.2053L42.3091 33.3893L45.1252 30.548V25.3685H41.8984L45.1168 16.9035L46.374 16.8616H53.2549L59.3732 28.3186L65.5082 16.8616H73.6379V17.817L76.4708 25.3685H73.6379V30.5899L76.4373 33.3893L73.6379 36.1634V41.4017H76.4708L73.6379 48.9531V49.8666L72.3724 49.8834ZM67.4945 47.369L71.5427 47.3607L72.8334 43.9076H71.1152V35.1074L72.8669 33.3725L71.1152 31.6208V22.8541H72.8334L71.5427 19.4178H71.1571V19.3759H67.0001L59.3564 33.6491L51.7379 19.3759L46.8182 19.4011L45.5191 22.8541H47.6228V31.5789L45.846 33.3725L47.6228 35.1493V43.8992H45.5191L46.8098 47.3355L51.2267 47.3607V26.4077L59.3899 40.8569L67.5029 26.4077L67.4945 47.369Z" fill="url(#paint0_linear_839_3149)"/>
<path d="M97.6987 48.1818H91.0189V47.109L88.7728 41.1249H84.9761L82.973 48.1818H76.662V47.109L74.1309 40.3538H76.9469L78.4136 35.1826L76.6284 32.0313L79.8049 30.2377L80.8861 26.4494H79.1679L82.0846 18.6382L92.4605 18.6633L92.8293 19.6439L95.8968 30.2461L99.0481 32.0313L97.288 35.1575L99.8443 44.1756L100.875 48.1567L97.6987 48.1818ZM93.1645 45.6675L97.6233 45.6507L97.4138 44.8377L94.5809 34.839L95.6286 32.9868L93.7596 31.9307L90.6585 21.1861H83.8279L82.797 23.9435H84.2218L81.9421 31.9307L80.0647 32.9868L81.1291 34.8558L78.8578 42.8682H77.7683L78.8159 45.6675H81.0872L83.082 38.6105H92.6449L93.835 42.8682H92.1169L93.1645 45.6675ZM91.79 35.7023H83.9117L87.8508 21.823L91.79 35.7023ZM87.239 33.1879H88.4627L87.8508 31.0339L87.239 33.1879Z" fill="url(#paint1_linear_839_3149)"/>
<path d="M101.989 48.1482L99.098 40.3789H101.671V36.0542L99.0812 33.4896L101.671 30.8998V26.5751H98.8633L101.78 18.789L121.878 18.6716V19.7612L121.987 20.1048V32.0061L121.61 32.4168L120.604 33.4141L121.979 34.7635V48.0812L120.696 48.1482H114.293L111.402 40.3789H114.083V38.4344L113.572 37.9232L109.558 40.6806V41.7199L109.633 48.1147L101.989 48.1482ZM116.045 45.6255H119.464V35.8195L117.017 33.4225L119.464 31.0003V21.2111L103.523 21.3033L102.484 24.0691H104.177V31.9474L102.643 33.4812L104.177 34.9982V42.8848H102.719L103.733 45.6171L107.094 45.6003L107.043 39.348L113.874 34.6629L116.598 37.3868V42.8848H115.022L116.045 45.6255ZM107.043 35.5765V24.0691H116.598V29.0559L107.043 35.5765ZM109.558 26.5835V30.816L114.083 27.7317V26.5918H109.558V26.5835Z" fill="url(#paint2_linear_839_3149)"/>
<path d="M143.878 48.1653L135.983 48.1317V46.9919L133.444 40.2786H135.983V38.4431L135.472 37.9318L131.441 40.6892V48.0898H123.546V46.9751L121.031 40.2786H123.546V35.8282L121.065 33.3557L123.546 30.8749V17.6159H121.031L123.546 10.9193V9.88842L125.926 9.86328H131.416L131.441 11.1205V30.8246L135.983 27.7068V26.4329H133.444L136.369 18.6887H143.903L143.878 32.0566L142.504 33.4228L143.878 34.7721V48.1653ZM138.162 45.6341L141.364 45.6509V35.8282L138.917 33.4311L141.364 31.009L141.381 21.203H138.112L137.081 23.9185H138.498V29.0226L128.926 35.5935V12.386H125.683L124.66 15.1015H126.06V31.9058L124.627 33.339L126.06 34.7721V42.7762H124.66L125.708 45.5587H128.926V39.3483L135.774 34.6632L138.498 37.3871V42.7762H137.081L138.162 45.6341Z" fill="url(#paint3_linear_839_3149)"/>
<path d="M164.756 48.274H145.748V47.9053L142.957 40.4712H145.748V35.9369L143.167 33.3555L145.748 30.7741V26.6003H142.957L145.748 19.1662V18.8142L147.005 18.7891L166.014 18.8142L166.039 20.0714V31.5787H159.066V35.5095H166.039L166.014 48.274H164.756ZM148.262 45.7597H163.524V38.0071H160.616V42.8766H151.145V35.0905H156.543V32.2073H151.145V24.1865H160.616V29.056H163.524V21.3034L147.625 21.3118L146.586 24.0776H148.262V31.805L146.72 33.3472L148.262 34.8893V42.9855H146.586L147.617 45.7429L148.262 45.7597ZM153.66 40.3538H158.102V37.5964H153.66V40.3538ZM153.66 29.6846H158.102V26.6925H153.66V29.6846Z" fill="url(#paint4_linear_839_3149)"/>
<path d="M182.315 53.99H175.635V53.11L173.037 46.1787H175.635V36.18L173.071 33.6405L175.635 31.0759V26.6254H169.961L167.162 18.6885H192.063L189.045 26.6254H183.564V31.0842L186.104 33.6489L183.564 36.1884V47.4443L183.614 53.9732L182.315 53.99ZM178.091 51.4756H181.092L181.058 47.4527V35.1407L182.558 33.6405L181.058 32.1235V24.1111H187.319L188.425 21.2028H170.724L171.747 24.1111H178.15V32.1151L176.633 33.6321L178.15 35.1323V48.6931H176.666L177.697 51.4505L178.091 51.4756Z" fill="url(#paint5_linear_839_3149)"/>
<path d="M201.098 48.165H193.546L190.647 40.4208H193.178V36.071L190.588 33.4812L193.178 30.9249V26.6002H190.647L193.178 19.8115V18.8393L195.223 18.7722H213.401V18.7974H213.485V32.2659L212.932 32.685L201.073 40.7896L201.098 48.165ZM195.29 45.6506H198.575L198.558 39.4653L210.979 30.9752L210.996 21.3117L195.306 21.3285L194.276 24.0943H195.7V31.9809L194.167 33.4979L195.7 35.0317V42.9351H194.276L195.29 45.6506ZM198.558 35.6854V24.1781H208.113V29.1397L198.558 35.6854ZM201.073 26.6924V30.9165L205.599 27.8155V26.6924H201.073Z" fill="url(#paint6_linear_839_3149)"/>
<path d="M234.111 48.1399H215.764L215.412 47.3269L212.797 40.3789H215.379V35.9536L212.831 33.4393L215.379 30.8914V20.4988H212.562L215.379 13.0311V12.7294L216.636 12.6875H223.274L223.299 13.9447V30.9501L225.78 33.4225L223.299 35.9034V40.228H227.456V35.1239H235.368V48.1231L234.111 48.1399ZM217.457 45.6255H232.853V37.6383H229.97V42.7424H220.784V34.8641L222.218 33.4309L220.784 31.9977V15.2019L217.239 15.227L216.2 17.9844H217.893V31.9307L216.401 33.4225L217.893 34.8976V42.8849H216.435L217.457 45.6255Z" fill="url(#paint7_linear_839_3149)"/>
<path d="M257.544 48.1818H250.865V47.109L248.618 41.1249H244.822L242.819 48.1818H236.508V47.109L233.977 40.3538H236.793L238.259 35.1826L236.474 32.0313L239.651 30.2377L240.732 26.4494H239.014L241.93 18.6382L251.921 18.6633L252.541 19.2249L252.65 19.5769L254.192 24.8403L255.734 30.2461L258.885 32.0313L257.125 35.1575L259.682 44.1756L260.713 48.1567L257.544 48.1818ZM253.01 45.6675L257.469 45.6507L257.259 44.8377L254.427 34.839L255.474 32.9868L253.605 31.9307L250.504 21.1861H243.674L242.643 23.9435H244.068L241.788 31.9307L239.902 32.9868L240.966 34.8558L238.695 42.8682H237.606L238.653 45.6675H240.925L242.919 38.6105H252.482L253.681 42.8682H251.963L253.01 45.6675ZM251.636 35.7023H243.757L247.697 21.823L251.636 35.7023ZM247.085 33.1879H248.308L247.697 31.0339L247.085 33.1879Z" fill="url(#paint8_linear_839_3149)"/>
<path d="M280.417 48.2488H261.3V47.2347L258.752 40.3956H261.3V35.7525L258.785 33.2297L261.3 30.707V26.4074H258.752L261.3 19.5684V18.5962L262.557 18.571L281.683 18.5962L281.7 19.8617L281.674 31.4278H273.721V26.5415H269.262V30.7154L271.785 33.2381L269.262 35.7357V40.2867H273.721V35.3753H281.674V48.1985L280.417 48.2488ZM263.797 45.7344H279.177L279.16 37.898H276.235V42.8094H266.748V34.688L268.223 33.2297L266.748 31.7546V24.0272H276.235V28.9134H279.16L279.177 21.0938L263.412 21.1022L262.364 23.8931H263.806V31.7546L262.331 33.2297L263.806 34.7048V42.9016H262.364L263.404 45.6841H263.789L263.797 45.7344Z" fill="url(#paint9_linear_839_3149)"/>
<path d="M302.551 48.2741H283.543V47.9053L280.752 40.4629H283.543V35.9286L280.961 33.3472L283.543 30.7658V26.592H280.752L283.543 19.1579V18.8059L284.8 18.7808L303.809 18.8059L303.834 20.0631V31.5704H296.861V35.5012H303.834L303.809 48.2657L302.551 48.2741ZM286.057 45.7598H301.319V38.0072H298.411V42.8766H288.94V35.0905H294.338V32.2074H288.94V24.1866H298.411V29.0561H301.319V21.3035L285.42 21.3119L284.381 24.0777H286.057V31.8051L284.515 33.3472L286.057 34.8894V42.9856H284.381L285.412 45.743L286.057 45.7598ZM291.455 40.3539H295.897V37.5965H291.455V40.3539ZM291.455 29.6847H295.897V26.6926H291.455V29.6847Z" fill="url(#paint10_linear_839_3149)"/>
<path d="M74.6523 24.1113H72.381V31.1096L74.6523 33.3809L72.381 35.6354V42.6504H74.6523L72.4229 48.6011H72.381V48.6262H66.2543V48.6011H66.2292L66.2543 42.6504V31.2185L60.2367 41.938L59.4069 43.4466L58.552 41.9297L52.4925 31.1934V42.6504V48.6011V48.6262H46.3658V48.6011H45.9384L43.709 42.6504H46.3658V35.6773L44.0694 33.3809L46.3658 31.0593V24.1029H43.7174L45.9468 18.1523H46.3742V18.1104H51.4364H52.1404H52.5008L59.365 30.9755L66.2543 18.1104H72.381V18.1606H72.4229L74.6523 24.1113Z" fill="url(#paint11_linear_839_3149)"/>
<path d="M97.8003 41.6111L98.6301 44.5277L99.2503 46.908H97.6998V46.9331H93.6852H92.2855V46.8912L90.3076 41.6194H92.1766L91.6905 39.8762H84.0384L83.5523 41.6194L82.0437 46.9331H77.9369V46.8912L77.0653 44.5696L75.959 41.6111H77.9118L79.7808 35.0234L78.356 32.5175L80.8871 31.0927L82.5634 25.2007H80.9877L82.9656 19.9038H84.0887V19.929H85.9996H89.6957H91.5899V19.9038L93.1404 25.2007L94.8166 31.0927L97.3226 32.5175L95.9229 35.0067L97.8003 41.6111ZM87.8519 26.4327L85.5806 34.4451H90.1316L87.8519 26.4327Z" fill="url(#paint12_linear_839_3149)"/>
<path d="M120.698 46.8827H116.273H115.167L113.214 41.6277H115.343V37.9065L113.725 36.2889L108.303 40.0102V41.7115L108.37 46.8576L102.863 46.8827L100.91 41.6277H102.93V35.5262L100.869 33.4812L102.93 31.4195V25.318H100.676L102.654 20.0462L120.623 19.9373V19.9624L120.732 20.306V25.4102V31.4949V31.5368L118.821 33.4309L120.732 35.3V41.7199V46.8241V46.8911H120.698V46.8827ZM108.303 25.3264V33.1963L115.343 28.3939V25.3347H108.303V25.3264Z" fill="url(#paint13_linear_839_3149)"/>
<path d="M142.638 19.9457L142.613 25.1755V31.5368L140.702 33.431L142.613 35.3V41.5272L142.638 46.757H142.613V46.9079L137.232 46.8828V46.757L135.254 41.5272H137.232V37.9149L135.615 36.2973L130.175 40.0186V41.5272V46.69V46.8157H124.795V46.7319L122.842 41.5188H124.795V35.2916L122.842 33.3388L124.795 31.386V16.3585H122.842L124.795 11.1454V11.1287H125.918H129.044H130.15H130.175V11.1957V16.3585V33.2214L137.232 28.3771V25.1839H135.254L137.232 19.954H138.339H141.532H142.638V19.9457Z" fill="url(#paint14_linear_839_3149)"/>
<path d="M144.768 25.3267L146.746 20.0549H146.997V20.0298H164.748V20.0549H164.773V20.0801V25.3351V30.3135H159.351V25.444H152.394V30.9505H157.792V36.3479H152.394V41.6197H159.351V36.7502H164.773V41.7286V46.9836V47.0088H164.748V47.0339H146.997V46.992H146.746L144.768 41.7203H146.997V41.6113V36.3396V35.4009L144.935 33.3391L146.997 31.2773V30.9337V25.4273V25.3183H144.768V25.3267Z" fill="url(#paint15_linear_839_3149)"/>
<path d="M176.893 25.3682H170.858L168.947 19.9456H190.252L188.19 25.3682H182.324V31.5954L184.343 33.6404L182.324 35.6603V47.4358L182.366 52.7076H182.324V52.7327H176.901V52.7076H176.834L174.856 47.4358H176.901V35.6603L174.856 33.6404L176.901 31.5954V25.3682H176.893Z" fill="url(#paint16_linear_839_3149)"/>
<path d="M212.236 25.3434V31.5957V31.6376L206.855 35.2918L199.815 40.1194V41.6699L199.84 46.8998H198.734H195.524H194.417L192.465 41.6699H194.443V35.5433L192.381 33.4815L194.443 31.4365V25.335H192.465L194.417 20.08H194.443V20.0381H194.594L195.272 20.0129H212.152V20.0381H212.236V20.08H212.261L212.236 25.3434ZM199.815 25.4356V33.3055L206.855 28.4779V25.4356H199.815Z" fill="url(#paint17_linear_839_3149)"/>
<path d="M234.112 41.6365V46.8663V46.8915H222.035H216.637H216.595L214.617 41.6365H216.637V41.4856V35.426L214.617 33.4313L216.637 31.4114V19.242H214.383L216.361 13.987H216.637V13.9451H220.912H222.018H222.043V13.987V19.2001V31.4701L223.996 33.4229L222.043 35.3757V41.4772H228.723V36.3731H234.12V41.4772V41.6365H234.112Z" fill="url(#paint18_linear_839_3149)"/>
<path d="M257.646 41.6111L258.476 44.5277L259.096 46.908H257.545V46.9331H253.531H252.131V46.8912L250.153 41.6194H252.022L251.536 39.8762H243.884L243.398 41.6194L241.889 46.9331H237.783V46.8912L236.911 44.5696L235.805 41.6111H237.758L239.627 35.0234L238.202 32.5175L240.733 31.0927L242.409 25.2007H240.833L242.811 19.9038H243.934V19.929H245.845H249.541H251.436V19.9038L252.994 25.2007L254.671 31.0927L257.177 32.5175L255.777 35.0067L257.646 41.6111ZM247.698 26.4327L245.426 34.4451H249.977L247.698 26.4327Z" fill="url(#paint19_linear_839_3149)"/>
<path d="M262.557 41.6529V41.5439V35.2329L260.562 33.2382L262.557 31.2435V25.2928V25.1671H260.562L262.54 19.8702H262.566V19.8367H280.426V19.8618H280.451L280.426 25.1587V30.179H274.986V25.2844H268.013V31.2351L270.008 33.2298L268.013 35.2077V41.5439H274.986V36.6325H280.426V41.6529L280.451 46.9498H280.426V46.9917H262.566V46.9498H262.54L260.562 41.6529H262.557Z" fill="url(#paint20_linear_839_3149)"/>
<path d="M282.562 25.3267L284.54 20.0549H284.792V20.0298H302.543V20.0549H302.568V20.0801V25.3351V30.3135H297.146V25.444H290.189V30.9505H295.587V36.3479H290.189V41.6197H297.146V36.7502H302.568V41.7286V46.9836V47.0088H302.543V47.0339H284.792V46.992H284.54L282.562 41.7203H284.792V41.6113V36.3396V35.4009L282.73 33.3391L284.792 31.2773V30.9337V25.4273V25.3183H282.562V25.3267Z" fill="url(#paint21_linear_839_3149)"/>
<path fill-rule="evenodd" clip-rule="evenodd" d="M122.17 7.26489H134.811V16.2508L136.865 13.1317H144.102L146.673 16.2565L148.047 15.3695H210.702L212.797 10.0558H226.442V27.2686L232.047 28.3529L236.825 23.9572L238.824 15.3695H256.077L258.94 17.8852L260.287 14.7828H282.278L284.884 16.1154H308.209V31.091L305.991 33.294L307.832 34.1819V50.6626H248.674L246.657 48.6853L243.892 50.6626H212.301L210.726 47.4359H204.73L202.877 53.1518H188.842L187.551 51.4016L186.901 55.7835H172.41L170.465 51.8947H132.698L132.28 50.6349L130.928 51.8947H113.52L111.827 49.8795L110.194 51.8947H88.1868L87.1217 49.4142L82.8995 54.409H79.7779L77.1714 52.5149H63.7911L61.7458 50.4695L58.9451 53.1518H41.5833L37.0797 37.8059H40.6781L37.7748 32.0857L41.1114 27.1115H35.9199L40.3203 14.9001H59.3587L61.8079 17.4726L64.8041 13.5173H74.2879L76.115 15.3443H93.7993L97.1668 18.7118L98.6269 16.4423H119.161L122.17 7.26489ZM122.777 8.10301L119.768 17.2804H99.0843L97.3092 20.0395L93.4521 16.1825H75.7678L73.9407 14.3554H65.2206L61.8807 18.7645L58.9994 15.7383H40.9092L37.1128 26.2734H42.6828L38.7445 32.1445L42.0433 38.644H38.1992L42.2108 52.3137H58.6085L61.7584 49.2969L64.1383 51.6767H77.4437L80.0503 53.5709H82.5105L87.3568 47.8378L88.739 51.0565H109.794L111.815 48.5627L113.911 51.0565H130.598L132.665 49.1315L133.303 51.0565H170.983L172.928 54.9454H186.178L187.02 49.2699L189.265 52.3137H202.268L204.12 46.5978H211.249L212.825 49.8245H243.623L246.742 47.5945L249.016 49.8245H306.994V34.7082L304.56 33.5343L307.371 30.7422V16.9535H284.683L282.076 15.6209H260.837L259.251 19.2738L255.761 16.2076H239.489L237.582 24.399L232.303 29.2561L225.604 27.9601V10.8939H213.368L211.273 16.2076H148.294L146.5 17.3656L143.706 13.9698H137.316L133.973 19.0475V8.10301H122.777Z" fill="url(#paint22_linear_839_3149)"/>
</g>
<g clip-path="url(#clip0_839_3149)">
<g opacity="0.2">
<path opacity="0.2" d="M317.079 42.9854C317.079 42.9854 316.768 34.628 326.61 30.1659C336.452 25.7118 339.908 20.4675 340.132 12.0542C340.132 12.0542 349.591 19.8449 342.375 30.7087C337.602 37.8927 321.685 40.2475 317.079 42.9854Z" fill="url(#paint23_linear_839_3149)"/>
<path opacity="0.2" d="M317.078 42.9774C321.684 40.2475 337.6 37.8927 342.374 30.7007C349.59 19.8529 340.131 12.0542 340.131 12.0542C340.131 12.0542 345.279 21.2418 339.181 28.0187C333.075 34.8036 323.512 35.4821 317.078 42.9774Z" fill="url(#paint24_radial_839_3149)"/>
<path opacity="0.2" d="M340.131 12.0542C340.937 13.6985 341.48 15.4546 341.783 17.2506C342.094 19.0387 342.118 20.8826 341.727 22.6546C341.344 24.4187 340.53 26.079 339.373 27.452C338.215 28.8329 336.834 30.0302 335.342 31.0679C332.356 33.1433 328.972 34.5881 325.739 36.3202C324.126 37.1983 322.538 38.1242 321.061 39.2178C319.601 40.3273 318.259 41.5965 317.078 42.9934C318.315 41.6444 319.696 40.4391 321.189 39.3934C322.682 38.3397 324.278 37.4537 325.899 36.6236C329.139 34.9632 332.532 33.5185 335.589 31.4351C337.098 30.3735 338.494 29.1442 339.676 27.7154C340.857 26.2865 341.711 24.5624 342.055 22.7344C342.414 20.9065 342.342 19.0307 341.991 17.2267C341.616 15.4147 341.001 13.6666 340.131 12.0542Z" fill="url(#paint25_radial_839_3149)"/>
</g>
<g opacity="0.5">
<path opacity="0.5" d="M310.006 53.4343C310.006 53.4343 311.004 45.3403 324.653 43.6481C338.303 41.9558 345.83 35.4902 348.081 27.5C348.081 27.5 353.365 37.2703 345.335 45.5798C337.313 53.8893 317.677 52.0055 310.006 53.4343Z" fill="url(#paint26_linear_839_3149)"/>
<path opacity="0.5" d="M310.006 53.4344C317.677 52.0056 337.313 53.8814 345.335 45.5719C353.19 37.438 348.297 27.8992 348.081 27.5081C348.169 27.979 350.316 40.6309 338.183 45.2366C325.819 49.9461 317.365 47.7031 310.006 53.4344Z" fill="url(#paint27_radial_839_3149)"/>
<path opacity="0.5" d="M348.089 27.5159C348.312 29.6551 348.209 31.8263 347.722 33.9017C347.259 35.977 346.421 37.9726 345.167 39.6569C343.898 41.3252 342.326 42.7859 340.458 43.7677C338.606 44.7416 336.579 45.4679 334.519 46.0506C330.44 47.3438 326.178 47.9424 321.931 48.6848C319.808 49.0759 317.677 49.507 315.633 50.2413C313.598 50.9916 311.658 52.0373 310.014 53.4342C311.77 52.181 313.709 51.2231 315.761 50.6165C317.796 49.9699 319.912 49.6107 322.035 49.2994C326.281 48.6848 330.592 48.0781 334.751 46.8249C336.826 46.2103 338.869 45.46 340.817 44.4143L342.214 43.5362C342.653 43.209 343.068 42.8418 343.499 42.4985C343.946 42.1713 344.281 41.7243 344.665 41.3251C344.84 41.1176 345.048 40.926 345.207 40.7025L345.678 40.024C348.169 36.3682 348.847 31.7385 348.089 27.5159Z" fill="url(#paint28_radial_839_3149)"/>
</g>
<g opacity="0.8">
<path d="M291.352 62.1427C291.352 62.1427 295.223 54.0647 308.37 55.4376C323.249 56.9941 328.365 53.6177 329.89 52.4363C329.89 52.4363 330.457 61.7675 319.058 64.2819C309.639 66.3653 299.294 60.666 291.352 62.1427Z" fill="url(#paint29_linear_839_3149)"/>
<path d="M291.352 62.1347C299.294 60.666 309.639 66.3573 319.05 64.2739C330.465 61.7595 329.89 52.4363 329.89 52.4363C329.89 52.4363 328.07 60.5861 315.043 60.4026C302.016 60.219 298.049 57.8802 291.352 62.1347Z" fill="url(#paint30_radial_839_3149)"/>
<path d="M329.89 52.4363C329.331 54.1126 328.246 55.5653 326.912 56.6749C325.587 57.8083 324.015 58.6145 322.363 59.1414C320.718 59.7001 318.97 59.9156 317.238 60.0673C316.36 60.0753 315.498 60.1232 314.62 60.0992C313.742 60.0673 312.864 60.0593 311.986 60.0034C310.23 59.9476 308.473 59.8278 306.717 59.7081C304.961 59.5884 303.205 59.4207 301.433 59.3888C299.669 59.3489 297.865 59.4287 296.133 59.8677C294.409 60.3227 292.804 61.1449 291.352 62.1347C292.876 61.2567 294.489 60.4983 296.205 60.1631C297.913 59.7879 299.669 59.764 301.417 59.8598C304.913 60.0673 308.434 60.4664 311.962 60.6101C312.848 60.65 313.726 60.658 314.612 60.674C315.498 60.6899 316.392 60.634 317.278 60.6181C319.042 60.4345 320.838 60.2349 322.514 59.5884C324.191 58.9897 325.795 58.1117 327.104 56.8984C327.767 56.2997 328.333 55.5972 328.812 54.8549C329.299 54.1125 329.682 53.2984 329.89 52.4363Z" fill="url(#paint31_radial_839_3149)"/>
</g>
</g>
<g clip-path="url(#clip1_839_3149)">
<g opacity="0.2">
<path opacity="0.2" d="M32.7098 42.9854C32.7098 42.9854 33.0211 34.628 23.179 30.1659C13.3369 25.7118 9.88062 20.4675 9.65711 12.0542C9.65711 12.0542 0.198154 19.8449 7.4141 30.7087C12.1875 37.8927 28.1041 40.2475 32.7098 42.9854Z" fill="url(#paint32_linear_839_3149)"/>
<path opacity="0.2" d="M32.7109 42.9774C28.1052 40.2475 12.1886 37.8927 7.4152 30.7007C0.199253 19.8529 9.65821 12.0542 9.65821 12.0542C9.65821 12.0542 4.50967 21.2418 10.6081 28.0187C16.7145 34.8036 26.2772 35.4821 32.7109 42.9774Z" fill="url(#paint33_radial_839_3149)"/>
<path opacity="0.2" d="M9.65821 12.0542C8.852 13.6985 8.30921 15.4546 8.00588 17.2506C7.69458 19.0387 7.67063 20.8826 8.06176 22.6546C8.44491 24.4187 9.2591 26.079 10.4165 27.452C11.5739 28.8329 12.9549 30.0302 14.4476 31.0679C17.4329 33.1433 20.8174 34.5881 24.0502 36.3202C25.6626 37.1983 27.2511 38.1242 28.7278 39.2178C30.1885 40.3273 31.5296 41.5965 32.7109 42.9934C31.4737 41.6444 30.0928 40.4391 28.6001 39.3934C27.1074 38.3397 25.511 37.4537 23.8906 36.6236C20.6498 34.9632 17.2573 33.5185 14.2001 31.4351C12.6915 30.3735 11.2946 29.1442 10.1132 27.7154C8.93183 26.2865 8.07772 24.5624 7.73449 22.7344C7.37529 20.9065 7.44713 19.0307 7.79835 17.2267C8.17351 15.4147 8.78815 13.6666 9.65821 12.0542Z" fill="url(#paint34_radial_839_3149)"/>
</g>
<g opacity="0.5">
<path opacity="0.5" d="M39.7832 53.4343C39.7832 53.4343 38.7854 45.3403 25.1358 43.6481C11.4861 41.9558 3.95889 35.4902 1.70789 27.5C1.70789 27.5 -3.57635 37.2703 4.45379 45.5798C12.4759 53.8893 32.1123 52.0055 39.7832 53.4343Z" fill="url(#paint35_linear_839_3149)"/>
<path opacity="0.5" d="M39.7832 53.4344C32.1123 52.0056 12.4759 53.8814 4.45379 45.5719C-3.40074 37.438 1.49237 27.8992 1.70789 27.5081C1.62009 27.979 -0.527134 40.6309 11.6059 45.2366C23.9704 49.9461 32.4236 47.7031 39.7832 53.4344Z" fill="url(#paint36_radial_839_3149)"/>
<path opacity="0.5" d="M1.70008 27.5159C1.47657 29.6551 1.58035 31.8263 2.06726 33.9017C2.53023 35.977 3.36837 37.9726 4.62158 39.6569C5.89076 41.3252 7.46326 42.7859 9.33111 43.7677C11.183 44.7416 13.2105 45.4679 15.2699 46.0506C19.3488 47.3438 23.6113 47.9424 27.8579 48.6848C29.9812 49.0759 32.1124 49.507 34.1559 50.2413C36.1914 50.9916 38.131 52.0373 39.7754 53.4342C38.0193 52.181 36.0796 51.2231 34.0282 50.6165C31.9927 49.9699 29.8774 49.6107 27.7541 49.2994C23.5076 48.6848 19.1972 48.0781 15.0384 46.8249C12.963 46.2103 10.9196 45.46 8.9719 44.4143L7.57501 43.5362C7.13599 43.209 6.72091 42.8418 6.28987 42.4985C5.84286 42.1713 5.50761 41.7243 5.12446 41.3251C4.94885 41.1176 4.74131 40.926 4.58167 40.7025L4.11072 40.024C1.62026 36.3682 0.941765 31.7385 1.70008 27.5159Z" fill="url(#paint37_radial_839_3149)"/>
</g>
<g opacity="0.8">
<path d="M58.4375 62.1427C58.4375 62.1427 54.5661 54.0647 41.4194 55.4376C26.5404 56.9941 21.4238 53.6177 19.8992 52.4363C19.8992 52.4363 19.3325 61.7675 30.7311 64.2819C40.1502 66.3653 50.4952 60.666 58.4375 62.1427Z" fill="url(#paint38_linear_839_3149)"/>
<path d="M58.4375 62.1347C50.4952 60.666 40.1502 66.3573 30.7391 64.2739C19.3245 61.7595 19.8992 52.4363 19.8992 52.4363C19.8992 52.4363 21.7192 60.5861 34.7462 60.4026C47.7732 60.219 51.7404 57.8802 58.4375 62.1347Z" fill="url(#paint39_radial_839_3149)"/>
<path d="M19.8992 52.4363C20.458 54.1126 21.5436 55.5653 22.8766 56.6749C24.2016 57.8083 25.7742 58.6145 27.4265 59.1414C29.0708 59.7001 30.8189 59.9156 32.5511 60.0673C33.4291 60.0753 34.2912 60.1232 35.1693 60.0992C36.0473 60.0673 36.9253 60.0593 37.8034 60.0034C39.5595 59.9476 41.3156 59.8278 43.0717 59.7081C44.8278 59.5884 46.5839 59.4207 48.3559 59.3888C50.12 59.3489 51.924 59.4287 53.6561 59.8677C55.3803 60.3227 56.9847 61.1449 58.4375 62.1347C56.9129 61.2567 55.3005 60.4983 53.5843 60.1631C51.8761 59.7879 50.12 59.764 48.3719 59.8598C44.8757 60.0673 41.3555 60.4664 37.8273 60.6101C36.9413 60.65 36.0633 60.658 35.1772 60.674C34.2912 60.6899 33.3972 60.634 32.5112 60.6181C30.7471 60.4345 28.9511 60.2349 27.2748 59.5884C25.5985 58.9897 23.9941 58.1117 22.685 56.8984C22.0225 56.2997 21.4558 55.5972 20.9768 54.8549C20.4899 54.1125 20.1068 53.2984 19.8992 52.4363Z" fill="url(#paint40_radial_839_3149)"/>
</g>
</g>
<defs>
<filter id="filter0_d_839_3149" x="28.9199" y="0.264893" width="286.289" height="62.5186" filterUnits="userSpaceOnUse" color-interpolation-filters="sRGB">
<feFlood flood-opacity="0" result="BackgroundImageFix"/>
<feColorMatrix in="SourceAlpha" type="matrix" values="0 0 0 0 0 0 0 0 0 0 0 0 0 0 0 0 0 0 127 0" result="hardAlpha"/>
<feOffset/>
<feGaussianBlur stdDeviation="3.5"/>
<feComposite in2="hardAlpha" operator="out"/>
<feColorMatrix type="matrix" values="0 0 0 0 1 0 0 0 0 0.741667 0 0 0 0 0.354167 0 0 0 1 0"/>
<feBlend mode="normal" in2="BackgroundImageFix" result="effect1_dropShadow_839_3149"/>
<feBlend mode="normal" in="SourceGraphic" in2="effect1_dropShadow_839_3149" result="shape"/>
</filter>
<linearGradient id="paint0_linear_839_3149" x1="43.0105" y1="30.1783" x2="232.239" y2="67.0554" gradientUnits="userSpaceOnUse">
<stop stop-color="#DA9127"/>
<stop offset="0.0317" stop-color="#C68529"/>
<stop offset="0.0842" stop-color="#AF772A"/>
<stop offset="0.1201" stop-color="#A7732A"/>
<stop offset="0.2051" stop-color="#AE782A"/>
<stop offset="0.3119" stop-color="#C1872A"/>
<stop offset="0.3897" stop-color="#D99A28"/>
<stop offset="0.7819" stop-color="#FBF17D"/>
<stop offset="1" stop-color="#F6CE6A"/>
</linearGradient>
<linearGradient id="paint1_linear_839_3149" x1="43.9193" y1="25.5061" x2="233.148" y2="62.3832" gradientUnits="userSpaceOnUse">
<stop stop-color="#DA9127"/>
<stop offset="0.0317" stop-color="#C68529"/>
<stop offset="0.0842" stop-color="#AF772A"/>
<stop offset="0.1201" stop-color="#A7732A"/>
<stop offset="0.2051" stop-color="#AE782A"/>
<stop offset="0.3119" stop-color="#C1872A"/>
<stop offset="0.3897" stop-color="#D99A28"/>
<stop offset="0.7819" stop-color="#FBF17D"/>
<stop offset="1" stop-color="#F6CE6A"/>
</linearGradient>
<linearGradient id="paint2_linear_839_3149" x1="44.9227" y1="20.3553" x2="234.151" y2="57.2325" gradientUnits="userSpaceOnUse">
<stop stop-color="#DA9127"/>
<stop offset="0.0317" stop-color="#C68529"/>
<stop offset="0.0842" stop-color="#AF772A"/>
<stop offset="0.1201" stop-color="#A7732A"/>
<stop offset="0.2051" stop-color="#AE782A"/>
<stop offset="0.3119" stop-color="#C1872A"/>
<stop offset="0.3897" stop-color="#D99A28"/>
<stop offset="0.7819" stop-color="#FBF17D"/>
<stop offset="1" stop-color="#F6CE6A"/>
</linearGradient>
<linearGradient id="paint3_linear_839_3149" x1="46.3253" y1="13.1572" x2="235.554" y2="50.0343" gradientUnits="userSpaceOnUse">
<stop stop-color="#DA9127"/>
<stop offset="0.0317" stop-color="#C68529"/>
<stop offset="0.0842" stop-color="#AF772A"/>
<stop offset="0.1201" stop-color="#A7732A"/>
<stop offset="0.2051" stop-color="#AE782A"/>
<stop offset="0.3119" stop-color="#C1872A"/>
<stop offset="0.3897" stop-color="#D99A28"/>
<stop offset="0.7819" stop-color="#FBF17D"/>
<stop offset="1" stop-color="#F6CE6A"/>
</linearGradient>
<linearGradient id="paint4_linear_839_3149" x1="46.5087" y1="12.2191" x2="235.737" y2="49.0962" gradientUnits="userSpaceOnUse">
<stop stop-color="#DA9127"/>
<stop offset="0.0317" stop-color="#C68529"/>
<stop offset="0.0842" stop-color="#AF772A"/>
<stop offset="0.1201" stop-color="#A7732A"/>
<stop offset="0.2051" stop-color="#AE782A"/>
<stop offset="0.3119" stop-color="#C1872A"/>
<stop offset="0.3897" stop-color="#D99A28"/>
<stop offset="0.7819" stop-color="#FBF17D"/>
<stop offset="1" stop-color="#F6CE6A"/>
</linearGradient>
<linearGradient id="paint5_linear_839_3149" x1="47.0059" y1="9.66916" x2="236.234" y2="46.5463" gradientUnits="userSpaceOnUse">
<stop stop-color="#DA9127"/>
<stop offset="0.0317" stop-color="#C68529"/>
<stop offset="0.0842" stop-color="#AF772A"/>
<stop offset="0.1201" stop-color="#A7732A"/>
<stop offset="0.2051" stop-color="#AE782A"/>
<stop offset="0.3119" stop-color="#C1872A"/>
<stop offset="0.3897" stop-color="#D99A28"/>
<stop offset="0.7819" stop-color="#FBF17D"/>
<stop offset="1" stop-color="#F6CE6A"/>
</linearGradient>
<linearGradient id="paint6_linear_839_3149" x1="48.2627" y1="3.22128" x2="237.491" y2="40.0985" gradientUnits="userSpaceOnUse">
<stop stop-color="#DA9127"/>
<stop offset="0.0317" stop-color="#C68529"/>
<stop offset="0.0842" stop-color="#AF772A"/>
<stop offset="0.1201" stop-color="#A7732A"/>
<stop offset="0.2051" stop-color="#AE782A"/>
<stop offset="0.3119" stop-color="#C1872A"/>
<stop offset="0.3897" stop-color="#D99A28"/>
<stop offset="0.7819" stop-color="#FBF17D"/>
<stop offset="1" stop-color="#F6CE6A"/>
</linearGradient>
<linearGradient id="paint7_linear_839_3149" x1="49.4221" y1="-2.73168" x2="238.65" y2="34.1455" gradientUnits="userSpaceOnUse">
<stop stop-color="#DA9127"/>
<stop offset="0.0317" stop-color="#C68529"/>
<stop offset="0.0842" stop-color="#AF772A"/>
<stop offset="0.1201" stop-color="#A7732A"/>
<stop offset="0.2051" stop-color="#AE782A"/>
<stop offset="0.3119" stop-color="#C1872A"/>
<stop offset="0.3897" stop-color="#D99A28"/>
<stop offset="0.7819" stop-color="#FBF17D"/>
<stop offset="1" stop-color="#F6CE6A"/>
</linearGradient>
<linearGradient id="paint8_linear_839_3149" x1="49.7609" y1="-4.46897" x2="238.989" y2="32.4082" gradientUnits="userSpaceOnUse">
<stop stop-color="#DA9127"/>
<stop offset="0.0317" stop-color="#C68529"/>
<stop offset="0.0842" stop-color="#AF772A"/>
<stop offset="0.1201" stop-color="#A7732A"/>
<stop offset="0.2051" stop-color="#AE782A"/>
<stop offset="0.3119" stop-color="#C1872A"/>
<stop offset="0.3897" stop-color="#D99A28"/>
<stop offset="0.7819" stop-color="#FBF17D"/>
<stop offset="1" stop-color="#F6CE6A"/>
</linearGradient>
<linearGradient id="paint9_linear_839_3149" x1="50.7594" y1="-9.59022" x2="239.988" y2="27.287" gradientUnits="userSpaceOnUse">
<stop stop-color="#DA9127"/>
<stop offset="0.0317" stop-color="#C68529"/>
<stop offset="0.0842" stop-color="#AF772A"/>
<stop offset="0.1201" stop-color="#A7732A"/>
<stop offset="0.2051" stop-color="#AE782A"/>
<stop offset="0.3119" stop-color="#C1872A"/>
<stop offset="0.3897" stop-color="#D99A28"/>
<stop offset="0.7819" stop-color="#FBF17D"/>
<stop offset="1" stop-color="#F6CE6A"/>
</linearGradient>
<linearGradient id="paint10_linear_839_3149" x1="51.5505" y1="-13.6525" x2="240.779" y2="23.2246" gradientUnits="userSpaceOnUse">
<stop stop-color="#DA9127"/>
<stop offset="0.0317" stop-color="#C68529"/>
<stop offset="0.0842" stop-color="#AF772A"/>
<stop offset="0.1201" stop-color="#A7732A"/>
<stop offset="0.2051" stop-color="#AE782A"/>
<stop offset="0.3119" stop-color="#C1872A"/>
<stop offset="0.3897" stop-color="#D99A28"/>
<stop offset="0.7819" stop-color="#FBF17D"/>
<stop offset="1" stop-color="#F6CE6A"/>
</linearGradient>
<linearGradient id="paint11_linear_839_3149" x1="246.953" y1="98.2009" x2="70.0168" y2="37.1116" gradientUnits="userSpaceOnUse">
<stop stop-color="#DA9127"/>
<stop offset="0.0317" stop-color="#C68529"/>
<stop offset="0.0842" stop-color="#AF772A"/>
<stop offset="0.1201" stop-color="#A7732A"/>
<stop offset="0.2051" stop-color="#AE782A"/>
<stop offset="0.3119" stop-color="#C1872A"/>
<stop offset="0.3897" stop-color="#D99A28"/>
<stop offset="0.7819" stop-color="#FBF17D"/>
<stop offset="1" stop-color="#F6CE6A"/>
</linearGradient>
<linearGradient id="paint12_linear_839_3149" x1="249.662" y1="90.3513" x2="72.7263" y2="29.2618" gradientUnits="userSpaceOnUse">
<stop stop-color="#DA9127"/>
<stop offset="0.0317" stop-color="#C68529"/>
<stop offset="0.0842" stop-color="#AF772A"/>
<stop offset="0.1201" stop-color="#A7732A"/>
<stop offset="0.2051" stop-color="#AE782A"/>
<stop offset="0.3119" stop-color="#C1872A"/>
<stop offset="0.3897" stop-color="#D99A28"/>
<stop offset="0.7819" stop-color="#FBF17D"/>
<stop offset="1" stop-color="#F6CE6A"/>
</linearGradient>
<linearGradient id="paint13_linear_839_3149" x1="252.537" y1="82.0278" x2="75.6007" y2="20.9383" gradientUnits="userSpaceOnUse">
<stop stop-color="#DA9127"/>
<stop offset="0.0317" stop-color="#C68529"/>
<stop offset="0.0842" stop-color="#AF772A"/>
<stop offset="0.1201" stop-color="#A7732A"/>
<stop offset="0.2051" stop-color="#AE782A"/>
<stop offset="0.3119" stop-color="#C1872A"/>
<stop offset="0.3897" stop-color="#D99A28"/>
<stop offset="0.7819" stop-color="#FBF17D"/>
<stop offset="1" stop-color="#F6CE6A"/>
</linearGradient>
<linearGradient id="paint14_linear_839_3149" x1="267.76" y1="77.4021" x2="71.0654" y2="9.49079" gradientUnits="userSpaceOnUse">
<stop stop-color="#DA9127"/>
<stop offset="0.0317" stop-color="#C68529"/>
<stop offset="0.0842" stop-color="#AF772A"/>
<stop offset="0.1201" stop-color="#A7732A"/>
<stop offset="0.2051" stop-color="#AE782A"/>
<stop offset="0.3119" stop-color="#C1872A"/>
<stop offset="0.3897" stop-color="#D99A28"/>
<stop offset="0.7819" stop-color="#FBF17D"/>
<stop offset="1" stop-color="#F6CE6A"/>
</linearGradient>
<linearGradient id="paint15_linear_839_3149" x1="257.193" y1="68.5364" x2="80.2573" y2="7.44691" gradientUnits="userSpaceOnUse">
<stop stop-color="#DA9127"/>
<stop offset="0.0317" stop-color="#C68529"/>
<stop offset="0.0842" stop-color="#AF772A"/>
<stop offset="0.1201" stop-color="#A7732A"/>
<stop offset="0.2051" stop-color="#AE782A"/>
<stop offset="0.3119" stop-color="#C1872A"/>
<stop offset="0.3897" stop-color="#D99A28"/>
<stop offset="0.7819" stop-color="#FBF17D"/>
<stop offset="1" stop-color="#F6CE6A"/>
</linearGradient>
<linearGradient id="paint16_linear_839_3149" x1="267.458" y1="65.3015" x2="75.1106" y2="-1.10888" gradientUnits="userSpaceOnUse">
<stop stop-color="#DA9127"/>
<stop offset="0.0317" stop-color="#C68529"/>
<stop offset="0.0842" stop-color="#AF772A"/>
<stop offset="0.1201" stop-color="#A7732A"/>
<stop offset="0.2051" stop-color="#AE782A"/>
<stop offset="0.3119" stop-color="#C1872A"/>
<stop offset="0.3897" stop-color="#D99A28"/>
<stop offset="0.7819" stop-color="#FBF17D"/>
<stop offset="1" stop-color="#F6CE6A"/>
</linearGradient>
<linearGradient id="paint17_linear_839_3149" x1="262.27" y1="53.8322" x2="85.334" y2="-7.25732" gradientUnits="userSpaceOnUse">
<stop stop-color="#DA9127"/>
<stop offset="0.0317" stop-color="#C68529"/>
<stop offset="0.0842" stop-color="#AF772A"/>
<stop offset="0.1201" stop-color="#A7732A"/>
<stop offset="0.2051" stop-color="#AE782A"/>
<stop offset="0.3119" stop-color="#C1872A"/>
<stop offset="0.3897" stop-color="#D99A28"/>
<stop offset="0.7819" stop-color="#FBF17D"/>
<stop offset="1" stop-color="#F6CE6A"/>
</linearGradient>
<linearGradient id="paint18_linear_839_3149" x1="266.998" y1="46.8803" x2="76.5911" y2="-18.8602" gradientUnits="userSpaceOnUse">
<stop stop-color="#DA9127"/>
<stop offset="0.0317" stop-color="#C68529"/>
<stop offset="0.0842" stop-color="#AF772A"/>
<stop offset="0.1201" stop-color="#A7732A"/>
<stop offset="0.2051" stop-color="#AE782A"/>
<stop offset="0.3119" stop-color="#C1872A"/>
<stop offset="0.3897" stop-color="#D99A28"/>
<stop offset="0.7819" stop-color="#FBF17D"/>
<stop offset="1" stop-color="#F6CE6A"/>
</linearGradient>
<linearGradient id="paint19_linear_839_3149" x1="266.687" y1="41.0406" x2="89.7513" y2="-20.0488" gradientUnits="userSpaceOnUse">
<stop stop-color="#DA9127"/>
<stop offset="0.0317" stop-color="#C68529"/>
<stop offset="0.0842" stop-color="#AF772A"/>
<stop offset="0.1201" stop-color="#A7732A"/>
<stop offset="0.2051" stop-color="#AE782A"/>
<stop offset="0.3119" stop-color="#C1872A"/>
<stop offset="0.3897" stop-color="#D99A28"/>
<stop offset="0.7819" stop-color="#FBF17D"/>
<stop offset="1" stop-color="#F6CE6A"/>
</linearGradient>
<linearGradient id="paint20_linear_839_3149" x1="269.551" y1="32.7464" x2="92.6147" y2="-28.3431" gradientUnits="userSpaceOnUse">
<stop stop-color="#DA9127"/>
<stop offset="0.0317" stop-color="#C68529"/>
<stop offset="0.0842" stop-color="#AF772A"/>
<stop offset="0.1201" stop-color="#A7732A"/>
<stop offset="0.2051" stop-color="#AE782A"/>
<stop offset="0.3119" stop-color="#C1872A"/>
<stop offset="0.3897" stop-color="#D99A28"/>
<stop offset="0.7819" stop-color="#FBF17D"/>
<stop offset="1" stop-color="#F6CE6A"/>
</linearGradient>
<linearGradient id="paint21_linear_839_3149" x1="271.87" y1="26.0274" x2="94.9341" y2="-35.062" gradientUnits="userSpaceOnUse">
<stop stop-color="#DA9127"/>
<stop offset="0.0317" stop-color="#C68529"/>
<stop offset="0.0842" stop-color="#AF772A"/>
<stop offset="0.1201" stop-color="#A7732A"/>
<stop offset="0.2051" stop-color="#AE782A"/>
<stop offset="0.3119" stop-color="#C1872A"/>
<stop offset="0.3897" stop-color="#D99A28"/>
<stop offset="0.7819" stop-color="#FBF17D"/>
<stop offset="1" stop-color="#F6CE6A"/>
</linearGradient>
<linearGradient id="paint22_linear_839_3149" x1="35.9213" y1="31.5237" x2="308.208" y2="31.5237" gradientUnits="userSpaceOnUse">
<stop stop-color="#DA9127"/>
<stop offset="0.0317" stop-color="#C68529"/>
<stop offset="0.0842" stop-color="#AF772A"/>
<stop offset="0.1201" stop-color="#A7732A"/>
<stop offset="0.2051" stop-color="#AE782A"/>
<stop offset="0.3119" stop-color="#C1872A"/>
<stop offset="0.3897" stop-color="#D99A28"/>
<stop offset="0.7819" stop-color="#FBF17D"/>
<stop offset="1" stop-color="#F6CE6A"/>
</linearGradient>
<linearGradient id="paint23_linear_839_3149" x1="344.444" y1="29.2052" x2="318.787" y2="26.4728" gradientUnits="userSpaceOnUse">
<stop stop-color="#B7843C"/>
<stop offset="0.2364" stop-color="#FDEE87"/>
<stop offset="0.2678" stop-color="#F9E178"/>
<stop offset="0.3261" stop-color="#F3D061"/>
<stop offset="0.3886" stop-color="#EFC350"/>
<stop offset="0.4573" stop-color="#EDBC46"/>
<stop offset="0.5447" stop-color="#ECBA43"/>
<stop offset="0.6421" stop-color="#EDBB45"/>
<stop offset="0.6953" stop-color="#EEC04D"/>
<stop offset="0.7378" stop-color="#F1C85B"/>
<stop offset="0.7746" stop-color="#F4D56E"/>
<stop offset="0.8074" stop-color="#F9E485"/>
<stop offset="0.8284" stop-color="#FDF498"/>
<stop offset="0.8568" stop-color="#F2E28B"/>
<stop offset="0.9104" stop-color="#DBBF6D"/>
<stop offset="0.9829" stop-color="#BD8E43"/>
<stop offset="0.9972" stop-color="#B7843C"/>
</linearGradient>
<radialGradient id="paint24_radial_839_3149" cx="0" cy="0" r="1" gradientUnits="userSpaceOnUse" gradientTransform="translate(326.293 38.8901) rotate(-173.921) scale(30.2999)">
<stop offset="0.002793" stop-color="#B7843C" stop-opacity="0"/>
<stop offset="0.9274" stop-color="#B7843C"/>
</radialGradient>
<radialGradient id="paint25_radial_839_3149" cx="0" cy="0" r="1" gradientUnits="userSpaceOnUse" gradientTransform="translate(338.102 34.4776) rotate(-173.921) scale(22.0965)">
<stop stop-color="#F2E5D1"/>
<stop offset="0.5391" stop-color="#F5EBD9" stop-opacity="0.3616"/>
<stop offset="0.9624" stop-color="#F9EDDE" stop-opacity="0"/>
</radialGradient>
<linearGradient id="paint26_linear_839_3149" x1="348.769" y1="43.2433" x2="312.163" y2="38.0979" gradientUnits="userSpaceOnUse">
<stop stop-color="#B7843C"/>
<stop offset="0.2364" stop-color="#FDEE87"/>
<stop offset="0.2678" stop-color="#F9E178"/>
<stop offset="0.3261" stop-color="#F3D061"/>
<stop offset="0.3886" stop-color="#EFC350"/>
<stop offset="0.4573" stop-color="#EDBC46"/>
<stop offset="0.5447" stop-color="#ECBA43"/>
<stop offset="0.6421" stop-color="#EDBB45"/>
<stop offset="0.6953" stop-color="#EEC04D"/>
<stop offset="0.7378" stop-color="#F1C85B"/>
<stop offset="0.7746" stop-color="#F4D56E"/>
<stop offset="0.8074" stop-color="#F9E485"/>
<stop offset="0.8284" stop-color="#FDF498"/>
<stop offset="0.8568" stop-color="#F2E28B"/>
<stop offset="0.9104" stop-color="#DBBF6D"/>
<stop offset="0.9829" stop-color="#BD8E43"/>
<stop offset="0.9972" stop-color="#B7843C"/>
</linearGradient>
<radialGradient id="paint27_radial_839_3149" cx="0" cy="0" r="1" gradientUnits="userSpaceOnUse" gradientTransform="translate(330.463 40.6775) rotate(-171.999) scale(17.0489)">
<stop offset="0.002793" stop-color="#B7843C" stop-opacity="0"/>
<stop offset="0.9274" stop-color="#B7843C"/>
</radialGradient>
<radialGradient id="paint28_radial_839_3149" cx="0" cy="0" r="1" gradientUnits="userSpaceOnUse" gradientTransform="translate(334.008 44.6776) rotate(180) scale(22.8655)">
<stop stop-color="#F2E5D1"/>
<stop offset="0.5391" stop-color="#F5EBD9" stop-opacity="0.3616"/>
<stop offset="0.9624" stop-color="#F9EDDE" stop-opacity="0"/>
</radialGradient>
<linearGradient id="paint29_linear_839_3149" x1="328.689" y1="60.4121" x2="292.726" y2="54.1932" gradientUnits="userSpaceOnUse">
<stop stop-color="#B7843C"/>
<stop offset="0.2364" stop-color="#FDEE87"/>
<stop offset="0.2678" stop-color="#F9E178"/>
<stop offset="0.3261" stop-color="#F3D061"/>
<stop offset="0.3886" stop-color="#EFC350"/>
<stop offset="0.4573" stop-color="#EDBC46"/>
<stop offset="0.5447" stop-color="#ECBA43"/>
<stop offset="0.6421" stop-color="#EDBB45"/>
<stop offset="0.6953" stop-color="#EEC04D"/>
<stop offset="0.7378" stop-color="#F1C85B"/>
<stop offset="0.7746" stop-color="#F4D56E"/>
<stop offset="0.8074" stop-color="#F9E485"/>
<stop offset="0.8284" stop-color="#FDF498"/>
<stop offset="0.8568" stop-color="#F2E28B"/>
<stop offset="0.9104" stop-color="#DBBF6D"/>
<stop offset="0.9829" stop-color="#BD8E43"/>
<stop offset="0.9972" stop-color="#B7843C"/>
</linearGradient>
<radialGradient id="paint30_radial_839_3149" cx="0" cy="0" r="1" gradientUnits="userSpaceOnUse" gradientTransform="translate(310.707 57.3024) rotate(-170.189) scale(14.1062)">
<stop offset="0.002793" stop-color="#B7843C" stop-opacity="0"/>
<stop offset="0.9274" stop-color="#B7843C"/>
</radialGradient>
<radialGradient id="paint31_radial_839_3149" cx="0" cy="0" r="1" gradientUnits="userSpaceOnUse" gradientTransform="translate(318.203 52.5512) rotate(180) scale(21.4194)">
<stop stop-color="#F2E5D1"/>
<stop offset="0.5391" stop-color="#F5EBD9" stop-opacity="0.3616"/>
<stop offset="0.9624" stop-color="#F9EDDE" stop-opacity="0"/>
</radialGradient>
<linearGradient id="paint32_linear_839_3149" x1="5.34504" y1="29.2052" x2="31.0023" y2="26.4728" gradientUnits="userSpaceOnUse">
<stop stop-color="#B7843C"/>
<stop offset="0.2364" stop-color="#FDEE87"/>
<stop offset="0.2678" stop-color="#F9E178"/>
<stop offset="0.3261" stop-color="#F3D061"/>
<stop offset="0.3886" stop-color="#EFC350"/>
<stop offset="0.4573" stop-color="#EDBC46"/>
<stop offset="0.5447" stop-color="#ECBA43"/>
<stop offset="0.6421" stop-color="#EDBB45"/>
<stop offset="0.6953" stop-color="#EEC04D"/>
<stop offset="0.7378" stop-color="#F1C85B"/>
<stop offset="0.7746" stop-color="#F4D56E"/>
<stop offset="0.8074" stop-color="#F9E485"/>
<stop offset="0.8284" stop-color="#FDF498"/>
<stop offset="0.8568" stop-color="#F2E28B"/>
<stop offset="0.9104" stop-color="#DBBF6D"/>
<stop offset="0.9829" stop-color="#BD8E43"/>
<stop offset="0.9972" stop-color="#B7843C"/>
</linearGradient>
<radialGradient id="paint33_radial_839_3149" cx="0" cy="0" r="1" gradientUnits="userSpaceOnUse" gradientTransform="translate(23.4965 38.8901) rotate(-6.07888) scale(30.2999)">
<stop offset="0.002793" stop-color="#B7843C" stop-opacity="0"/>
<stop offset="0.9274" stop-color="#B7843C"/>
</radialGradient>
<radialGradient id="paint34_radial_839_3149" cx="0" cy="0" r="1" gradientUnits="userSpaceOnUse" gradientTransform="translate(11.6866 34.4776) rotate(-6.07888) scale(22.0965)">
<stop stop-color="#F2E5D1"/>
<stop offset="0.5391" stop-color="#F5EBD9" stop-opacity="0.3616"/>
<stop offset="0.9624" stop-color="#F9EDDE" stop-opacity="0"/>
</radialGradient>
<linearGradient id="paint35_linear_839_3149" x1="1.0201" y1="43.2433" x2="37.6257" y2="38.0979" gradientUnits="userSpaceOnUse">
<stop stop-color="#B7843C"/>
<stop offset="0.2364" stop-color="#FDEE87"/>
<stop offset="0.2678" stop-color="#F9E178"/>
<stop offset="0.3261" stop-color="#F3D061"/>
<stop offset="0.3886" stop-color="#EFC350"/>
<stop offset="0.4573" stop-color="#EDBC46"/>
<stop offset="0.5447" stop-color="#ECBA43"/>
<stop offset="0.6421" stop-color="#EDBB45"/>
<stop offset="0.6953" stop-color="#EEC04D"/>
<stop offset="0.7378" stop-color="#F1C85B"/>
<stop offset="0.7746" stop-color="#F4D56E"/>
<stop offset="0.8074" stop-color="#F9E485"/>
<stop offset="0.8284" stop-color="#FDF498"/>
<stop offset="0.8568" stop-color="#F2E28B"/>
<stop offset="0.9104" stop-color="#DBBF6D"/>
<stop offset="0.9829" stop-color="#BD8E43"/>
<stop offset="0.9972" stop-color="#B7843C"/>
</linearGradient>
<radialGradient id="paint36_radial_839_3149" cx="0" cy="0" r="1" gradientUnits="userSpaceOnUse" gradientTransform="translate(19.3256 40.6775) rotate(-8.00127) scale(17.0489)">
<stop offset="0.002793" stop-color="#B7843C" stop-opacity="0"/>
<stop offset="0.9274" stop-color="#B7843C"/>
</radialGradient>
<radialGradient id="paint37_radial_839_3149" cx="0" cy="0" r="1" gradientUnits="userSpaceOnUse" gradientTransform="translate(15.7812 44.6776) scale(22.8655)">
<stop stop-color="#F2E5D1"/>
<stop offset="0.5391" stop-color="#F5EBD9" stop-opacity="0.3616"/>
<stop offset="0.9624" stop-color="#F9EDDE" stop-opacity="0"/>
</radialGradient>
<linearGradient id="paint38_linear_839_3149" x1="21.1003" y1="60.4121" x2="57.0634" y2="54.1932" gradientUnits="userSpaceOnUse">
<stop stop-color="#B7843C"/>
<stop offset="0.2364" stop-color="#FDEE87"/>
<stop offset="0.2678" stop-color="#F9E178"/>
<stop offset="0.3261" stop-color="#F3D061"/>
<stop offset="0.3886" stop-color="#EFC350"/>
<stop offset="0.4573" stop-color="#EDBC46"/>
<stop offset="0.5447" stop-color="#ECBA43"/>
<stop offset="0.6421" stop-color="#EDBB45"/>
<stop offset="0.6953" stop-color="#EEC04D"/>
<stop offset="0.7378" stop-color="#F1C85B"/>
<stop offset="0.7746" stop-color="#F4D56E"/>
<stop offset="0.8074" stop-color="#F9E485"/>
<stop offset="0.8284" stop-color="#FDF498"/>
<stop offset="0.8568" stop-color="#F2E28B"/>
<stop offset="0.9104" stop-color="#DBBF6D"/>
<stop offset="0.9829" stop-color="#BD8E43"/>
<stop offset="0.9972" stop-color="#B7843C"/>
</linearGradient>
<radialGradient id="paint39_radial_839_3149" cx="0" cy="0" r="1" gradientUnits="userSpaceOnUse" gradientTransform="translate(39.0818 57.3024) rotate(-9.81083) scale(14.1062)">
<stop offset="0.002793" stop-color="#B7843C" stop-opacity="0"/>
<stop offset="0.9274" stop-color="#B7843C"/>
</radialGradient>
<radialGradient id="paint40_radial_839_3149" cx="0" cy="0" r="1" gradientUnits="userSpaceOnUse" gradientTransform="translate(31.5859 52.5512) scale(21.4194)">
<stop stop-color="#F2E5D1"/>
<stop offset="0.5391" stop-color="#F5EBD9" stop-opacity="0.3616"/>
<stop offset="0.9624" stop-color="#F9EDDE" stop-opacity="0"/>
</radialGradient>
<clipPath id="clip0_839_3149">
<rect width="58.438" height="52.6908" fill="white" transform="translate(291.352 12.0542)"/>
</clipPath>
<clipPath id="clip1_839_3149">
<rect width="58.438" height="52.6908" fill="white" transform="matrix(-1 0 0 1 58.4375 12.0542)"/>
</clipPath>
</defs>
</svg>
