<svg width="808" height="107" viewBox="0 0 808 107" fill="none" xmlns="http://www.w3.org/2000/svg">
<path fill-rule="evenodd" clip-rule="evenodd" d="M147.221 59.2548H251.363V34C238.481 49.3038 186.342 52.4607 165.256 45.5293C158.408 49.2352 151.696 54.5195 147.221 59.2548Z" fill="url(#paint0_linear_3573_11130)"/>
<path fill-rule="evenodd" clip-rule="evenodd" d="M355.573 59.2548H251.363V34C264.245 49.3038 316.384 52.4607 337.47 45.5293C344.385 49.2352 351.03 54.5195 355.573 59.2548Z" fill="url(#paint1_linear_3573_11130)"/>
<g style="mix-blend-mode:screen">
<path fill-rule="evenodd" clip-rule="evenodd" d="M241.734 51.3627C220.445 58.9117 180.782 58.5686 158.543 59.2549H251.43V40.1079C251.362 45.6667 249.667 48.549 241.734 51.3627Z" fill="url(#paint2_linear_3573_11130)"/>
</g>
<path d="M490.864 59.3553L429.509 59.9317L368.153 60.2545L245.42 60.5081L122.71 60.2545L61.3551 59.9317L0 59.3553L61.3551 58.8019L122.71 58.4791L245.42 58.2024L368.153 58.4791L429.509 58.8019L490.864 59.3553Z" fill="url(#paint3_linear_3573_11130)"/>
<path fill-rule="evenodd" clip-rule="evenodd" d="M464.221 59.2548H568.363V34C555.481 49.3038 503.342 52.4607 482.256 45.5293C475.408 49.2352 468.696 54.5195 464.221 59.2548Z" fill="url(#paint4_linear_3573_11130)"/>
<path fill-rule="evenodd" clip-rule="evenodd" d="M672.573 59.2548H568.363V34C581.245 49.3038 633.384 52.4607 654.47 45.5293C661.385 49.2352 668.03 54.5195 672.573 59.2548Z" fill="url(#paint5_linear_3573_11130)"/>
<g style="mix-blend-mode:screen">
<path fill-rule="evenodd" clip-rule="evenodd" d="M558.734 51.3627C537.445 58.9117 497.782 58.5686 475.543 59.2549H568.43V40.1079C568.362 45.6667 566.667 48.549 558.734 51.3627Z" fill="url(#paint6_linear_3573_11130)"/>
</g>
<path d="M807.864 59.3553L746.509 59.9317L685.153 60.2545L562.42 60.5081L439.71 60.2545L378.355 59.9317L317 59.3553L378.355 58.8019L439.71 58.4791L562.42 58.2024L685.153 58.4791L746.509 58.8019L807.864 59.3553Z" fill="url(#paint7_linear_3573_11130)"/>
<g filter="url(#filter0_d_3573_11130)">
<path d="M239.394 81.7589L226.606 81.7288L226.967 79.9084L229.284 69.3018L232.233 55.3552L217.745 74.1612L210.899 54.7534L205.453 80.4049V81.7438L203.949 81.7739L190.995 81.7438L188.799 68.1283H194.079L196.306 57.5818L192.62 52.8878L198.307 48.1487L200.458 38.0536H194.967L202.941 24.438H203.633L204.596 24.3628H216.601L223.402 45.561L239.289 24.3628H253.386L252.529 26.0629L254.499 38.0536H249.896L247.639 48.6452L251.295 53.3091L245.683 57.9278L243.517 68.0982H248.346L240.884 80.7509V81.7138L239.394 81.7589ZM230.292 78.7499L238.597 78.7349L243.095 71.1071H239.816L242.96 56.2729L247.112 52.8577L244.404 49.4125L247.458 35.0446H250.964L249.715 27.447H248.557L248.587 27.3718H240.779L222.319 52.0303L214.42 27.3718L204.671 27.4319L200.218 35.0446H204.189L201.045 49.7735L196.802 53.294L199.556 56.7844L196.547 71.0921H192.334L193.553 78.6897L202.715 78.7198L210.177 43.5901L218.723 67.8424L219.084 67.376L237.905 43.0635L230.292 78.7499Z" fill="url(#paint8_linear_3573_11130)"/>
<path d="M271.605 78.6444H259.449L257.448 66.2776H261.555L263.616 56.4533L260.337 52.331L262.639 50.4203L259.013 39.9792H252.002L259.268 27.6123H268.927L273.335 40.2199L283.16 27.6123H297.859L293.39 33.54L286.139 42.9129V42.8377L279.82 50.9318L281.249 52.7522L276.269 56.8444L271.605 78.6444ZM262.007 75.6355H269.168L273.531 55.2046L277.052 52.3159L275.983 50.9619L289.148 34.1117L291.826 30.6213H284.619L272.312 46.4334L266.791 30.6213H260.984L257.252 36.9702H261.164L266.174 51.3982L264.534 52.7522L266.866 55.6709L264.008 69.2715H260.999L262.007 75.6355Z" fill="url(#paint9_linear_3573_11130)"/>
<path d="M320.2 78.6895L286.5 78.6444L287.071 76.8992L285.281 66.1571H289.358L291.209 57.4462H303.861L301.845 55.6558L295.542 56.6338L295.918 50.4202L294.188 48.8706H293.104L293.255 48.0281L292.924 47.7272L293.45 46.9298L297.392 28.4096L298.159 27.6724L298.806 27.6423H332.326L331.905 29.538L333.62 40.1747H329.633L327.707 49.3821H315.356L316.98 50.8264L323.149 49.8485L322.818 55.9868L324.428 57.4311H325.932L321.705 77.4709V78.6444L320.2 78.6895ZM289.915 75.6354H319.027L322.412 59.6277L319.749 57.2355L319.959 53.369L316.048 53.9859L303.907 43.1837L305.17 37.2259H320.682L318.756 46.328H325.27L327.196 37.1206H330.1L329.046 30.6212H300.01L296.775 45.8466H297.723L296.866 47.2006L299.032 49.1414L298.791 53.0832L302.808 52.4663L315.1 63.3738L313.911 69.0608H298.4L300.221 60.4551H293.661L291.81 69.1661H288.847L289.915 75.6354ZM302.116 66.0518H311.474L311.805 64.4721L303.937 57.4913L302.116 66.0518ZM307.216 42.1155L315.085 49.1113L316.965 40.2499H307.623L307.216 42.1155Z" fill="url(#paint10_linear_3573_11130)"/>
<path d="M349.417 78.8401H338.254V77.9073L338.164 77.5312L336.373 66.383H340.556L342.436 57.5065L339.112 53.309L344.242 49.0663L346.092 40.2952H335.877L334.132 27.6274H376.483L368.93 40.2952H358.835L356.88 49.5177L360.189 53.7603L355.059 57.9579L350.922 77.8171V78.795L349.417 78.8401ZM341.143 75.8311L348.259 75.8161L352.336 56.3029L356.007 53.2939L353.645 50.2549L356.398 37.2712H367.23L371.202 30.6214H337.592L338.51 37.2712H349.823L346.98 50.7062L343.309 53.7453L345.671 56.7392L342.978 69.3919H339.879L340.917 75.786L341.143 75.8311Z" fill="url(#paint11_linear_3573_11130)"/>
<path d="M402.977 78.8699L369.592 78.8248L367.591 66.4128H372.12L374.121 57.0399L370.766 52.7671L375.941 48.4643L375.971 48.344L377.702 40.2047H372.947L380.199 27.7927L416.833 27.7476L414.607 29.9742L410.56 49.0511H398.148L396.342 57.5213H408.784L404.527 77.4106L404.496 78.7947L402.977 78.8699ZM372.827 75.861H401.773L405.053 60.5754H398.463L396.613 69.2563H381.147L383.795 56.8443H393.423L394.838 50.2246H385.209L387.932 37.3913H403.398L401.548 46.0722H408.137L411.372 30.8167H409.582L409.612 30.7716L381.944 30.7866L378.198 37.1957H381.388L380.981 39.1816L378.604 50.1493L374.918 53.2034L377.325 56.2726L376.844 58.6196L374.572 69.4368H371.127L372.165 75.8309L372.827 75.861ZM384.863 66.2323H394.176L395.545 59.8382H386.232L384.863 66.2323ZM388.91 47.2156H398.208L399.667 40.4003H390.354L388.91 47.2156Z" fill="url(#paint12_linear_3573_11130)"/>
<path d="M409.461 78.6443L407.505 66.2624H411.643L413.553 57.2806L410.153 53.038L415.374 48.7502L417.194 40.2047H412.41L419.662 27.8078L456.281 27.5972L454.174 29.7034L454.19 29.8238L449.932 49.8485V50.4052L449.375 50.9317L446.396 53.3539L448.593 56.0771L444.049 77.4859L443.703 78.524L442.545 78.6443H431.412L429.456 66.2775H433.789L434.797 61.5233L433.774 60.2294L424.401 65.8412L423.889 68.2333L421.798 78.5992L409.461 78.6443ZM433.969 75.6354H441.371L445.358 56.8744L442.184 52.9327L447.043 48.9608L450.94 30.6362L421.392 30.8168L417.646 37.2108H420.895L418.082 50.4202L414.351 53.4893L416.788 56.5284L414.08 69.3015H411.026L412.034 75.6504L419.331 75.6203L421.723 63.9606L434.481 56.3178L438.016 60.7861L436.211 69.3015H432.961L433.969 75.6354ZM423.453 55.7912L427.425 37.2108H443.056L441.356 45.1244L423.453 55.7912ZM429.847 40.2198L427.831 49.683L438.678 43.2137L439.325 40.2198H429.847Z" fill="url(#paint13_linear_3573_11130)"/>
<path d="M471.581 78.6444H459.425L457.424 66.2776H461.531L463.593 56.4533L460.313 52.331L462.615 50.4203L458.989 39.9792H451.978L459.245 27.6123H468.903L473.312 40.2199L483.136 27.6123H497.835L493.366 33.54L486.115 42.9129V42.8377L479.796 50.9318L481.225 52.7522L476.245 56.8444L471.581 78.6444ZM461.983 75.6355H469.159L473.522 55.2046L477.043 52.3159L475.974 50.9619L489.139 34.1117L491.817 30.6213H484.61L472.304 46.4334L466.782 30.6213H460.975L457.244 36.9702H461.155L466.165 51.3982L464.525 52.7522L466.857 55.6709L463.999 69.2715H460.99L461.983 75.6355Z" fill="url(#paint14_linear_3573_11130)"/>
<path d="M535.326 78.7651L500.874 78.6146L498.873 66.2026H502.95L504.906 56.9801L501.626 52.8127L506.681 48.6453L508.562 39.8742H504.244L511.48 27.4622H545.828L545.798 29.433L541.465 49.6232V50.3303L537.944 53.1738L540.141 55.8969L535.326 78.7651ZM503.431 75.6057L532.874 75.7411L536.906 56.6792L533.717 52.7375L538.561 48.8258L542.488 30.4711H513.196L509.464 36.8652H512.263L509.374 50.3002L505.778 53.2641L508.11 56.2279L505.357 69.2116H502.378L503.431 75.6057ZM527.774 68.7904H512.067L513.165 63.7052L526.044 56.0173L529.519 60.5006L527.774 68.7904ZM515.813 65.7814H525.352L526.315 61.2529L525.322 59.9741L515.843 65.6309L515.813 65.7814ZM514.941 55.5208L518.822 37.1209H534.514L532.889 44.7637L514.941 55.5208ZM521.26 40.145L519.304 49.4126L530.226 42.8831L530.798 40.145H521.26Z" fill="url(#paint15_linear_3573_11130)"/>
<path d="M549.83 78.7651L540.141 78.6447L538.14 66.2778H542.322L544.233 57.1757L540.953 53.0083L546.038 48.8108L550.371 27.7781H557.111L557.081 27.8232L585.381 27.7781L587.382 40.1449H583.304L581.394 49.2621L584.673 53.4747L579.588 57.612L575.12 78.6447H572.472L565.672 78.7651H549.83ZM542.698 75.6357H543.014L549.86 75.7561H565.642L572.683 75.6357L576.85 55.9571L580.476 52.9932L578.144 49.9993L580.852 37.136H583.831L582.748 30.787L582.071 30.8322H552.824L551.184 38.9564L548.761 50.4807L545.136 53.4747L547.468 56.4385L544.759 69.3169H541.675L542.698 75.6357ZM567.537 69.1364H551.349L558.044 37.4369H574.232L567.537 69.1364ZM555.065 66.1274H565.1L570.531 40.4458H560.496L555.065 66.1274Z" fill="url(#paint16_linear_3573_11130)"/>
<path d="M621.669 78.7196H607.512L603.134 66.0669L593.279 78.7196H583.53L581.529 66.3077H588.059L596.439 55.5355L594.453 52.9629L597.612 50.315L594.062 40.0243H586.961L594.272 27.6123H603.976L608.384 40.25L618.164 27.6424H632.968L623.881 39.4376L615.004 50.8415L617.005 53.4293L613.876 56.0019L621.669 78.7196ZM609.648 75.7107H617.471L610.34 54.9939L612.823 52.9478L611.183 50.8265L626.874 30.6664H619.623L607.346 46.4785L601.825 30.6213H595.987L592.226 37.0153H596.183L601.118 51.2929L598.861 53.1885L601.704 53.1585V53.2036H598.861L598.59 53.4293L600.245 55.5656L589.533 69.3467H585.065L586.103 75.7408H591.82L604.172 59.8835L609.648 75.7107Z" fill="url(#paint17_linear_3573_11130)"/>
<path d="M252.739 36.5493H248.677L246.029 49.0215L249.219 53.0836L244.329 57.1005L241.681 69.6028H245.743L239.485 80.2094H239.409V80.2545H228.487V80.2094H228.442L230.759 69.6028L235.077 49.217L220.302 68.324L218.256 71.017L217.309 68.324L210.568 49.1869L206.251 69.6178L203.979 80.2245V80.2696H193.041V80.2245H192.289L190.574 69.6028H195.313L197.931 57.1758L194.711 53.0836L199.676 48.9462L202.324 36.5493H197.585L203.798 25.9427H204.566L204.611 25.8674H213.638H214.886H215.533L222.89 48.7958L240.041 25.8674H250.964L250.919 25.9427H250.994L252.739 36.5493Z" fill="url(#paint18_linear_3573_11130)"/>
<path d="M294.835 29.1169L292.187 32.6374L287.643 38.5049V38.4598L277.909 50.932L279.158 52.5267L274.915 56.0171L272.418 67.7672L270.402 77.1251H262.714H260.743L259.224 67.7672H262.789L265.257 56.0623L262.458 52.5418L264.429 50.9169L260.111 38.4899H254.65L258.065 32.6525L260.156 29.132H262.127H267.889L272.854 43.3494L283.927 29.132H289.689H294.835V29.1169Z" fill="url(#paint19_linear_3573_11130)"/>
<path d="M302.086 58.9508L300.266 67.5564H312.693L313.445 63.9156L302.342 54.0612L297.182 54.8586L297.483 49.7734L294.91 47.4565L294.985 47.3362H294.91L296.806 38.5048L298.776 29.1469L298.822 29.1018H330.476L330.401 29.4478L331.875 38.6252H328.43L326.504 47.8326H316.921L318.846 38.7305H306.419L305.592 42.6271L316.544 52.3611L321.554 51.5939L321.284 56.6038L323.856 58.9207H324.082L322.231 67.8272L320.26 77.0046L320.215 77.155H320.17V77.2002H318.199V77.155H298.19H288.561L288.606 77.0347L287.057 67.6768H290.577L292.428 58.9658H302.086V58.9508Z" fill="url(#paint20_linear_3573_11130)"/>
<path d="M347.943 38.7906H337.186L335.862 29.1318H373.835L368.073 38.7906H357.617L355.27 49.8937L358.113 53.5346L353.72 57.1303L351.448 67.8874L349.523 77.2904H349.447V77.3355H339.789V77.2904H339.668L338.149 67.8874H341.789L344.061 57.1303L341.218 53.5346L345.611 49.8937L347.943 38.7906Z" fill="url(#paint21_linear_3573_11130)"/>
<path d="M375.565 38.7157L381.057 29.3127H381.508L381.553 29.2676H413.208L413.162 29.3127H413.208V29.3578L411.237 38.7157L409.341 47.5772H399.682L401.533 38.8963H389.136L387.045 48.7055H396.673L394.627 58.3342H384.999L382.983 67.7373H395.379L397.23 59.0564H406.889L404.993 67.9178L402.977 77.2757V77.3208H402.932V77.366H371.278V77.3208H370.826L369.307 67.9178H373.294L373.339 67.7222L375.355 58.3192L375.701 56.6492L372.827 52.9783L377.265 49.3073L377.416 48.7055L379.507 38.8963L379.552 38.7007H375.565V38.7157Z" fill="url(#paint22_linear_3573_11130)"/>
<path d="M442.545 77.14H434.661H432.691L431.216 67.7821H435.007L436.407 61.1474L434.135 58.2738L423.062 64.9086L422.415 67.9476L420.564 77.125L410.755 77.1701L409.281 67.8122H412.876L415.193 56.9348L412.275 53.294L416.743 49.623L419.06 38.7456H415.043L420.534 29.3426L452.64 29.147L452.595 29.1921L452.67 29.7939L450.744 38.896L448.427 49.7283V49.8035L444.29 53.1736L446.983 56.5135L444.561 67.9627L442.635 77.0648L442.59 77.1852H442.545V77.14ZM428.628 38.7155L425.635 52.7373L440.002 44.1768L441.176 38.7155H428.628Z" fill="url(#paint23_linear_3573_11130)"/>
<path d="M494.811 29.1169L492.163 32.6374L487.619 38.5049V38.4598L477.885 50.932L479.134 52.5267L474.891 56.0171L472.364 67.7822L470.348 77.1401H462.66H460.689L459.17 67.7822H462.735L465.203 56.0773L462.404 52.5568L464.375 50.932L460.057 38.5049H454.596L458.011 32.6675L460.102 29.147H462.073H467.835L472.8 43.3644L483.873 29.147H489.635H494.811V29.1169Z" fill="url(#paint24_linear_3573_11130)"/>
<path d="M542.322 38.5203L539.975 49.4729V49.6234L535.838 52.9633L538.531 56.3033L536.064 67.8577L534.093 77.2608L502.363 77.1103H502.138L500.618 67.7073H504.139L506.486 56.6042L503.687 53.0386L508.005 49.4729L510.397 38.3698H506.832L512.323 28.9668H512.368H514.294H522.012H544.143H544.338V29.1172L542.322 38.5203ZM525.683 58.0034L514.504 64.6682L513.933 67.286H526.555L527.924 60.8769L525.683 58.0034ZM517.122 52.4668L531.565 43.8311L532.664 38.6406H520.041L517.122 52.4668Z" fill="url(#paint25_linear_3573_11130)"/>
<path d="M582.583 53.219L578.22 56.7846L575.903 67.7824L573.887 77.1403H572.442L565.642 77.2606H549.83L543.015 77.1403H541.42L539.9 67.7824H543.541L545.858 56.7846L543.06 53.219L547.423 49.6233L549.74 38.6255L551.635 29.2676H553.606L553.561 29.3127H582.101L582.146 29.2676H584.117L585.637 38.6255H582.116L579.799 49.6233L582.583 53.219ZM572.382 38.9414H559.263L553.2 67.6319H566.319L572.382 38.9414Z" fill="url(#paint26_linear_3573_11130)"/>
<path d="M622.677 38.5198L613.093 50.8415L614.914 53.1885L612.115 55.5055L616.358 67.8573L618.404 73.7248L619.578 77.2152H614.387H608.595L603.675 62.9677L592.572 77.2152H586.81H584.839L584.267 73.6495L583.32 67.8121H588.811L598.364 55.5355L596.544 53.1885L599.387 50.7964L595.145 38.5198H589.608L593.099 32.6523L595.145 29.1318H597.161H602.923L607.888 43.3793L618.916 29.1619H624.678H629.944L627.251 32.6824L622.677 38.5198ZM600.2 53.1434V53.1885V53.1434Z" fill="url(#paint27_linear_3573_11130)"/>
<path fill-rule="evenodd" clip-rule="evenodd" d="M199.748 20H220.359L224.746 35.399L236.654 20.3761H253.522L274.631 20.4071L276.125 27.9582L281.109 22.7532H377.466L378.682 24.6483L380.962 20.5867H474.028L476.261 31.2814L480.849 23.2647H503.708L494.275 39.6937H499.82L510.021 21.8355H589.133L590.109 26.9923L592.657 22.0912H606.527L609.49 31.4144L615.704 22.2567H641.592L622.114 51.0033L624.6 54.6013L620.224 58.9779L630.298 86.4832H600.423L599.445 80.7884L594.033 84.9787H581.347L579.843 79.5174H578.847L576.244 86.4832H538.091L536.948 83.2794L535.513 86.4832H495.097L491.233 61.0529L478.76 70.5212L473.899 86.4832H455.16L453.482 77.5266L449.766 74.1416L446.462 83.4742H428.234L427.262 77.7296L424.126 79.3674L422.816 86.4832H408.339L406.755 83.1546L404.355 86.4832H367.307L365.32 75.2338L358.334 66.5088L352.973 86.4832H335.828L333.154 74.2362L327.775 78.3993L325.19 83.4742H286.17L284.846 81.0069H282.237L283.822 77.1126L282.575 70.987H277.465L273.463 83.4742H258.552L255.212 71.9047H250.897L244.091 81.3163L244.46 86.4832H219.758L222.369 75.4504L216.033 83.2016L211.577 72.6456L208.918 86.4832H187.783L182 64.5478H190.018L191.254 59.0647L185.891 53.5905L194.231 46.4901L195.43 42.2814H187.211L199.748 20ZM200.627 21.5045L189.784 40.7769H197.423L195.553 47.3404L188.095 53.6901L192.902 58.5968L191.22 66.0523H183.953L188.942 84.9787H207.675L211.035 67.4929L216.448 80.3166L225.337 69.4423L221.66 84.9787H242.844L242.551 80.8779L250.128 70.4002H256.344L259.684 81.9697H272.365L276.367 69.4825H283.805L285.387 77.2583L284.474 79.5024H285.746L287.07 81.9697H324.268L326.587 77.4159L334.116 71.5893L337.039 84.9787H351.819L357.652 63.2488L366.734 74.5936L368.569 84.9787H403.585L407.022 80.2131L409.29 84.9787H421.563L422.78 78.3735L428.4 75.4377L429.505 81.9697H445.398L449.105 71.5033L454.868 76.754L456.409 84.9787H472.785L477.462 69.6172L492.34 58.3237L496.39 84.9787H534.538L537.106 79.2458L539.152 84.9787H575.2L577.803 78.0129H580.989L582.493 83.4742H593.519L600.504 78.0659L601.691 84.9787H628.145L618.481 58.5933L622.649 54.4245L620.291 51.0116L638.756 23.7612H616.501L608.994 34.8238L605.427 23.5957H593.571L589.439 31.5429L587.887 23.34H510.894L500.694 41.1982H491.676L501.109 24.7692H481.722L475.598 35.4683L472.806 22.0912H381.843L378.768 27.5681L376.644 24.2577H281.751L275.21 31.0885L273.394 21.9098L253.522 21.8806H237.381L224.103 38.6324L219.223 21.5045H200.627Z" fill="url(#paint28_linear_3573_11130)"/>
</g>
<defs>
<filter id="filter0_d_3573_11130" x="162" y="0" width="499.593" height="106.483" filterUnits="userSpaceOnUse" color-interpolation-filters="sRGB">
<feFlood flood-opacity="0" result="BackgroundImageFix"/>
<feColorMatrix in="SourceAlpha" type="matrix" values="0 0 0 0 0 0 0 0 0 0 0 0 0 0 0 0 0 0 127 0" result="hardAlpha"/>
<feOffset/>
<feGaussianBlur stdDeviation="10"/>
<feComposite in2="hardAlpha" operator="out"/>
<feColorMatrix type="matrix" values="0 0 0 0 0 0 0 0 0 0 0 0 0 0 0 0 0 0 1 0"/>
<feBlend mode="normal" in2="BackgroundImageFix" result="effect1_dropShadow_3573_11130"/>
<feBlend mode="normal" in="SourceGraphic" in2="effect1_dropShadow_3573_11130" result="shape"/>
</filter>
<linearGradient id="paint0_linear_3573_11130" x1="147.221" y1="46.626" x2="251.384" y2="46.626" gradientUnits="userSpaceOnUse">
<stop stop-color="#DE8C26"/>
<stop offset="0.7175" stop-color="#FFD24F"/>
<stop offset="1" stop-color="#FFE48A"/>
</linearGradient>
<linearGradient id="paint1_linear_3573_11130" x1="251.384" y1="46.626" x2="355.548" y2="46.626" gradientUnits="userSpaceOnUse">
<stop stop-color="#945200"/>
<stop offset="1" stop-color="#E39919"/>
</linearGradient>
<linearGradient id="paint2_linear_3573_11130" x1="158.51" y1="49.6937" x2="251.384" y2="49.6937" gradientUnits="userSpaceOnUse">
<stop stop-color="#473626"/>
<stop offset="1" stop-color="#E8E7B3"/>
</linearGradient>
<linearGradient id="paint3_linear_3573_11130" x1="0.000461143" y1="59.3617" x2="490.862" y2="59.3617" gradientUnits="userSpaceOnUse">
<stop stop-color="#FFE668"/>
<stop offset="0.1453" stop-color="#FE9A03"/>
<stop offset="1" stop-color="#FFE668"/>
</linearGradient>
<linearGradient id="paint4_linear_3573_11130" x1="464.221" y1="46.626" x2="568.384" y2="46.626" gradientUnits="userSpaceOnUse">
<stop stop-color="#DE8C26"/>
<stop offset="0.7175" stop-color="#FFD24F"/>
<stop offset="1" stop-color="#FFE48A"/>
</linearGradient>
<linearGradient id="paint5_linear_3573_11130" x1="568.384" y1="46.626" x2="672.548" y2="46.626" gradientUnits="userSpaceOnUse">
<stop stop-color="#945200"/>
<stop offset="1" stop-color="#E39919"/>
</linearGradient>
<linearGradient id="paint6_linear_3573_11130" x1="475.51" y1="49.6937" x2="568.384" y2="49.6937" gradientUnits="userSpaceOnUse">
<stop stop-color="#473626"/>
<stop offset="1" stop-color="#E8E7B3"/>
</linearGradient>
<linearGradient id="paint7_linear_3573_11130" x1="317" y1="59.3617" x2="807.862" y2="59.3617" gradientUnits="userSpaceOnUse">
<stop stop-color="#FFE668"/>
<stop offset="0.1453" stop-color="#FE9A03"/>
<stop offset="1" stop-color="#FFE668"/>
</linearGradient>
<linearGradient id="paint8_linear_3573_11130" x1="188.944" y1="37.1589" x2="501.208" y2="186.27" gradientUnits="userSpaceOnUse">
<stop stop-color="#DA9127"/>
<stop offset="0.0317" stop-color="#C68529"/>
<stop offset="0.0842" stop-color="#AF772A"/>
<stop offset="0.1201" stop-color="#A7732A"/>
<stop offset="0.2051" stop-color="#AE782A"/>
<stop offset="0.3119" stop-color="#C1872A"/>
<stop offset="0.3897" stop-color="#D99A28"/>
<stop offset="0.7819" stop-color="#FBF17D"/>
<stop offset="1" stop-color="#F6CE6A"/>
</linearGradient>
<linearGradient id="paint9_linear_3573_11130" x1="199.391" y1="15.2813" x2="511.655" y2="164.392" gradientUnits="userSpaceOnUse">
<stop stop-color="#DA9127"/>
<stop offset="0.0317" stop-color="#C68529"/>
<stop offset="0.0842" stop-color="#AF772A"/>
<stop offset="0.1201" stop-color="#A7732A"/>
<stop offset="0.2051" stop-color="#AE782A"/>
<stop offset="0.3119" stop-color="#C1872A"/>
<stop offset="0.3897" stop-color="#D99A28"/>
<stop offset="0.7819" stop-color="#FBF17D"/>
<stop offset="1" stop-color="#F6CE6A"/>
</linearGradient>
<linearGradient id="paint10_linear_3573_11130" x1="205.104" y1="3.31618" x2="517.368" y2="152.427" gradientUnits="userSpaceOnUse">
<stop stop-color="#DA9127"/>
<stop offset="0.0317" stop-color="#C68529"/>
<stop offset="0.0842" stop-color="#AF772A"/>
<stop offset="0.1201" stop-color="#A7732A"/>
<stop offset="0.2051" stop-color="#AE782A"/>
<stop offset="0.3119" stop-color="#C1872A"/>
<stop offset="0.3897" stop-color="#D99A28"/>
<stop offset="0.7819" stop-color="#FBF17D"/>
<stop offset="1" stop-color="#F6CE6A"/>
</linearGradient>
<linearGradient id="paint11_linear_3573_11130" x1="213.969" y1="-15.2475" x2="526.233" y2="133.864" gradientUnits="userSpaceOnUse">
<stop stop-color="#DA9127"/>
<stop offset="0.0317" stop-color="#C68529"/>
<stop offset="0.0842" stop-color="#AF772A"/>
<stop offset="0.1201" stop-color="#A7732A"/>
<stop offset="0.2051" stop-color="#AE782A"/>
<stop offset="0.3119" stop-color="#C1872A"/>
<stop offset="0.3897" stop-color="#D99A28"/>
<stop offset="0.7819" stop-color="#FBF17D"/>
<stop offset="1" stop-color="#F6CE6A"/>
</linearGradient>
<linearGradient id="paint12_linear_3573_11130" x1="220.596" y1="-29.1271" x2="532.86" y2="119.984" gradientUnits="userSpaceOnUse">
<stop stop-color="#DA9127"/>
<stop offset="0.0317" stop-color="#C68529"/>
<stop offset="0.0842" stop-color="#AF772A"/>
<stop offset="0.1201" stop-color="#A7732A"/>
<stop offset="0.2051" stop-color="#AE782A"/>
<stop offset="0.3119" stop-color="#C1872A"/>
<stop offset="0.3897" stop-color="#D99A28"/>
<stop offset="0.7819" stop-color="#FBF17D"/>
<stop offset="1" stop-color="#F6CE6A"/>
</linearGradient>
<linearGradient id="paint13_linear_3573_11130" x1="228.029" y1="-44.6921" x2="540.293" y2="104.419" gradientUnits="userSpaceOnUse">
<stop stop-color="#DA9127"/>
<stop offset="0.0317" stop-color="#C68529"/>
<stop offset="0.0842" stop-color="#AF772A"/>
<stop offset="0.1201" stop-color="#A7732A"/>
<stop offset="0.2051" stop-color="#AE782A"/>
<stop offset="0.3119" stop-color="#C1872A"/>
<stop offset="0.3897" stop-color="#D99A28"/>
<stop offset="0.7819" stop-color="#FBF17D"/>
<stop offset="1" stop-color="#F6CE6A"/>
</linearGradient>
<linearGradient id="paint14_linear_3573_11130" x1="236.521" y1="-62.4755" x2="548.785" y2="86.6356" gradientUnits="userSpaceOnUse">
<stop stop-color="#DA9127"/>
<stop offset="0.0317" stop-color="#C68529"/>
<stop offset="0.0842" stop-color="#AF772A"/>
<stop offset="0.1201" stop-color="#A7732A"/>
<stop offset="0.2051" stop-color="#AE782A"/>
<stop offset="0.3119" stop-color="#C1872A"/>
<stop offset="0.3897" stop-color="#D99A28"/>
<stop offset="0.7819" stop-color="#FBF17D"/>
<stop offset="1" stop-color="#F6CE6A"/>
</linearGradient>
<linearGradient id="paint15_linear_3573_11130" x1="237.514" y1="-83.4593" x2="549.778" y2="65.6519" gradientUnits="userSpaceOnUse">
<stop stop-color="#DA9127"/>
<stop offset="0.0317" stop-color="#C68529"/>
<stop offset="0.0842" stop-color="#AF772A"/>
<stop offset="0.1201" stop-color="#A7732A"/>
<stop offset="0.2051" stop-color="#AE782A"/>
<stop offset="0.3119" stop-color="#C1872A"/>
<stop offset="0.3897" stop-color="#D99A28"/>
<stop offset="0.7819" stop-color="#FBF17D"/>
<stop offset="1" stop-color="#F6CE6A"/>
</linearGradient>
<linearGradient id="paint16_linear_3573_11130" x1="244.763" y1="-98.6408" x2="557.028" y2="50.4704" gradientUnits="userSpaceOnUse">
<stop stop-color="#DA9127"/>
<stop offset="0.0317" stop-color="#C68529"/>
<stop offset="0.0842" stop-color="#AF772A"/>
<stop offset="0.1201" stop-color="#A7732A"/>
<stop offset="0.2051" stop-color="#AE782A"/>
<stop offset="0.3119" stop-color="#C1872A"/>
<stop offset="0.3897" stop-color="#D99A28"/>
<stop offset="0.7819" stop-color="#FBF17D"/>
<stop offset="1" stop-color="#F6CE6A"/>
</linearGradient>
<linearGradient id="paint17_linear_3573_11130" x1="253.217" y1="-116.345" x2="565.482" y2="32.7664" gradientUnits="userSpaceOnUse">
<stop stop-color="#DA9127"/>
<stop offset="0.0317" stop-color="#C68529"/>
<stop offset="0.0842" stop-color="#AF772A"/>
<stop offset="0.1201" stop-color="#A7732A"/>
<stop offset="0.2051" stop-color="#AE782A"/>
<stop offset="0.3119" stop-color="#C1872A"/>
<stop offset="0.3897" stop-color="#D99A28"/>
<stop offset="0.7819" stop-color="#FBF17D"/>
<stop offset="1" stop-color="#F6CE6A"/>
</linearGradient>
<linearGradient id="paint18_linear_3573_11130" x1="605.079" y1="185.416" x2="217.702" y2="51.6842" gradientUnits="userSpaceOnUse">
<stop stop-color="#DA9127"/>
<stop offset="0.0317" stop-color="#C68529"/>
<stop offset="0.0842" stop-color="#AF772A"/>
<stop offset="0.1201" stop-color="#A7732A"/>
<stop offset="0.2051" stop-color="#AE782A"/>
<stop offset="0.3119" stop-color="#C1872A"/>
<stop offset="0.3897" stop-color="#D99A28"/>
<stop offset="0.7819" stop-color="#FBF17D"/>
<stop offset="1" stop-color="#F6CE6A"/>
</linearGradient>
<linearGradient id="paint19_linear_3573_11130" x1="611.031" y1="168.175" x2="223.654" y2="34.4427" gradientUnits="userSpaceOnUse">
<stop stop-color="#DA9127"/>
<stop offset="0.0317" stop-color="#C68529"/>
<stop offset="0.0842" stop-color="#AF772A"/>
<stop offset="0.1201" stop-color="#A7732A"/>
<stop offset="0.2051" stop-color="#AE782A"/>
<stop offset="0.3119" stop-color="#C1872A"/>
<stop offset="0.3897" stop-color="#D99A28"/>
<stop offset="0.7819" stop-color="#FBF17D"/>
<stop offset="1" stop-color="#F6CE6A"/>
</linearGradient>
<linearGradient id="paint20_linear_3573_11130" x1="614.411" y1="158.383" x2="227.034" y2="24.6512" gradientUnits="userSpaceOnUse">
<stop stop-color="#DA9127"/>
<stop offset="0.0317" stop-color="#C68529"/>
<stop offset="0.0842" stop-color="#AF772A"/>
<stop offset="0.1201" stop-color="#A7732A"/>
<stop offset="0.2051" stop-color="#AE782A"/>
<stop offset="0.3119" stop-color="#C1872A"/>
<stop offset="0.3897" stop-color="#D99A28"/>
<stop offset="0.7819" stop-color="#FBF17D"/>
<stop offset="1" stop-color="#F6CE6A"/>
</linearGradient>
<linearGradient id="paint21_linear_3573_11130" x1="619.414" y1="143.89" x2="232.037" y2="10.1577" gradientUnits="userSpaceOnUse">
<stop stop-color="#DA9127"/>
<stop offset="0.0317" stop-color="#C68529"/>
<stop offset="0.0842" stop-color="#AF772A"/>
<stop offset="0.1201" stop-color="#A7732A"/>
<stop offset="0.2051" stop-color="#AE782A"/>
<stop offset="0.3119" stop-color="#C1872A"/>
<stop offset="0.3897" stop-color="#D99A28"/>
<stop offset="0.7819" stop-color="#FBF17D"/>
<stop offset="1" stop-color="#F6CE6A"/>
</linearGradient>
<linearGradient id="paint22_linear_3573_11130" x1="623.145" y1="133.085" x2="235.768" y2="-0.64739" gradientUnits="userSpaceOnUse">
<stop stop-color="#DA9127"/>
<stop offset="0.0317" stop-color="#C68529"/>
<stop offset="0.0842" stop-color="#AF772A"/>
<stop offset="0.1201" stop-color="#A7732A"/>
<stop offset="0.2051" stop-color="#AE782A"/>
<stop offset="0.3119" stop-color="#C1872A"/>
<stop offset="0.3897" stop-color="#D99A28"/>
<stop offset="0.7819" stop-color="#FBF17D"/>
<stop offset="1" stop-color="#F6CE6A"/>
</linearGradient>
<linearGradient id="paint23_linear_3573_11130" x1="627.419" y1="120.703" x2="240.042" y2="-13.029" gradientUnits="userSpaceOnUse">
<stop stop-color="#DA9127"/>
<stop offset="0.0317" stop-color="#C68529"/>
<stop offset="0.0842" stop-color="#AF772A"/>
<stop offset="0.1201" stop-color="#A7732A"/>
<stop offset="0.2051" stop-color="#AE782A"/>
<stop offset="0.3119" stop-color="#C1872A"/>
<stop offset="0.3897" stop-color="#D99A28"/>
<stop offset="0.7819" stop-color="#FBF17D"/>
<stop offset="1" stop-color="#F6CE6A"/>
</linearGradient>
<linearGradient id="paint24_linear_3573_11130" x1="632.325" y1="106.493" x2="244.948" y2="-27.2394" gradientUnits="userSpaceOnUse">
<stop stop-color="#DA9127"/>
<stop offset="0.0317" stop-color="#C68529"/>
<stop offset="0.0842" stop-color="#AF772A"/>
<stop offset="0.1201" stop-color="#A7732A"/>
<stop offset="0.2051" stop-color="#AE782A"/>
<stop offset="0.3119" stop-color="#C1872A"/>
<stop offset="0.3897" stop-color="#D99A28"/>
<stop offset="0.7819" stop-color="#FBF17D"/>
<stop offset="1" stop-color="#F6CE6A"/>
</linearGradient>
<linearGradient id="paint25_linear_3573_11130" x1="629.133" y1="89.5908" x2="241.756" y2="-44.1412" gradientUnits="userSpaceOnUse">
<stop stop-color="#DA9127"/>
<stop offset="0.0317" stop-color="#C68529"/>
<stop offset="0.0842" stop-color="#AF772A"/>
<stop offset="0.1201" stop-color="#A7732A"/>
<stop offset="0.2051" stop-color="#AE782A"/>
<stop offset="0.3119" stop-color="#C1872A"/>
<stop offset="0.3897" stop-color="#D99A28"/>
<stop offset="0.7819" stop-color="#FBF17D"/>
<stop offset="1" stop-color="#F6CE6A"/>
</linearGradient>
<linearGradient id="paint26_linear_3573_11130" x1="633.288" y1="77.5551" x2="245.911" y2="-56.177" gradientUnits="userSpaceOnUse">
<stop stop-color="#DA9127"/>
<stop offset="0.0317" stop-color="#C68529"/>
<stop offset="0.0842" stop-color="#AF772A"/>
<stop offset="0.1201" stop-color="#A7732A"/>
<stop offset="0.2051" stop-color="#AE782A"/>
<stop offset="0.3119" stop-color="#C1872A"/>
<stop offset="0.3897" stop-color="#D99A28"/>
<stop offset="0.7819" stop-color="#FBF17D"/>
<stop offset="1" stop-color="#F6CE6A"/>
</linearGradient>
<linearGradient id="paint27_linear_3573_11130" x1="638.044" y1="63.7774" x2="250.667" y2="-69.9545" gradientUnits="userSpaceOnUse">
<stop stop-color="#DA9127"/>
<stop offset="0.0317" stop-color="#C68529"/>
<stop offset="0.0842" stop-color="#AF772A"/>
<stop offset="0.1201" stop-color="#A7732A"/>
<stop offset="0.2051" stop-color="#AE782A"/>
<stop offset="0.3119" stop-color="#C1872A"/>
<stop offset="0.3897" stop-color="#D99A28"/>
<stop offset="0.7819" stop-color="#FBF17D"/>
<stop offset="1" stop-color="#F6CE6A"/>
</linearGradient>
<linearGradient id="paint28_linear_3573_11130" x1="181.998" y1="53.2449" x2="641.589" y2="53.2449" gradientUnits="userSpaceOnUse">
<stop stop-color="#DA9127"/>
<stop offset="0.0317" stop-color="#C68529"/>
<stop offset="0.0842" stop-color="#AF772A"/>
<stop offset="0.1201" stop-color="#A7732A"/>
<stop offset="0.2051" stop-color="#AE782A"/>
<stop offset="0.3119" stop-color="#C1872A"/>
<stop offset="0.3897" stop-color="#D99A28"/>
<stop offset="0.7819" stop-color="#FBF17D"/>
<stop offset="1" stop-color="#F6CE6A"/>
</linearGradient>
</defs>
</svg>
