<svg width="168" height="196" viewBox="0 0 168 196" fill="none" xmlns="http://www.w3.org/2000/svg">
<path d="M82.7659 145.043C116.598 145.043 144.024 117.55 144.024 83.6359C144.024 49.7215 116.598 22.2284 82.7659 22.2284C48.934 22.2284 21.5078 49.7215 21.5078 83.6359C21.5078 117.55 48.934 145.043 82.7659 145.043Z" fill="#FFE600"/>
<path d="M37.6511 43.8508H124.793C128.244 43.8508 130.956 46.5691 130.956 50.0287V105.258C130.956 108.718 128.244 111.436 124.793 111.436H37.6511C34.1999 111.436 31.4883 108.718 31.4883 105.258V50.0287C31.4883 46.5691 34.3232 43.8508 37.6511 43.8508Z" fill="#1E242D"/>
<path d="M153.968 68.3559C155.878 66.6066 156.011 63.6368 154.266 61.7226C152.521 59.8084 149.558 59.6747 147.649 61.424C145.739 63.1732 145.606 66.1431 147.351 68.0573C149.096 69.9715 152.059 70.1051 153.968 68.3559Z" fill="#2A2E39"/>
<path d="M47.3705 28.3734C48.9889 27.8461 49.8745 26.1035 49.3484 24.4811C48.8224 22.8587 47.084 21.971 45.4656 22.4983C43.8471 23.0257 42.9616 24.7683 43.4876 26.3907C44.0136 28.013 45.7521 28.9008 47.3705 28.3734Z" fill="#2A2E39"/>
<path d="M53.4313 18.3982C54.5885 18.3982 55.5266 17.4578 55.5266 16.2977C55.5266 15.1377 54.5885 14.1973 53.4313 14.1973C52.2741 14.1973 51.3359 15.1377 51.3359 16.2977C51.3359 17.4578 52.2741 18.3982 53.4313 18.3982Z" fill="url(#paint0_linear_2685_10205)"/>
<path d="M153.019 47.8046C154.108 47.8046 154.991 46.9195 154.991 45.8277C154.991 44.7359 154.108 43.8508 153.019 43.8508C151.93 43.8508 151.047 44.7359 151.047 45.8277C151.047 46.9195 151.93 47.8046 153.019 47.8046Z" fill="url(#paint1_linear_2685_10205)"/>
<path d="M132.703 79.2875V106.47C132.703 109.93 129.868 112.895 126.293 112.895H36.6866C33.2354 112.895 30.2773 110.053 30.2773 106.47V76.9401" stroke="#1676EE" stroke-width="3" stroke-linecap="round" stroke-linejoin="round"/>
<g filter="url(#filter0_d_2685_10205)">
<path d="M124.974 64.0608H96.7934C94.051 64.0608 91.4033 65.007 89.3228 66.7097L81.9466 72.7636C79.8661 74.4663 77.2183 75.412 74.4759 75.412H42.4178C39.2025 75.412 36.5547 78.0608 36.5547 81.277C36.5547 81.5608 36.5548 81.8445 36.6493 82.1283L42.5124 113.344C42.9852 116.277 45.4439 118.452 48.3755 118.452H116.652C119.584 118.452 122.043 116.371 122.515 113.439L130.743 70.777C131.31 67.5608 129.135 64.6284 125.92 64.0608C125.636 64.0608 125.258 64.0608 124.974 64.0608Z" fill="white"/>
</g>
<g filter="url(#filter1_d_2685_10205)">
<path d="M137.756 55.6881H101.026C97.4511 55.6881 94.0001 56.924 91.2885 59.1481L81.6745 67.0555C78.9628 69.2796 75.5118 70.5149 71.9374 70.5149H30.1535C25.9628 70.5149 22.5117 73.9747 22.5117 78.1756C22.5117 78.5463 22.5118 78.9168 22.6351 79.2875L30.2769 120.061C30.8932 123.891 34.0978 126.733 37.9187 126.733H126.909C130.73 126.733 133.935 124.015 134.551 120.185L145.275 64.4607C146.014 60.2598 143.179 56.4294 138.988 55.6881C138.619 55.6881 138.126 55.6881 137.756 55.6881Z" fill="#E1A713"/>
</g>
<path d="M66.6355 97.9447C68.8138 97.9447 70.5797 96.1743 70.5797 93.9907C70.5797 91.807 68.8138 90.0372 66.6355 90.0372C64.4572 90.0372 62.6914 91.807 62.6914 93.9907C62.6914 96.1743 64.4572 97.9447 66.6355 97.9447Z" fill="#2C313D"/>
<path d="M97.698 97.8211C99.8763 97.8211 101.642 96.0512 101.642 93.8676C101.642 91.684 99.8763 89.9136 97.698 89.9136C95.5197 89.9136 93.7539 91.684 93.7539 93.8676C93.7539 96.0512 95.5197 97.8211 97.698 97.8211Z" fill="#2C313D"/>
<path d="M143.688 123.904C143.195 126.005 142.455 128.105 141.592 129.959C139.251 134.407 135.676 137.99 131.239 140.214C126.679 142.561 121.255 143.426 115.709 142.314C102.89 139.596 94.632 127.117 97.3437 114.267C100.055 101.417 112.504 93.1388 125.323 95.857C129.883 96.8454 133.951 99.0695 137.279 102.282C142.948 107.966 145.29 116.12 143.688 123.904Z" fill="url(#paint2_linear_2685_10205)"/>
<path d="M141.58 129.946C139.238 134.394 135.663 137.977 131.226 140.201L111.259 120.185L114.956 118.702L121.736 118.331H129.994L141.58 129.946Z" fill="url(#paint3_linear_2685_10205)"/>
<path d="M128.023 116.972H122.6V111.536C122.6 110.424 121.737 109.435 120.505 109.435C119.395 109.435 118.409 110.3 118.409 111.536V116.972H112.986C111.877 116.972 110.891 117.837 110.891 119.073C110.891 120.309 111.753 121.173 112.986 121.173H118.409V126.61C118.409 127.722 119.272 128.71 120.505 128.71C121.614 128.71 122.6 127.846 122.6 126.61V121.173H128.023C129.133 121.173 130.119 120.309 130.119 119.073C130.119 117.837 129.133 116.972 128.023 116.972Z" fill="url(#paint4_linear_2685_10205)"/>
<path d="M77.3421 69.3034C73.0282 60.9015 72.0421 50.6463 74.877 41.5032C77.7119 32.36 84.2445 24.4524 92.5026 20.0043C95.091 18.6452 97.9259 17.5332 100.884 17.4097C103.842 17.2861 106.924 18.2746 108.896 20.6221C110.868 22.8461 111.237 26.4293 109.635 28.9004C107.91 31.248 104.582 32.1129 101.747 31.4951C97.3096 30.6302 93.6119 27.1706 92.5026 22.9697C91.3933 18.7688 92.8724 13.8265 96.2003 10.9847C98.4189 9.00782 101.377 8.01937 104.212 7.15448C117.77 3.20067 132.437 2.70645 146.242 5.6718" stroke="#E1A713" stroke-miterlimit="10" stroke-dasharray="4 4"/>
<path d="M85.9688 102.169H78.4502V104.023H85.9688V102.169Z" fill="#2C313D"/>
<path d="M153.517 2.45934C153.394 4.31268 153.271 5.91892 151.915 6.28959C150.559 6.66026 149.943 5.42469 149.08 3.6949C148.217 2.08867 148.71 0.482435 150.189 0.111766C151.668 -0.258904 153.764 0.235322 153.517 2.45934Z" fill="#FFE600"/>
<path d="M152.162 11.1083C152.532 8.8843 152.901 7.7723 151.669 7.15451C150.313 6.53673 149.45 7.64874 148.094 9.13142C146.862 10.4905 147.601 12.3439 148.834 12.9617C150.19 13.703 151.792 12.9617 152.162 11.1083Z" fill="#474E61"/>
<path d="M153.762 7.15447C153.638 8.01936 153.022 8.63714 152.159 8.7607C151.79 8.7607 151.42 8.7607 150.927 8.7607C149.201 8.51359 147.845 7.40158 147.969 6.28957C148.092 5.17756 149.694 4.55978 151.543 4.80689C151.913 4.80689 152.283 4.93045 152.529 5.05401C153.392 5.30112 153.885 6.16601 153.762 7.15447C153.762 7.15447 153.762 7.03091 153.762 7.15447Z" fill="#0F1011"/>
<path d="M18.9219 41.1324C18.9219 39.032 18.9219 37.0551 20.4009 36.4373C22.0033 35.8195 22.8661 37.3022 23.9754 39.2791C25.0847 41.1324 24.5916 42.9858 22.9893 43.6036C21.6335 44.2213 18.9219 43.8507 18.9219 41.1324Z" fill="#474E61"/>
<path d="M19.7796 31.0009C19.5331 33.5955 19.1633 34.9547 20.7656 35.5724C22.3679 36.1902 23.2307 34.8311 24.7098 32.8542C25.9424 31.1244 25.0796 29.0239 23.4772 28.4062C21.8749 27.7884 20.0261 28.9004 19.7796 31.0009Z" fill="#474E61"/>
<path d="M18.4258 35.8195C18.4258 34.8311 19.1653 34.0898 20.0281 33.9662C20.3979 33.8426 20.8909 33.8426 21.3839 33.9662C23.356 34.0898 24.9583 35.2018 24.8351 36.4373C24.7118 37.6729 23.1095 38.5378 21.1374 38.2907C20.7676 38.2907 20.3979 38.1671 20.0281 38.0436C19.0421 37.7965 18.4258 36.808 18.4258 35.8195Z" fill="#0F1011"/>
<path d="M26.6836 36.1903C39.3789 36.1903 62.7975 43.6037 63.1673 70.6626" stroke="#E1A713" stroke-miterlimit="10" stroke-dasharray="4 4"/>
<path d="M16.332 186C16.1953 186 16.0814 185.918 15.9902 185.754C15.9082 185.59 15.8672 185.439 15.8672 185.303C15.8672 185.148 15.8991 185.029 15.9629 184.947C16.0267 184.865 16.1452 184.815 16.3184 184.797C18.0046 184.669 18.8477 184.286 18.8477 183.648V169.867C18.8477 169.503 18.6973 169.17 18.3965 168.869C18.0957 168.568 17.7357 168.327 17.3164 168.145C16.9062 167.953 16.5462 167.839 16.2363 167.803C16.0358 167.785 15.9036 167.748 15.8398 167.693C15.776 167.63 15.7441 167.497 15.7441 167.297C15.7441 167.16 15.7852 167.01 15.8672 166.846C15.9583 166.682 16.0723 166.6 16.209 166.6H22.8809L33.9551 179.615H34.1191V169.129C34.1191 168.773 33.9824 168.505 33.709 168.322C33.4355 168.14 33.1667 168.026 32.9023 167.98C32.6471 167.926 32.2233 167.867 31.6309 167.803C31.4303 167.785 31.2982 167.748 31.2344 167.693C31.1706 167.63 31.1387 167.497 31.1387 167.297C31.1387 167.16 31.1797 167.01 31.2617 166.846C31.3529 166.682 31.4668 166.6 31.6035 166.6H38.0977C38.2344 166.6 38.3438 166.682 38.4258 166.846C38.5169 167.01 38.5625 167.16 38.5625 167.297C38.5625 167.452 38.5306 167.57 38.4668 167.652C38.403 167.734 38.2845 167.785 38.1113 167.803C36.5163 167.985 35.7188 168.404 35.7188 169.061V184.455C35.7188 184.619 35.7324 184.792 35.7598 184.975L35.8008 185.453C35.8281 185.772 35.6732 186.009 35.3359 186.164C35.0078 186.328 34.6615 186.41 34.2969 186.41C34.1602 186.41 34.0189 186.378 33.873 186.314C33.7363 186.26 33.6315 186.191 33.5586 186.109L20.8164 171.098H20.584V183.471C20.584 183.79 20.7116 184.04 20.9668 184.223C21.2311 184.405 21.5273 184.533 21.8555 184.605C22.1927 184.669 22.5938 184.724 23.0586 184.77L23.3457 184.797C23.5462 184.815 23.6784 184.856 23.7422 184.92C23.806 184.975 23.8379 185.102 23.8379 185.303C23.8379 185.439 23.7923 185.59 23.7012 185.754C23.6191 185.918 23.5098 186 23.373 186H16.332ZM50.1836 186.396C48.1328 186.396 46.3372 185.945 44.7969 185.043C43.2565 184.132 42.0716 182.901 41.2422 181.352C40.4219 179.802 40.0117 178.089 40.0117 176.211C40.0117 174.333 40.4219 172.633 41.2422 171.111C42.0625 169.589 43.2428 168.391 44.7832 167.516C46.3236 166.632 48.1237 166.189 50.1836 166.189C52.2435 166.189 54.0436 166.632 55.584 167.516C57.1243 168.391 58.3047 169.589 59.125 171.111C59.9544 172.633 60.3691 174.333 60.3691 176.211C60.3691 178.089 59.9544 179.802 59.125 181.352C58.2956 182.901 57.1107 184.132 55.5703 185.043C54.0299 185.945 52.2344 186.396 50.1836 186.396ZM50.2383 185.111C51.9154 185.111 53.1504 184.346 53.9434 182.814C54.7363 181.274 55.1328 179.082 55.1328 176.238C55.1328 173.413 54.7227 171.243 53.9023 169.73C53.0911 168.217 51.8424 167.461 50.1562 167.461C48.4701 167.461 47.2259 168.217 46.4238 169.73C45.6309 171.234 45.2344 173.404 45.2344 176.238C45.2344 179.064 45.6445 181.251 46.4648 182.801C47.2943 184.341 48.5521 185.111 50.2383 185.111ZM70.7734 186C70.6367 186 70.5228 185.918 70.4316 185.754C70.3496 185.59 70.3086 185.439 70.3086 185.303C70.3086 185.148 70.3405 185.029 70.4043 184.947C70.4681 184.865 70.5866 184.815 70.7598 184.797C71.3066 184.751 71.7715 184.665 72.1543 184.537C72.5462 184.4 72.7422 184.195 72.7422 183.922V169.129C72.7422 168.773 72.6374 168.505 72.4277 168.322C72.2181 168.14 71.9857 168.021 71.7305 167.967C71.4844 167.912 71.1289 167.857 70.6641 167.803C70.4635 167.785 70.3314 167.748 70.2676 167.693C70.2038 167.63 70.1719 167.497 70.1719 167.297C70.1719 167.16 70.2129 167.01 70.2949 166.846C70.3861 166.682 70.5 166.6 70.6367 166.6H80.1523C82.5221 166.609 84.541 167.051 86.209 167.926C87.877 168.792 89.1302 169.931 89.9688 171.344C90.8073 172.757 91.2266 174.279 91.2266 175.91C91.2266 178.134 90.6979 180.007 89.6406 181.529C88.5833 183.042 87.2754 184.168 85.7168 184.906C84.1582 185.635 82.6315 186 81.1367 186H70.7734ZM77.3496 183.703C77.3496 183.949 77.5547 184.163 77.9648 184.346C78.3841 184.528 79.127 184.619 80.1934 184.619C81.4785 184.619 82.5176 184.428 83.3105 184.045C84.1035 183.653 84.7324 182.833 85.1973 181.584C85.6621 180.326 85.8945 178.453 85.8945 175.965C85.8945 173.823 85.6393 172.164 85.1289 170.988C84.6276 169.803 83.9531 168.997 83.1055 168.568C82.2669 168.14 81.2507 167.926 80.0566 167.926H77.3633L77.3496 183.703ZM113.033 184.797C113.234 184.815 113.366 184.856 113.43 184.92C113.493 184.975 113.525 185.102 113.525 185.303C113.525 185.439 113.48 185.59 113.389 185.754C113.307 185.918 113.197 186 113.061 186H104.557C104.42 186 104.306 185.918 104.215 185.754C104.133 185.59 104.092 185.439 104.092 185.303C104.092 185.148 104.124 185.029 104.188 184.947C104.251 184.865 104.37 184.815 104.543 184.797L105.09 184.77C105.536 184.76 105.846 184.738 106.02 184.701C106.193 184.656 106.279 184.56 106.279 184.414C106.279 184.35 106.266 184.277 106.238 184.195L104.529 179.479L97.9805 179.465L96.2852 184.195C96.2578 184.259 96.2441 184.318 96.2441 184.373C96.2441 184.537 96.3581 184.642 96.5859 184.688C96.8138 184.733 97.1784 184.76 97.6797 184.77L98.2539 184.797C98.4271 184.815 98.5456 184.865 98.6094 184.947C98.6732 185.029 98.7051 185.148 98.7051 185.303C98.7051 185.439 98.6595 185.59 98.5684 185.754C98.4863 185.918 98.377 186 98.2402 186H92.457C92.3112 186 92.1973 185.932 92.1152 185.795C92.0332 185.658 91.9922 185.494 91.9922 185.303C91.9922 185.102 92.0241 184.975 92.0879 184.92C92.1517 184.856 92.2839 184.815 92.4844 184.797C92.5573 184.788 92.6758 184.783 92.8398 184.783C93.1224 184.774 93.3594 184.751 93.5508 184.715C93.7513 184.669 93.9427 184.574 94.125 184.428C94.3073 184.273 94.4577 184.045 94.5762 183.744L101.139 166.299H104.338L110.832 183.744C110.951 184.054 111.105 184.286 111.297 184.441C111.488 184.587 111.684 184.678 111.885 184.715C112.085 184.751 112.336 184.774 112.637 184.783C112.819 184.783 112.951 184.788 113.033 184.797ZM101.549 169.73L98.3633 178.303H104.119L101.549 169.73ZM117.955 186C117.818 186 117.704 185.918 117.613 185.754C117.531 185.59 117.49 185.439 117.49 185.303C117.49 185.148 117.522 185.029 117.586 184.947C117.65 184.865 117.768 184.815 117.941 184.797C118.771 184.751 119.445 184.642 119.965 184.469C120.493 184.286 120.758 183.967 120.758 183.512V167.953H117.34C116.866 167.953 116.474 168.231 116.164 168.787C115.863 169.334 115.64 169.945 115.494 170.619C115.357 171.294 115.271 171.868 115.234 172.342C115.216 172.497 115.125 172.611 114.961 172.684C114.806 172.757 114.637 172.793 114.455 172.793C114.318 172.793 114.168 172.752 114.004 172.67C113.84 172.579 113.758 172.465 113.758 172.328C113.803 170.961 113.858 169.667 113.922 168.445C113.995 167.215 114.077 166.6 114.168 166.6H131.764C131.855 166.6 131.932 167.215 131.996 168.445C132.069 169.667 132.128 170.961 132.174 172.328C132.174 172.465 132.092 172.579 131.928 172.67C131.764 172.752 131.613 172.793 131.477 172.793C131.294 172.793 131.121 172.757 130.957 172.684C130.802 172.611 130.715 172.497 130.697 172.342C130.588 171.357 130.378 170.382 130.068 169.416C129.758 168.441 129.266 167.953 128.592 167.953H125.352V183.471C125.352 183.835 125.493 184.109 125.775 184.291C126.058 184.473 126.382 184.596 126.746 184.66C127.111 184.715 127.566 184.76 128.113 184.797C128.314 184.815 128.446 184.856 128.51 184.92C128.574 184.975 128.605 185.102 128.605 185.303C128.605 185.439 128.56 185.59 128.469 185.754C128.387 185.918 128.277 186 128.141 186H117.955ZM153.447 184.797C153.648 184.815 153.78 184.856 153.844 184.92C153.908 184.975 153.939 185.102 153.939 185.303C153.939 185.439 153.894 185.59 153.803 185.754C153.721 185.918 153.611 186 153.475 186H144.971C144.834 186 144.72 185.918 144.629 185.754C144.547 185.59 144.506 185.439 144.506 185.303C144.506 185.148 144.538 185.029 144.602 184.947C144.665 184.865 144.784 184.815 144.957 184.797L145.504 184.77C145.951 184.76 146.26 184.738 146.434 184.701C146.607 184.656 146.693 184.56 146.693 184.414C146.693 184.35 146.68 184.277 146.652 184.195L144.943 179.479L138.395 179.465L136.699 184.195C136.672 184.259 136.658 184.318 136.658 184.373C136.658 184.537 136.772 184.642 137 184.688C137.228 184.733 137.592 184.76 138.094 184.77L138.668 184.797C138.841 184.815 138.96 184.865 139.023 184.947C139.087 185.029 139.119 185.148 139.119 185.303C139.119 185.439 139.074 185.59 138.982 185.754C138.9 185.918 138.791 186 138.654 186H132.871C132.725 186 132.611 185.932 132.529 185.795C132.447 185.658 132.406 185.494 132.406 185.303C132.406 185.102 132.438 184.975 132.502 184.92C132.566 184.856 132.698 184.815 132.898 184.797C132.971 184.788 133.09 184.783 133.254 184.783C133.536 184.774 133.773 184.751 133.965 184.715C134.165 184.669 134.357 184.574 134.539 184.428C134.721 184.273 134.872 184.045 134.99 183.744L141.553 166.299H144.752L151.246 183.744C151.365 184.054 151.52 184.286 151.711 184.441C151.902 184.587 152.098 184.678 152.299 184.715C152.499 184.751 152.75 184.774 153.051 184.783C153.233 184.783 153.365 184.788 153.447 184.797ZM141.963 169.73L138.777 178.303H144.533L141.963 169.73Z" fill="url(#paint5_linear_2685_10205)"/>
<defs>
<filter id="filter0_d_2685_10205" x="26.5547" y="45.0608" width="114.278" height="74.3912" filterUnits="userSpaceOnUse" color-interpolation-filters="sRGB">
<feFlood flood-opacity="0" result="BackgroundImageFix"/>
<feColorMatrix in="SourceAlpha" type="matrix" values="0 0 0 0 0 0 0 0 0 0 0 0 0 0 0 0 0 0 127 0" result="hardAlpha"/>
<feOffset dy="-9"/>
<feGaussianBlur stdDeviation="5"/>
<feColorMatrix type="matrix" values="0 0 0 0 0 0 0 0 0 0 0 0 0 0 0 0 0 0 0.13 0"/>
<feBlend mode="normal" in2="BackgroundImageFix" result="effect1_dropShadow_2685_10205"/>
<feBlend mode="normal" in="SourceGraphic" in2="effect1_dropShadow_2685_10205" result="shape"/>
</filter>
<filter id="filter1_d_2685_10205" x="0.511703" y="44.6881" width="166.88" height="115.045" filterUnits="userSpaceOnUse" color-interpolation-filters="sRGB">
<feFlood flood-opacity="0" result="BackgroundImageFix"/>
<feColorMatrix in="SourceAlpha" type="matrix" values="0 0 0 0 0 0 0 0 0 0 0 0 0 0 0 0 0 0 127 0" result="hardAlpha"/>
<feOffset dy="11"/>
<feGaussianBlur stdDeviation="11"/>
<feColorMatrix type="matrix" values="0 0 0 0 0 0 0 0 0 0 0 0 0 0 0 0 0 0 0.18 0"/>
<feBlend mode="normal" in2="BackgroundImageFix" result="effect1_dropShadow_2685_10205"/>
<feBlend mode="normal" in="SourceGraphic" in2="effect1_dropShadow_2685_10205" result="shape"/>
</filter>
<linearGradient id="paint0_linear_2685_10205" x1="51.3992" y1="16.2453" x2="55.4733" y2="16.2453" gradientUnits="userSpaceOnUse">
<stop stop-color="#F5DE05"/>
<stop offset="1" stop-color="#FFD44F"/>
</linearGradient>
<linearGradient id="paint1_linear_2685_10205" x1="151.115" y1="45.877" x2="154.941" y2="45.877" gradientUnits="userSpaceOnUse">
<stop stop-color="#F5DE05"/>
<stop offset="1" stop-color="#FFD44F"/>
</linearGradient>
<linearGradient id="paint2_linear_2685_10205" x1="137.48" y1="131.143" x2="96.9887" y2="102.739" gradientUnits="userSpaceOnUse">
<stop stop-color="#1D222C"/>
<stop offset="1" stop-color="#3B4354"/>
</linearGradient>
<linearGradient id="paint3_linear_2685_10205" x1="121.18" y1="119.836" x2="134.043" y2="132.668" gradientUnits="userSpaceOnUse">
<stop stop-color="#16B979" stop-opacity="0.06"/>
<stop offset="1" stop-color="#2C8065" stop-opacity="0"/>
</linearGradient>
<linearGradient id="paint4_linear_2685_10205" x1="126.469" y1="125.047" x2="116.305" y2="114.907" gradientUnits="userSpaceOnUse">
<stop offset="0.338542" stop-color="#FFE600"/>
<stop offset="0.734375" stop-color="#E1A713"/>
</linearGradient>
<linearGradient id="paint5_linear_2685_10205" x1="84.5" y1="160" x2="84.5" y2="196" gradientUnits="userSpaceOnUse">
<stop offset="0.234375" stop-color="#FFE600"/>
<stop offset="0.770833" stop-color="#E1A713"/>
</linearGradient>
</defs>
</svg>
