<svg width="26" height="26" viewBox="0 0 26 26" fill="none" xmlns="http://www.w3.org/2000/svg">
<path d="M25.1681 3.79516C25.1681 2.81291 25.1691 1.83066 25.1681 0.848405C25.1672 0.29232 24.8788 0.00394336 24.3217 0.00394336C22.3552 0.00295914 20.3898 0.0059118 18.4243 6.47373e-06C18.1123 -0.000977747 17.879 0.110239 17.6822 0.350389C14.9441 3.70363 12.203 7.05392 9.46194 10.4052C8.34781 11.7674 7.2317 13.1266 6.12347 14.4936C6.00438 14.6403 5.94434 14.6462 5.81934 14.5074C5.60577 14.2702 5.37447 14.0498 5.14417 13.8283C4.81445 13.5104 4.36466 13.5006 4.06841 13.7988C3.77118 14.098 3.78102 14.5478 4.10581 14.8726C6.16579 16.9355 8.22675 18.9965 10.2897 21.0555C10.6135 21.3783 11.0662 21.3881 11.3654 21.0919C11.6627 20.7966 11.6528 20.3458 11.3349 20.0161C11.1302 19.8035 10.9314 19.5831 10.707 19.3951C10.5092 19.2287 10.5397 19.147 10.7296 18.9915C15.4234 15.1649 20.1112 11.3304 24.803 7.50076C25.0579 7.2921 25.175 7.04802 25.1721 6.71732C25.1613 5.74392 25.1681 4.76954 25.1681 3.79516ZM21.6909 4.50085C21.6299 4.58648 21.5521 4.66128 21.4773 4.73706C17.2973 8.91607 13.1164 13.0941 8.94031 17.277C8.79464 17.4227 8.72181 17.4266 8.58697 17.2751C8.36946 17.031 8.13521 16.7997 7.8931 16.5802C7.7494 16.4503 7.73168 16.3794 7.88424 16.2278C10.9068 13.2181 13.9215 10.2015 16.9381 7.18581C18.1251 5.99982 19.313 4.81383 20.498 3.62588C20.6663 3.45758 20.8504 3.33455 21.2185 3.33947C21.3927 3.34537 21.619 3.47135 21.7519 3.73611C21.8838 3.99988 21.8621 4.2607 21.6909 4.50085Z" fill="#FFC328"/>
<path d="M0.351395 7.48206C2.21748 9.00071 4.08061 10.5233 5.93882 12.0518C6.07464 12.164 6.13763 12.1532 6.24294 12.0223C6.9004 11.2073 7.56278 10.3954 8.23304 9.59026C8.35114 9.44755 8.34524 9.37373 8.21434 9.24381C6.69765 7.73795 5.18786 6.22521 3.67708 4.71443C3.6131 4.65045 3.54716 4.58845 3.49401 4.5166C3.18201 4.0983 3.36902 3.51466 3.86703 3.36801C4.181 3.27549 4.43887 3.38573 4.66524 3.61308C6.16322 5.115 7.66514 6.61102 9.16214 8.11393C9.27631 8.2281 9.32749 8.25664 9.44658 8.10802C10.1218 7.26454 10.8058 6.42894 11.4987 5.60022C11.6207 5.45358 11.603 5.37189 11.4918 5.23606C10.1562 3.6121 8.82455 1.98321 7.49586 0.352358C7.29901 0.112208 7.06674 -0.000977859 6.75375 6.36248e-06C4.78826 0.00591169 2.82277 0.00295903 0.857285 0.00295903C0.297263 0.00295903 0.00790187 0.290352 0.00691765 0.844468C0.00593343 1.82672 0.00691765 2.80897 0.00691765 3.79123C0.00691765 4.77348 0.0118388 5.75573 0.00396499 6.73798C0.00101233 7.05097 0.109277 7.28521 0.351395 7.48206Z" fill="#FFC328"/>
<path d="M4.35124 17.1978C4.26561 17.1122 4.22231 17.119 4.14259 17.1988C2.99991 18.3483 1.84738 19.4881 0.712576 20.6445C0.228339 21.1386 0.0196844 21.7596 0 22.5421C0.0600375 23.5923 0.566911 24.4574 1.62987 24.92C2.67905 25.3767 3.68886 25.2261 4.51954 24.4407C5.69667 23.3285 6.82164 22.1592 7.97219 21.0185C8.06077 20.9309 8.04109 20.8866 7.96334 20.8089C6.75668 19.6081 5.55199 18.4054 4.35124 17.1978Z" fill="#FFC328"/>
<path d="M21.0308 17.1973C20.9481 17.1146 20.9048 17.1166 20.8212 17.1992C19.6204 18.4059 18.4157 19.6086 17.2091 20.8094C17.1303 20.8871 17.1136 20.9304 17.2022 21.017C18.3527 22.1577 19.4777 23.326 20.6539 24.4392C21.4767 25.2177 22.4816 25.3752 23.5219 24.9313C24.5947 24.4736 25.1134 23.6026 25.1675 22.6115C25.1655 21.7896 24.9303 21.1223 24.4756 20.6598C23.3359 19.4994 22.1784 18.3527 21.0308 17.1973Z" fill="#FFC328"/>
<path d="M21.1004 13.7965C20.7963 13.4933 20.3485 13.514 20.008 13.8477C19.815 14.0366 19.6261 14.2295 19.4351 14.4205C19.197 14.6587 19.193 14.6616 18.9765 14.391C18.8978 14.2925 18.8525 14.2561 18.7344 14.3555C18.1389 14.8545 17.5336 15.3427 16.889 15.8693C17.0514 16.0198 17.197 16.1635 17.3525 16.2954C17.447 16.3751 17.4332 16.4273 17.3515 16.506C17.0701 16.7797 16.7905 17.0562 16.5189 17.3397C16.4254 17.4381 16.3713 17.4174 16.2905 17.3298C16.1528 17.1793 16.0012 17.0405 15.8595 16.8928C15.7975 16.8279 15.7551 16.7905 15.6636 16.8673C15.0652 17.3633 14.4638 17.8544 13.8585 18.3426C13.7493 18.4312 13.7906 18.4696 13.8772 18.5365C14.0908 18.7009 14.2906 18.8839 14.5071 19.0453C14.64 19.1438 14.6686 19.2077 14.5278 19.3327C14.2896 19.5453 14.0741 19.7815 13.8467 20.0059C13.7404 20.1113 13.6558 20.2294 13.6174 20.376C13.5318 20.7018 13.6656 21.0354 13.9481 21.2018C14.2503 21.3789 14.5977 21.3356 14.8683 21.0689C15.4451 20.5 16.016 19.9242 16.5888 19.3514C18.0769 17.8643 19.5651 16.3781 21.0512 14.89C21.3898 14.5514 21.4046 14.0996 21.1004 13.7965Z" fill="#FFC328"/>
</svg>
