<svg width="29" height="33" viewBox="0 0 29 33" fill="none" xmlns="http://www.w3.org/2000/svg">
<path d="M27.56 6.62587C23.2754 4.47733 18.9908 2.32155 14.7134 0.158523C14.2921 -0.0552434 13.9249 -0.0516167 13.5036 0.16215C9.24418 2.31793 4.97756 4.46646 0.707351 6.60413C0.21768 6.8505 0.00524956 7.19833 0.00164904 7.73818C-0.0163536 9.55338 0.113265 11.3541 0.379703 13.1476C0.836969 16.2127 1.65069 19.1692 3.01168 21.9555C5.28361 26.6003 8.7077 30.0279 13.5288 31.9699C13.9321 32.1329 14.2921 32.1329 14.6954 31.9699C18.9656 30.2452 22.2024 27.3359 24.4744 23.3286C26.9803 18.9048 27.9885 14.0787 28.2081 9.2599C28.2081 8.586 28.2045 8.12585 28.2081 7.66571C28.2189 7.17658 27.9993 6.84688 27.56 6.62587ZM24.4096 10.0353C24.0567 14.4302 23.081 18.6366 20.6578 22.3939C19.1492 24.7308 17.1725 26.5532 14.7062 27.8358C14.2849 28.0532 13.9177 28.046 13.5 27.8286C10.2991 26.1619 8.0092 23.6185 6.42137 20.4011C5.17559 17.8794 4.45909 15.1983 4.05943 12.4229C3.94422 11.6258 3.865 10.8251 3.8074 10.0208C3.77139 9.5099 3.97662 9.17295 4.43389 8.94469C7.48712 7.41571 10.5332 5.88312 13.5792 4.34327C13.9465 4.15849 14.2813 4.16212 14.645 4.34327C17.6838 5.87949 20.7226 7.41209 23.7687 8.93382C24.2367 9.1657 24.4636 9.5099 24.4096 10.0353Z" fill="#3CADB3"/>
<path d="M22.2455 10.2745C19.6099 8.952 16.9779 7.62954 14.3459 6.29622C14.1803 6.21289 14.0579 6.20564 13.8923 6.28898C11.2531 7.6223 8.61029 8.952 5.96751 10.2745C5.78749 10.365 5.67227 10.4592 5.72628 10.6802C5.81629 11.3433 5.8955 12.0063 5.99992 12.6657C6.40317 15.2164 7.11248 17.6729 8.31505 19.9664C9.61844 22.4555 11.4187 24.4736 13.8634 25.8794C14.0507 25.9881 14.1875 25.9808 14.3711 25.8758C16.3118 24.7598 17.8816 23.2417 19.0914 21.3577C21.1941 18.086 22.1194 14.4302 22.4903 10.6005C22.5083 10.3868 22.3823 10.3433 22.2455 10.2745Z" fill="#3CADB3"/>
</svg>
