<svg width="172" height="58" viewBox="0 0 172 58" fill="none" xmlns="http://www.w3.org/2000/svg">
<path d="M168.651 2.03464L169.809 3.73048V26.9257V28.6309V30.3155L169.915 53.5108L168.757 55.2066H166.442H5.68449H3.36908L2.21137 53.5108L2.08298 30.3137V26.9239L2.23572 3.72861L3.39343 2.03277H5.70884H166.338H168.651V2.03464ZM170.041 0H168.653H166.338H5.70884H3.39343H2.00551L1.31044 1.01638L0.152737 2.71223L0 25.9075V31.3319L0.128388 54.5253L1.28609 56.2211L1.98116 57.2375H3.36908H5.68449H166.444H168.759H170.147L170.842 56.2211L172 54.5253L171.894 31.3301V25.9056V2.71223L170.736 1.01638L170.041 0Z" fill="#382522"/>
<path d="M166.335 5.424V28.6192L166.441 51.8145H5.68158L5.55319 28.6192L5.70593 5.424H166.335ZM168.648 2.03418H166.333H5.70593H3.39052L2.23282 3.73002L2.08008 26.9234V30.3132L2.20847 53.5085L3.36617 55.2043H5.68158H166.441H168.756L169.914 53.5085L169.808 30.3132V28.6174V26.9215V3.72628L168.648 2.03418Z" fill="url(#paint0_linear_1754_16276)"/>
<path d="M2.08398 28.258L2.23672 5.06274L3.39443 3.3669H5.70984H166.339H168.652L169.81 5.06274V28.258L169.798 29.2856L169.81 28.6192V26.9234V3.72815L168.652 2.03418H166.339H5.70984H3.39443L2.23672 3.72815L2.08398 26.9234V28.258Z" fill="#C69C6D"/>
<path d="M166.338 5.4248H5.70938L5.55664 28.6201L5.68503 51.8134H166.444L166.338 28.6201V5.4248Z" fill="url(#paint1_linear_1754_16276)"/>
<path d="M161.839 10.5405H10.204L13.5443 28.6202L10.1797 46.6979H161.945L158.348 28.6202L161.839 10.5405Z" fill="url(#paint2_linear_1754_16276)"/>
<g style="mix-blend-mode:soft-light">
<path d="M10.2087 10.5404L5.71289 5.4248H166.342L161.844 10.5404H10.2087Z" fill="url(#paint3_linear_1754_16276)"/>
</g>
<path d="M10.1833 46.6982L5.6875 51.8139H166.447L161.949 46.6982H10.1833Z" fill="#DE803E"/>
<path opacity="0.3" d="M164.948 7.45757L163.56 28.6182L165.054 49.7788H7.07295L8.33248 28.6182L7.0973 7.45757H164.948ZM166.338 5.4248H5.70938L5.55664 28.6201L5.68503 51.8153H166.444L166.338 28.6201V5.4248Z" fill="black"/>
<mask id="mask0_1754_16276" style="mask-type:alpha" maskUnits="userSpaceOnUse" x="23" y="10" width="126" height="4">
<path d="M25.8899 10.54H146.006L148.024 13.4956H23.8711L25.8899 10.54Z" fill="url(#paint4_linear_1754_16276)"/>
</mask>
<g mask="url(#mask0_1754_16276)">
<path opacity="0.3" d="M10.2051 10.5405H161.84L163.859 13.4961H10.8005L10.2051 10.5405Z" fill="url(#paint5_linear_1754_16276)"/>
</g>
<path d="M44.158 36H41.562V22.03L47.436 21.942C48.6093 21.9127 49.4967 22.1767 50.098 22.734C50.6993 23.2913 51 24.098 51 25.154V27.75C51 28.3953 50.868 28.9673 50.604 29.466C50.34 29.9647 49.9367 30.3533 49.394 30.632C48.866 30.9107 48.2133 31.05 47.436 31.05H43.74L44.158 30.61V36ZM44.158 23.746V29.18L43.784 28.784H48.074C48.2793 28.784 48.382 28.6887 48.382 28.498V24.472C48.382 24.2813 48.2793 24.186 48.074 24.186H43.784L44.158 23.746ZM60.7567 33.756V36H53.1887V22.03H55.7627V34.152L55.3887 33.756H60.7567ZM72.9225 36H70.3485L69.5785 32.414L69.8425 32.634H64.3205L64.5845 32.414L63.7045 36H61.2845L64.3645 24.34C64.5405 23.7093 64.7238 23.218 64.9145 22.866C65.1052 22.514 65.3765 22.272 65.7285 22.14C66.0805 21.9933 66.5645 21.9273 67.1805 21.942L69.7765 22.03L72.9225 36ZM66.5645 24.516L65.0245 30.632L64.8485 30.412H69.3805L69.2045 30.632L67.7965 24.252H66.8285C66.7405 24.252 66.6818 24.274 66.6525 24.318C66.6232 24.3473 66.5938 24.4133 66.5645 24.516ZM79.1884 28.63L81.6084 22.03H84.2044L81.5644 28.938C81.3444 29.5393 81.1317 30.0013 80.9264 30.324C80.721 30.632 80.4424 30.8447 80.0904 30.962C79.7384 31.0647 79.225 31.116 78.5504 31.116H78.3524C77.6924 31.116 77.1717 31.05 76.7904 30.918C76.409 30.786 76.1084 30.5587 75.8884 30.236C75.6684 29.9133 75.4484 29.4733 75.2284 28.916L72.6544 22.03H75.3824L77.8024 28.63C77.8464 28.7913 77.949 28.872 78.1104 28.872H78.8804C79.027 28.872 79.1297 28.7913 79.1884 28.63ZM79.6944 36H77.0984V29.532H79.6944V36ZM98.1663 32.15V22.03H100.41V36H98.5843L91.9623 25.946L92.4023 25.858V36H90.1803V22.03H91.9843L98.5843 32.062L98.1663 32.15ZM110.572 24.164H106.15C105.974 24.164 105.886 24.252 105.886 24.428V33.602C105.886 33.778 105.974 33.866 106.15 33.866H110.572C110.748 33.866 110.836 33.778 110.836 33.602V24.428C110.836 24.252 110.748 24.164 110.572 24.164ZM103.246 33.118V24.912C103.246 23.856 103.525 23.0787 104.082 22.58C104.654 22.0813 105.52 21.832 106.678 21.832H110.022C111.181 21.832 112.046 22.0813 112.618 22.58C113.19 23.0787 113.476 23.856 113.476 24.912V33.118C113.476 34.1593 113.19 34.9367 112.618 35.45C112.046 35.9487 111.181 36.198 110.022 36.198H106.678C105.52 36.198 104.654 35.9487 104.082 35.45C103.525 34.9367 103.246 34.1593 103.246 33.118ZM121.31 36.198H119.132C118.193 36.198 117.511 36.0073 117.086 35.626C116.66 35.2447 116.448 34.592 116.448 33.668V22.03H119.044V33.602C119.044 33.778 119.132 33.866 119.308 33.866H122.256C122.432 33.866 122.52 33.778 122.52 33.602V22.03H125.006V33.602C125.006 33.778 125.094 33.866 125.27 33.866H128.262C128.438 33.866 128.526 33.778 128.526 33.602L128.482 22.03H131.078L131.122 33.668C131.122 34.5773 130.909 35.23 130.484 35.626C130.058 36.0073 129.384 36.198 128.46 36.198H126.216C125.336 36.198 124.69 36 124.28 35.604C123.869 35.1933 123.664 34.548 123.664 33.668H123.884C123.884 34.548 123.678 35.1933 123.268 35.604C122.857 36 122.204 36.198 121.31 36.198Z" fill="url(#paint6_linear_1754_16276)"/>
<defs>
<linearGradient id="paint0_linear_1754_16276" x1="85.9961" y1="55.2034" x2="85.9961" y2="2.03352" gradientUnits="userSpaceOnUse">
<stop stop-color="#63433B"/>
<stop offset="0.2441" stop-color="#67453B"/>
<stop offset="0.4993" stop-color="#744D3D"/>
<stop offset="0.7585" stop-color="#89593F"/>
<stop offset="1" stop-color="#A36841"/>
</linearGradient>
<linearGradient id="paint1_linear_1754_16276" x1="85.9996" y1="51.8142" x2="85.9996" y2="5.42434" gradientUnits="userSpaceOnUse">
<stop stop-color="#FFD160"/>
<stop offset="1" stop-color="#D8813E"/>
</linearGradient>
<linearGradient id="paint2_linear_1754_16276" x1="86.0629" y1="46.6988" x2="86.0629" y2="10.54" gradientUnits="userSpaceOnUse">
<stop stop-color="#FFE668"/>
<stop offset="1" stop-color="#FFD160"/>
</linearGradient>
<linearGradient id="paint3_linear_1754_16276" x1="5.7126" y1="7.9821" x2="166.341" y2="7.9821" gradientUnits="userSpaceOnUse">
<stop stop-color="#FFD160"/>
<stop offset="0.2181" stop-color="#FDCD5E"/>
<stop offset="0.445" stop-color="#F7C059"/>
<stop offset="0.676" stop-color="#EDAC50"/>
<stop offset="0.9083" stop-color="#DF8F44"/>
<stop offset="1" stop-color="#D8813E"/>
</linearGradient>
<linearGradient id="paint4_linear_1754_16276" x1="23.8716" y1="12.0176" x2="148.024" y2="12.0176" gradientUnits="userSpaceOnUse">
<stop/>
<stop offset="0.5" stop-color="white"/>
<stop offset="1"/>
</linearGradient>
<linearGradient id="paint5_linear_1754_16276" x1="10.2051" y1="12.0181" x2="163.86" y2="12.0181" gradientUnits="userSpaceOnUse">
<stop stop-color="white"/>
<stop offset="0.5" stop-color="white"/>
<stop offset="1" stop-color="white"/>
</linearGradient>
<linearGradient id="paint6_linear_1754_16276" x1="86.5" y1="16" x2="86.5" y2="42" gradientUnits="userSpaceOnUse">
<stop stop-color="#FE9A03"/>
<stop offset="1" stop-color="#502F03"/>
</linearGradient>
</defs>
</svg>
