<?xml version="1.0" encoding="utf-8"?>
<!-- Svg Vector Icons : http://www.onlinewebfonts.com/icon -->
<!DOCTYPE svg PUBLIC "-//W3C//DTD SVG 1.1//EN" "http://www.w3.org/Graphics/SVG/1.1/DTD/svg11.dtd">
<svg version="1.1" xmlns="http://www.w3.org/2000/svg" xmlns:xlink="http://www.w3.org/1999/xlink" x="0px" y="0px" viewBox="0 0 1000 1000" enable-background="new 0 0 1000 1000" xml:space="preserve">
<metadata> Svg Vector Icons : http://www.onlinewebfonts.com/icon </metadata>
<g><g><g><path fill="#fff" d="M977.6,321.8c6.8,0,12.4-5.8,12.4-12.4v-64.3c0-6.8-5.3-12.4-12.4-12.4H22.4c-6.8,0-12.4,5.8-12.4,12.4v64.3c0,6.8,5.3,12.4,12.4,12.4H977.6L977.6,321.8z"/><path fill="#fff" d="M10,532.2c0,6.8,5.3,12.4,12.4,12.4h955.2c6.8,0,12.4-5.8,12.4-12.4v-64.3c0-6.9-5.3-12.4-12.4-12.4H22.4c-6.8,0-12.4,5.8-12.4,12.4V532.2z"/><path fill="#fff" d="M10,754.9c0,6.8,5.3,12.4,12.4,12.4h955.2c6.8,0,12.4-5.8,12.4-12.4v-64.3c0-6.8-5.3-12.4-12.4-12.4H22.4c-6.8,0-12.4,5.8-12.4,12.4V754.9z"/></g></g><g></g><g></g><g></g><g></g><g></g><g></g><g></g><g></g><g></g><g></g><g></g><g></g><g></g><g></g><g></g></g>
</svg>