<svg width="744" height="383" viewBox="0 0 744 383" fill="none" xmlns="http://www.w3.org/2000/svg">
<path d="M506.711 26.0967C506.711 26.0967 536.445 26.7102 558.904 0C558.904 0 559.825 23.051 545.1 25.7899L506.711 26.0967Z" fill="#190D04"/>
<path d="M494.418 26.0966C494.418 26.0966 518.28 26.5787 536.291 5.14917C536.291 5.14917 537.014 23.6425 525.204 25.8337L494.418 26.0966Z" fill="#190D04"/>
<path d="M490.847 26.0967C490.847 26.0967 507.828 26.4472 520.646 11.1968C520.646 11.1968 521.172 24.3656 512.758 25.9214L490.847 26.0967Z" fill="#190D04"/>
<path d="M241.865 26.0967C241.865 26.0967 212.131 26.7102 189.672 0C189.672 0 188.751 23.051 203.476 25.7899L241.865 26.0967Z" fill="#190D04"/>
<path d="M254.179 26.0966C254.179 26.0966 230.317 26.5787 212.305 5.14917C212.305 5.14917 211.582 23.6425 223.393 25.8337L254.179 26.0966Z" fill="#190D04"/>
<path d="M257.752 26.0967C257.752 26.0967 240.77 26.4472 227.952 11.1968C227.952 11.1968 227.426 24.3656 235.84 25.9214L257.752 26.0967Z" fill="#190D04"/>
<path d="M710.348 24.8037H32.3145V354.97H710.348V24.8037Z" fill="#190D04"/>
<path d="M715.859 353.843H709.285V63.3025L738.428 34.8394V49.2572H733.059L715.859 66.0634V353.843Z" fill="url(#paint0_linear_2608_10178)"/>
<path d="M27.5701 353.843H34.1436V63.3025L5.00115 34.8394V49.2572H10.3695L27.5701 66.0634V353.843Z" fill="url(#paint1_linear_2608_10178)"/>
<path d="M396.564 70.9464C402.559 70.7622 408.554 70.6063 414.549 70.5212C420.544 70.4362 426.539 70.3228 432.534 70.3087L450.519 70.2378L468.504 70.3228H468.702L468.858 70.4362C472.486 72.9589 476.058 75.5808 479.658 78.1319L479.176 78.146L488.955 70.7763L489.011 70.7338H489.082L496.225 70.9322L489.082 71.1307L489.21 71.0881L479.672 78.7838L479.445 78.968L479.19 78.798C475.519 76.3461 471.806 73.9368 468.15 71.4425L468.504 71.5558L450.519 71.6409L432.534 71.57C426.539 71.57 420.544 71.4425 414.549 71.3574C408.554 71.2866 402.559 71.1165 396.564 70.9464Z" fill="url(#paint2_linear_2608_10178)"/>
<path d="M347.301 70.9464C341.306 71.1306 335.312 71.2865 329.317 71.3716C323.322 71.4566 317.327 71.57 311.332 71.5842L293.347 71.655L275.362 71.57L275.716 71.4566C272.074 73.951 268.361 76.3603 264.676 78.8121L264.421 78.9822L264.194 78.798L254.656 71.1023L254.784 71.1448L247.641 70.9464L254.784 70.748H254.854L254.911 70.7905L264.69 78.1602L264.208 78.146C267.808 75.5808 271.38 72.9589 275.008 70.4504L275.164 70.337H275.362L293.347 70.252L311.332 70.3228C317.327 70.3228 323.322 70.4504 329.317 70.5354C335.326 70.5921 341.306 70.7622 347.301 70.9464Z" fill="url(#paint3_linear_2608_10178)"/>
<path d="M743.67 382.985H729.252V377.639L712.446 360.416H274.767V353.843H715.207L743.67 382.985Z" fill="url(#paint4_linear_2608_10178)"/>
<path d="M14.4178 382.985H0L28.4631 353.843H276.502V360.416H31.224L14.4178 377.639V382.985Z" fill="url(#paint5_linear_2608_10178)"/>
<path d="M604.569 60.3773L546.263 60.9251L487.956 61.2319L371.321 61.4729L254.707 61.2319L196.4 60.9251L138.094 60.3773L196.4 59.8514L254.707 59.5447L371.321 59.2817L487.956 59.5447L546.263 59.8514L604.569 60.3773Z" fill="url(#paint6_linear_2608_10178)"/>
<g filter="url(#filter0_d_2608_10178)">
<path fill-rule="evenodd" clip-rule="evenodd" d="M701.669 349.505L701.436 328.888L678.228 326.278L681.086 349.549L701.669 349.505Z" fill="#999999"/>
<path fill-rule="evenodd" clip-rule="evenodd" d="M695.931 343.853L686.11 343.888L684.735 332.687L695.816 333.963L695.931 343.853Z" fill="#4D4D4D"/>
<path fill-rule="evenodd" clip-rule="evenodd" d="M693.798 341.751L687.981 341.778L687.15 335.135L693.736 335.866L693.798 341.751Z" fill="url(#paint7_linear_2608_10178)"/>
<path fill-rule="evenodd" clip-rule="evenodd" d="M698.75 343.162L698.638 333.968L698.661 331.425L701.436 328.888L701.551 338.778L701.67 349.505L698.801 346.679L698.75 343.162Z" fill="url(#paint8_linear_2608_10178)"/>
<path fill-rule="evenodd" clip-rule="evenodd" d="M694.688 330.98L681.481 329.483L678.228 326.278L696.174 328.282L701.436 328.888L698.661 331.425L694.688 330.98Z" fill="url(#paint9_linear_2608_10178)"/>
<path fill-rule="evenodd" clip-rule="evenodd" d="M685.808 346.611L695.003 346.584L698.52 346.581L701.389 349.407L690.662 349.451L680.806 349.451L680.84 349.416L683.335 346.603L685.808 346.611Z" fill="url(#paint10_linear_2608_10178)"/>
<path fill-rule="evenodd" clip-rule="evenodd" d="M681.481 329.483L683.109 342.736L683.58 346.736L683.615 346.701L681.155 349.548L681.121 349.583L681.086 349.549L680.434 344.262L678.228 326.278L681.481 329.483Z" fill="url(#paint11_linear_2608_10178)"/>
<path fill-rule="evenodd" clip-rule="evenodd" d="M686.11 343.888L690.638 343.84L695.932 343.853L697.331 345.232L698.801 346.679L695.283 346.682L686.089 346.709L683.616 346.701L686.11 343.888Z" fill="url(#paint12_linear_2608_10178)"/>
<path fill-rule="evenodd" clip-rule="evenodd" d="M685.784 341.14L686.11 343.888L683.615 346.701L683.581 346.736L683.109 342.736L681.481 329.482L684.735 332.687L685.784 341.14Z" fill="url(#paint13_linear_2608_10178)"/>
<path fill-rule="evenodd" clip-rule="evenodd" d="M695.932 343.854L695.873 338.525L695.817 333.963L698.661 331.425L698.638 333.968L698.75 343.162L698.801 346.679L697.331 345.232L695.932 343.854Z" fill="url(#paint14_linear_2608_10178)"/>
<path fill-rule="evenodd" clip-rule="evenodd" d="M693.099 333.644L684.735 332.687L681.482 329.483L694.689 330.98L698.661 331.425L695.817 333.963L693.099 333.644Z" fill="url(#paint15_linear_2608_10178)"/>
<path fill-rule="evenodd" clip-rule="evenodd" d="M695.817 333.963L693.736 335.866L693.763 341.717L695.932 343.854L695.817 333.963Z" fill="url(#paint16_linear_2608_10178)"/>
<path fill-rule="evenodd" clip-rule="evenodd" d="M686.11 343.888L687.981 341.778L687.15 335.135L684.735 332.687L686.11 343.888Z" fill="url(#paint17_linear_2608_10178)"/>
<path fill-rule="evenodd" clip-rule="evenodd" d="M691.854 335.677L687.149 335.135L684.735 332.687L693.098 333.643L695.816 333.963L693.735 335.866L691.854 335.677Z" fill="url(#paint18_linear_2608_10178)"/>
<path fill-rule="evenodd" clip-rule="evenodd" d="M687.981 341.778L693.762 341.717L693.797 341.752L695.931 343.854L690.637 343.84L686.11 343.888L687.981 341.778Z" fill="url(#paint19_linear_2608_10178)"/>
</g>
<g filter="url(#filter1_d_2608_10178)">
<path fill-rule="evenodd" clip-rule="evenodd" d="M41.1929 348.505L41.4267 327.888L64.6346 325.278L61.7765 348.549L41.1929 348.505Z" fill="#999999"/>
<path fill-rule="evenodd" clip-rule="evenodd" d="M46.931 342.853L56.7526 342.888L58.1274 331.687L47.046 332.963L46.931 342.853Z" fill="#4D4D4D"/>
<path fill-rule="evenodd" clip-rule="evenodd" d="M49.0646 340.751L54.8809 340.778L55.7124 334.135L49.1264 334.866L49.0646 340.751Z" fill="url(#paint20_linear_2608_10178)"/>
<path fill-rule="evenodd" clip-rule="evenodd" d="M44.1125 342.162L44.2243 332.968L44.2011 330.425L41.4265 327.888L41.3115 337.778L41.1927 348.505L44.0616 345.679L44.1125 342.162Z" fill="url(#paint21_linear_2608_10178)"/>
<path fill-rule="evenodd" clip-rule="evenodd" d="M48.1739 329.98L61.3809 328.483L64.6346 325.278L46.6886 327.282L41.4267 327.888L44.2014 330.425L48.1739 329.98Z" fill="url(#paint22_linear_2608_10178)"/>
<path fill-rule="evenodd" clip-rule="evenodd" d="M57.0544 345.434L47.8597 345.406L44.342 345.404L41.4731 348.229L52.2002 348.273L62.0567 348.273L62.022 348.238L59.5272 345.425L57.0544 345.434Z" fill="url(#paint23_linear_2608_10178)"/>
<path fill-rule="evenodd" clip-rule="evenodd" d="M61.381 328.483L59.753 341.736L59.2819 345.736L59.2472 345.701L61.707 348.548L61.7417 348.583L61.7767 348.549L62.4278 343.262L64.6348 325.278L61.381 328.483Z" fill="url(#paint24_linear_2608_10178)"/>
<path fill-rule="evenodd" clip-rule="evenodd" d="M56.7519 342.888L52.2244 342.84L46.9303 342.853L45.5309 344.232L44.0614 345.679L47.5791 345.682L56.7738 345.709L59.2467 345.701L56.7519 342.888Z" fill="url(#paint25_linear_2608_10178)"/>
<path fill-rule="evenodd" clip-rule="evenodd" d="M57.0783 340.14L56.7523 342.888L59.2471 345.701L59.2817 345.736L59.7528 341.736L61.3809 328.482L58.1271 331.687L57.0783 340.14Z" fill="url(#paint26_linear_2608_10178)"/>
<path fill-rule="evenodd" clip-rule="evenodd" d="M46.9304 342.854L46.9896 337.525L47.0454 332.963L44.201 330.425L44.2242 332.968L44.1124 342.162L44.0615 345.679L45.5309 344.232L46.9304 342.854Z" fill="url(#paint27_linear_2608_10178)"/>
<path fill-rule="evenodd" clip-rule="evenodd" d="M49.7637 332.644L58.127 331.687L61.3808 328.483L48.1738 329.98L44.2013 330.425L47.0456 332.963L49.7637 332.644Z" fill="url(#paint28_linear_2608_10178)"/>
<path fill-rule="evenodd" clip-rule="evenodd" d="M47.0454 332.963L49.1264 334.866L49.0996 340.717L46.9305 342.854L47.0454 332.963Z" fill="url(#paint29_linear_2608_10178)"/>
<path fill-rule="evenodd" clip-rule="evenodd" d="M56.7521 342.888L54.8811 340.778L55.7126 334.135L58.127 331.687L56.7521 342.888Z" fill="url(#paint30_linear_2608_10178)"/>
<path fill-rule="evenodd" clip-rule="evenodd" d="M51.0086 334.677L55.713 334.135L58.1274 331.687L49.7641 332.643L47.046 332.963L49.127 334.866L51.0086 334.677Z" fill="url(#paint31_linear_2608_10178)"/>
<path fill-rule="evenodd" clip-rule="evenodd" d="M54.8813 340.778L49.1 340.717L49.065 340.752L46.9308 342.854L52.2249 342.84L56.7524 342.888L54.8813 340.778Z" fill="url(#paint32_linear_2608_10178)"/>
</g>
<rect x="33.001" y="24" width="677" height="37" fill="url(#paint33_linear_2608_10178)" fill-opacity="0.5"/>
<path fill-rule="evenodd" clip-rule="evenodd" d="M278 25H376.968V1C364.726 15.5435 315.177 18.5435 295.139 11.9565C288.631 15.4783 282.253 20.5 278 25Z" fill="url(#paint34_linear_2608_10178)"/>
<path fill-rule="evenodd" clip-rule="evenodd" d="M476 25H376.968V1C389.21 15.5435 438.758 18.5435 458.797 11.9565C465.369 15.4783 471.683 20.5 476 25Z" fill="url(#paint35_linear_2608_10178)"/>
<g style="mix-blend-mode:screen">
<path fill-rule="evenodd" clip-rule="evenodd" d="M367.818 17.5003C347.586 24.6742 309.894 24.3482 288.76 25.0003H377.032V6.80469C376.967 12.0873 375.357 14.8264 367.818 17.5003Z" fill="url(#paint36_linear_2608_10178)"/>
</g>
<path d="M604.569 25.0956L546.263 25.6434L487.956 25.9501L371.321 26.1912L254.707 25.9501L196.4 25.6434L138.094 25.0956L196.4 24.5697L254.707 24.2629L371.321 24L487.956 24.2629L546.263 24.5697L604.569 25.0956Z" fill="url(#paint37_linear_2608_10178)"/>
<path d="M692.983 41.5852L700.913 33.6831L703.361 33.3492L698.464 28.4521L698.13 30.9007L690.228 38.8306L682.298 30.9007L681.964 28.4521L677.067 33.3492L679.516 33.6831L687.446 41.5852L679.516 49.5151L677.067 49.849L681.964 54.746L682.298 52.2975L690.228 44.3676L698.13 52.2975L698.464 54.746L703.361 49.849L700.913 49.5151L692.983 41.5852Z" fill="url(#paint38_linear_2608_10178)"/>
<g filter="url(#filter2_d_2608_10178)">
<path d="M325.383 51H322.031V45.7383C321.289 45.5508 320.605 45.25 319.98 44.8359C319.363 44.4219 318.832 43.9297 318.387 43.3594C317.941 42.7812 317.594 42.1445 317.344 41.4492C317.102 40.7461 316.98 40.0078 316.98 39.2344V34.1953H320.344V39.2344C320.344 39.6953 320.43 40.1328 320.602 40.5469C320.781 40.9531 321.023 41.3086 321.328 41.6133C321.633 41.918 321.988 42.1602 322.395 42.3398C322.809 42.5117 323.246 42.5977 323.707 42.5977C324.168 42.5977 324.602 42.5117 325.008 42.3398C325.422 42.1602 325.781 41.918 326.086 41.6133C326.391 41.3086 326.629 40.9531 326.801 40.5469C326.98 40.1328 327.07 39.6953 327.07 39.2344V34.1953H330.422V39.2344C330.422 40.0078 330.297 40.7461 330.047 41.4492C329.805 42.1445 329.461 42.7812 329.016 43.3594C328.57 43.9297 328.039 44.4219 327.422 44.8359C326.805 45.25 326.125 45.5508 325.383 45.7383V51ZM344.004 44.6133C344.004 45.5508 343.836 46.4258 343.5 47.2383C343.164 48.043 342.707 48.7422 342.129 49.3359C341.551 49.9219 340.871 50.3867 340.09 50.7305C339.316 51.0664 338.484 51.2344 337.594 51.2344C336.711 51.2344 335.879 51.0664 335.098 50.7305C334.324 50.3867 333.645 49.9219 333.059 49.3359C332.48 48.7422 332.023 48.043 331.687 47.2383C331.352 46.4258 331.184 45.5508 331.184 44.6133C331.184 43.6602 331.352 42.7773 331.687 41.9648C332.023 41.1523 332.48 40.4531 333.059 39.8672C333.645 39.2734 334.324 38.8086 335.098 38.4727C335.879 38.1367 336.711 37.9688 337.594 37.9688C338.484 37.9688 339.316 38.1289 340.09 38.4492C340.871 38.7617 341.551 39.2109 342.129 39.7969C342.707 40.375 343.164 41.0742 343.5 41.8945C343.836 42.707 344.004 43.6133 344.004 44.6133ZM340.781 44.6133C340.781 44.0977 340.695 43.6328 340.523 43.2188C340.359 42.7969 340.133 42.4375 339.844 42.1406C339.555 41.8359 339.215 41.6055 338.824 41.4492C338.441 41.2852 338.031 41.2031 337.594 41.2031C337.156 41.2031 336.742 41.2852 336.352 41.4492C335.969 41.6055 335.633 41.8359 335.344 42.1406C335.062 42.4375 334.84 42.7969 334.676 43.2188C334.512 43.6328 334.43 44.0977 334.43 44.6133C334.43 45.0977 334.512 45.5469 334.676 45.9609C334.84 46.375 335.062 46.7344 335.344 47.0391C335.633 47.3438 335.969 47.5859 336.352 47.7656C336.742 47.9375 337.156 48.0234 337.594 48.0234C338.031 48.0234 338.441 47.9414 338.824 47.7773C339.215 47.6133 339.555 47.3828 339.844 47.0859C340.133 46.7891 340.359 46.4297 340.523 46.0078C340.695 45.5859 340.781 45.1211 340.781 44.6133ZM354.996 49.5352C354.738 49.7695 354.461 49.9922 354.164 50.2031C353.875 50.4062 353.57 50.5859 353.25 50.7422C352.93 50.8906 352.598 51.0078 352.254 51.0938C351.918 51.1875 351.574 51.2344 351.223 51.2344C350.449 51.2344 349.723 51.0977 349.043 50.8242C348.363 50.5508 347.766 50.1641 347.25 49.6641C346.742 49.1562 346.34 48.543 346.043 47.8242C345.754 47.0977 345.609 46.2852 345.609 45.3867V38.4492H348.797V45.3867C348.797 45.8086 348.859 46.1875 348.984 46.5234C349.117 46.8516 349.293 47.1289 349.512 47.3555C349.73 47.582 349.984 47.7539 350.273 47.8711C350.57 47.9883 350.887 48.0469 351.223 48.0469C351.551 48.0469 351.859 47.9727 352.148 47.8242C352.445 47.668 352.703 47.4648 352.922 47.2148C353.141 46.9648 353.312 46.6836 353.437 46.3711C353.562 46.0508 353.625 45.7227 353.625 45.3867V38.4492H356.824V51H356.051L354.996 49.5352ZM362.473 51H359.273V38.4492H360.047L361.102 39.9375C361.617 39.4688 362.203 39.1094 362.859 38.8594C363.516 38.6016 364.195 38.4727 364.898 38.4727H367.723V41.6602H364.898C364.562 41.6602 364.246 41.7227 363.949 41.8477C363.652 41.9727 363.395 42.1445 363.176 42.3633C362.957 42.582 362.785 42.8398 362.66 43.1367C362.535 43.4336 362.473 43.75 362.473 44.0859V51ZM379.137 51H375.937V38.4492H376.711L377.766 39.668C378.281 39.1992 378.863 38.8398 379.512 38.5898C380.168 38.332 380.852 38.2031 381.562 38.2031C382.328 38.2031 383.051 38.3516 383.73 38.6484C384.41 38.9375 385.004 39.3398 385.512 39.8555C386.02 40.3633 386.418 40.9609 386.707 41.6484C387.004 42.3281 387.152 43.0547 387.152 43.8281V51H383.953V43.8281C383.953 43.5 383.891 43.1914 383.766 42.9023C383.641 42.6055 383.469 42.3477 383.25 42.1289C383.031 41.9102 382.777 41.7383 382.488 41.6133C382.199 41.4883 381.891 41.4258 381.562 41.4258C381.227 41.4258 380.91 41.4883 380.613 41.6133C380.316 41.7383 380.059 41.9102 379.84 42.1289C379.621 42.3477 379.449 42.6055 379.324 42.9023C379.199 43.1914 379.137 43.5 379.137 43.8281V51ZM401.59 51H400.816L399.574 49.2773C399.27 49.5508 398.945 49.8086 398.602 50.0508C398.266 50.2852 397.91 50.4922 397.535 50.6719C397.16 50.8438 396.773 50.9805 396.375 51.082C395.984 51.1836 395.586 51.2344 395.18 51.2344C394.297 51.2344 393.465 51.0859 392.684 50.7891C391.91 50.4922 391.23 50.0625 390.645 49.5C390.066 48.9297 389.609 48.2344 389.273 47.4141C388.937 46.5938 388.77 45.6602 388.77 44.6133C388.77 43.6367 388.937 42.7422 389.273 41.9297C389.609 41.1094 390.066 40.4062 390.645 39.8203C391.23 39.2344 391.91 38.7812 392.684 38.4609C393.465 38.1328 394.297 37.9688 395.18 37.9688C395.586 37.9688 395.988 38.0195 396.387 38.1211C396.785 38.2227 397.172 38.3633 397.547 38.543C397.922 38.7227 398.277 38.9336 398.613 39.1758C398.957 39.418 399.277 39.6797 399.574 39.9609L400.816 38.4727H401.59V51ZM398.367 44.6133C398.367 44.1758 398.281 43.7539 398.109 43.3477C397.945 42.9336 397.719 42.5703 397.43 42.2578C397.141 41.9375 396.801 41.6836 396.41 41.4961C396.027 41.3008 395.617 41.2031 395.18 41.2031C394.742 41.2031 394.328 41.2773 393.937 41.4258C393.555 41.5742 393.219 41.793 392.93 42.082C392.648 42.3711 392.426 42.7305 392.262 43.1602C392.098 43.582 392.016 44.0664 392.016 44.6133C392.016 45.1602 392.098 45.6484 392.262 46.0781C392.426 46.5 392.648 46.8555 392.93 47.1445C393.219 47.4336 393.555 47.6523 393.937 47.8008C394.328 47.9492 394.742 48.0234 395.18 48.0234C395.617 48.0234 396.027 47.9297 396.41 47.7422C396.801 47.5469 397.141 47.293 397.43 46.9805C397.719 46.6602 397.945 46.2969 398.109 45.8906C398.281 45.4766 398.367 45.0508 398.367 44.6133ZM420 51H416.812V43.0312C416.812 42.8125 416.77 42.6055 416.684 42.4102C416.605 42.2148 416.492 42.043 416.344 41.8945C416.195 41.7461 416.023 41.6328 415.828 41.5547C415.633 41.4688 415.426 41.4258 415.207 41.4258C414.988 41.4258 414.781 41.4688 414.586 41.5547C414.398 41.6328 414.23 41.7461 414.082 41.8945C413.941 42.043 413.828 42.2148 413.742 42.4102C413.664 42.6055 413.625 42.8125 413.625 43.0312V51H410.426V43.0312C410.426 42.8125 410.383 42.6055 410.297 42.4102C410.219 42.2148 410.105 42.043 409.957 41.8945C409.809 41.7461 409.637 41.6328 409.441 41.5547C409.246 41.4688 409.039 41.4258 408.82 41.4258C408.602 41.4258 408.395 41.4688 408.199 41.5547C408.012 41.6328 407.844 41.7461 407.695 41.8945C407.555 42.043 407.441 42.2148 407.355 42.4102C407.277 42.6055 407.238 42.8125 407.238 43.0312V51H404.039V38.4492H404.812L405.68 39.4102C406.125 39.0352 406.613 38.7461 407.145 38.543C407.684 38.332 408.242 38.2266 408.82 38.2266C409.406 38.2266 409.977 38.3359 410.531 38.5547C411.094 38.7734 411.586 39.1523 412.008 39.6914C412.203 39.4258 412.426 39.1992 412.676 39.0117C412.926 38.8242 413.187 38.6719 413.461 38.5547C413.742 38.4375 414.031 38.3555 414.328 38.3086C414.625 38.2539 414.918 38.2266 415.207 38.2266C415.871 38.2266 416.492 38.3516 417.07 38.6016C417.656 38.8516 418.164 39.1953 418.594 39.6328C419.031 40.0625 419.375 40.5703 419.625 41.1562C419.875 41.7422 420 42.3672 420 43.0312V51ZM427.336 47.9297C427.461 47.9688 427.586 47.9961 427.711 48.0117C427.836 48.0195 427.961 48.0234 428.086 48.0234C428.398 48.0234 428.699 47.9805 428.988 47.8945C429.277 47.8086 429.547 47.6875 429.797 47.5312C430.055 47.3672 430.281 47.1719 430.477 46.9453C430.68 46.7109 430.844 46.4531 430.969 46.1719L433.312 48.5273C433.016 48.9492 432.672 49.3281 432.281 49.6641C431.898 50 431.48 50.2852 431.027 50.5195C430.582 50.7539 430.109 50.9297 429.609 51.0469C429.117 51.1719 428.609 51.2344 428.086 51.2344C427.203 51.2344 426.371 51.0703 425.59 50.7422C424.816 50.4141 424.137 49.957 423.551 49.3711C422.973 48.7852 422.516 48.0898 422.18 47.2852C421.844 46.4727 421.676 45.582 421.676 44.6133C421.676 43.6211 421.844 42.7148 422.18 41.8945C422.516 41.0742 422.973 40.375 423.551 39.7969C424.137 39.2188 424.816 38.7695 425.59 38.4492C426.371 38.1289 427.203 37.9688 428.086 37.9688C428.609 37.9688 429.121 38.0312 429.621 38.1562C430.121 38.2812 430.594 38.4609 431.039 38.6953C431.492 38.9297 431.914 39.2188 432.305 39.5625C432.695 39.8984 433.039 40.2773 433.336 40.6992L427.336 47.9297ZM428.977 41.332C428.828 41.2773 428.68 41.2422 428.531 41.2266C428.391 41.2109 428.242 41.2031 428.086 41.2031C427.648 41.2031 427.234 41.2852 426.844 41.4492C426.461 41.6055 426.125 41.832 425.836 42.1289C425.555 42.4258 425.332 42.7852 425.168 43.207C425.004 43.6211 424.922 44.0898 424.922 44.6133C424.922 44.7305 424.926 44.8633 424.934 45.0117C424.949 45.1602 424.969 45.3125 424.992 45.4688C425.023 45.6172 425.059 45.7617 425.098 45.9023C425.137 46.043 425.187 46.168 425.25 46.2773L428.977 41.332Z" fill="url(#paint39_linear_2608_10178)"/>
</g>
<g filter="url(#filter3_d_2608_10178)">
<path d="M260.203 178.641V178.547V173.297L258.547 171.641L260.203 169.984V165.047V164.953H258.547L260.187 160.562H260.203V160.547H275.016V160.562H275.031L275.016 169.109H270.5V165.047H264.719V169.984L266.375 171.641L264.719 173.297V178.547H270.5V174.484H275.016L275.031 183.031H275.016V183.047H260.203V183.031H260.187L258.547 178.641H260.203ZM295.172 171.828L293.5 173.516V178.672L293.484 183.047H292.812L289.625 183.109H282.203L279 183.047H278.266L276.609 178.672H278.328V173.5L276.641 171.828L278.328 170.156V165L278.266 160.609H279.187V160.625H292.562V160.609H293.484L295.141 165H293.5V170.156L295.172 171.828ZM288.984 165.141H282.828V178.594H288.984V165.141ZM319.469 165H317.797V170.141L319.469 171.812L317.797 173.469V178.625H319.469L317.828 183H317.797V183.016H313.297V183H313.281L313.297 178.625V170.219L308.875 178.094L308.266 179.203L307.641 178.094L303.187 170.203V178.625V183V183.016H298.687V183H298.375L296.734 178.625H298.687V173.5L297 171.812L298.687 170.109V165H296.734L298.375 160.625H298.687V160.594H302.406H302.922H303.187L308.234 170.047L313.297 160.594H317.797V160.625H317.828L319.469 165ZM344.656 165H342.984V170.141L344.656 171.812L342.984 173.469V178.625H344.656L343.016 183H342.984V183.016H338.484V183H338.469L338.484 178.625V170.219L334.062 178.094L333.453 179.203L332.828 178.094L328.375 170.203V178.625V183V183.016H323.875V183H323.562L321.922 178.625H323.875V173.5L322.187 171.812L323.875 170.109V165H321.922L323.562 160.625H323.875V160.594H327.594H328.109H328.375L333.422 170.047L338.484 160.594H342.984V160.625H343.016L344.656 165ZM347.109 178.609H348.797V173.547L347.141 171.891L348.797 170.25V165H347.109L348.75 160.641H348.797V160.625H353.281V160.656V165V170.25L354.922 171.891L353.281 173.547V178.609V182.953V182.984H348.797V182.969H348.75L347.109 178.609ZM357.359 171.844L359.062 170.141V165.016H357.359L358.984 160.656H359.062V160.641H363.547V160.719L363.625 160.672L370.406 173.516V165.016H368.75L370.375 160.656H370.406V160.641H373.984H374.906L374.891 165V170.141L376.594 171.844L374.891 173.547V178.594V182.906V182.953H370.469L370.359 183.016L363.547 170.094V178.594V182.938V182.953H359.062V182.938H358.984L357.359 178.594H359.062V173.547L357.359 171.844ZM378.172 178.656H379.812V173.328L378.219 171.719L379.812 170.125V165.078H378.172L379.797 160.719H379.812V160.703H394.562V160.719H394.609L394.562 165.078V165.188H385.297H384.297V178.547L385.297 178.562H390.078V173.969H388.016V169.484H394.562V170.047L396.219 171.719L394.562 173.391V178.656L394.609 183.031H394.562V183.047H390.078V183.031H383.672L379.812 183.047V183.031H379.797L378.172 178.656ZM411.891 174.484V178.484H417.656V176.812L411.516 172.219L409.203 172.578L408.828 170.219L407.406 169.141L407.437 169.094H407.406V164.969V160.625V160.609H422.141V160.766L423.75 165.047H422.141V169.328H417.656V165.094H411.891V166.906L417.953 171.438L420.219 171.078L420.594 173.406L422.031 174.484H422.141V178.609V182.891V182.969H422.109H421.187H411.891H407.406V182.906L405.766 178.547H407.406V174.484H411.891ZM443.891 171.828L442.219 173.516V178.672L442.203 183.047H441.531L438.344 183.109H430.922L427.719 183.047H426.984L425.328 178.672H427.047V173.5L425.359 171.828L427.047 170.156V165L426.984 160.609H427.906V160.625H441.281V160.609H442.203L443.859 165H442.219V170.156L443.891 171.828ZM437.703 165.141H431.547V178.594H437.703V165.141ZM464.016 171.828L462.344 173.516V178.672L462.328 183.047H461.656L458.469 183.109H451.047L447.844 183.047H447.109L445.453 178.672H447.172V173.5L445.484 171.828L447.172 170.156V165L447.109 160.609H448.031V160.625H461.406V160.609H462.328L463.984 165H462.344V170.156L464.016 171.828ZM457.828 165.141H451.672V178.594H457.828V165.141ZM465.578 171.844L467.281 170.141V165.016H465.578L467.203 160.656H467.281V160.641H471.766V160.719L471.844 160.672L478.625 173.516V165.016H476.969L478.594 160.656H478.625V160.641H482.203H483.125L483.109 165V170.141L484.812 171.844L483.109 173.547V178.594V182.906V182.953H478.687L478.578 183.016L471.766 170.094V178.594V182.938V182.953H467.281V182.938H467.203L465.578 178.594H467.281V173.547L465.578 171.844Z" fill="url(#paint40_linear_2608_10178)"/>
</g>
<defs>
<filter id="filter0_d_2608_10178" x="674.228" y="322.278" width="31.4424" height="31.3057" filterUnits="userSpaceOnUse" color-interpolation-filters="sRGB">
<feFlood flood-opacity="0" result="BackgroundImageFix"/>
<feColorMatrix in="SourceAlpha" type="matrix" values="0 0 0 0 0 0 0 0 0 0 0 0 0 0 0 0 0 0 127 0" result="hardAlpha"/>
<feOffset/>
<feGaussianBlur stdDeviation="2"/>
<feComposite in2="hardAlpha" operator="out"/>
<feColorMatrix type="matrix" values="0 0 0 0 0 0 0 0 0 0 0 0 0 0 0 0 0 0 0.7 0"/>
<feBlend mode="normal" in2="BackgroundImageFix" result="effect1_dropShadow_2608_10178"/>
<feBlend mode="normal" in="SourceGraphic" in2="effect1_dropShadow_2608_10178" result="shape"/>
</filter>
<filter id="filter1_d_2608_10178" x="37.1924" y="321.278" width="31.4424" height="31.3057" filterUnits="userSpaceOnUse" color-interpolation-filters="sRGB">
<feFlood flood-opacity="0" result="BackgroundImageFix"/>
<feColorMatrix in="SourceAlpha" type="matrix" values="0 0 0 0 0 0 0 0 0 0 0 0 0 0 0 0 0 0 127 0" result="hardAlpha"/>
<feOffset/>
<feGaussianBlur stdDeviation="2"/>
<feComposite in2="hardAlpha" operator="out"/>
<feColorMatrix type="matrix" values="0 0 0 0 0 0 0 0 0 0 0 0 0 0 0 0 0 0 0.7 0"/>
<feBlend mode="normal" in2="BackgroundImageFix" result="effect1_dropShadow_2608_10178"/>
<feBlend mode="normal" in="SourceGraphic" in2="effect1_dropShadow_2608_10178" result="shape"/>
</filter>
<filter id="filter2_d_2608_10178" x="315.98" y="33.1953" width="122.355" height="23.0391" filterUnits="userSpaceOnUse" color-interpolation-filters="sRGB">
<feFlood flood-opacity="0" result="BackgroundImageFix"/>
<feColorMatrix in="SourceAlpha" type="matrix" values="0 0 0 0 0 0 0 0 0 0 0 0 0 0 0 0 0 0 127 0" result="hardAlpha"/>
<feOffset dx="2" dy="2"/>
<feGaussianBlur stdDeviation="1.5"/>
<feComposite in2="hardAlpha" operator="out"/>
<feColorMatrix type="matrix" values="0 0 0 0 0 0 0 0 0 0 0 0 0 0 0 0 0 0 0.5 0"/>
<feBlend mode="normal" in2="BackgroundImageFix" result="effect1_dropShadow_2608_10178"/>
<feBlend mode="normal" in="SourceGraphic" in2="effect1_dropShadow_2608_10178" result="shape"/>
</filter>
<filter id="filter3_d_2608_10178" x="257.547" y="159.547" width="232.266" height="28.5625" filterUnits="userSpaceOnUse" color-interpolation-filters="sRGB">
<feFlood flood-opacity="0" result="BackgroundImageFix"/>
<feColorMatrix in="SourceAlpha" type="matrix" values="0 0 0 0 0 0 0 0 0 0 0 0 0 0 0 0 0 0 127 0" result="hardAlpha"/>
<feOffset dx="2" dy="2"/>
<feGaussianBlur stdDeviation="1.5"/>
<feComposite in2="hardAlpha" operator="out"/>
<feColorMatrix type="matrix" values="0 0 0 0 0 0 0 0 0 0 0 0 0 0 0 0 0 0 0.5 0"/>
<feBlend mode="normal" in2="BackgroundImageFix" result="effect1_dropShadow_2608_10178"/>
<feBlend mode="normal" in="SourceGraphic" in2="effect1_dropShadow_2608_10178" result="shape"/>
</filter>
<linearGradient id="paint0_linear_2608_10178" x1="709.283" y1="339.504" x2="738.423" y2="339.504" gradientUnits="userSpaceOnUse">
<stop stop-color="#FFE668"/>
<stop offset="0.1453" stop-color="#FE9A03"/>
<stop offset="1" stop-color="#FFE668"/>
</linearGradient>
<linearGradient id="paint1_linear_2608_10178" x1="34.1457" y1="339.504" x2="5.00575" y2="339.504" gradientUnits="userSpaceOnUse">
<stop stop-color="#FFE668"/>
<stop offset="0.1453" stop-color="#FE9A03"/>
<stop offset="1" stop-color="#FFE668"/>
</linearGradient>
<linearGradient id="paint2_linear_2608_10178" x1="496.197" y1="74.6048" x2="396.57" y2="74.6048" gradientUnits="userSpaceOnUse">
<stop offset="0.1453" stop-color="#FE9A03"/>
<stop offset="1" stop-color="#FFE668"/>
</linearGradient>
<linearGradient id="paint3_linear_2608_10178" x1="247.678" y1="74.6047" x2="347.305" y2="74.6047" gradientUnits="userSpaceOnUse">
<stop offset="0.1453" stop-color="#FE9A03"/>
<stop offset="1" stop-color="#FFE668"/>
</linearGradient>
<linearGradient id="paint4_linear_2608_10178" x1="612.473" y1="353.848" x2="612.473" y2="382.988" gradientUnits="userSpaceOnUse">
<stop stop-color="#FFE668"/>
<stop offset="0.1453" stop-color="#FE9A03"/>
<stop offset="1" stop-color="#FFE668"/>
</linearGradient>
<linearGradient id="paint5_linear_2608_10178" x1="138.246" y1="353.848" x2="138.246" y2="382.988" gradientUnits="userSpaceOnUse">
<stop stop-color="#FFE668"/>
<stop offset="0.1453" stop-color="#FE9A03"/>
<stop offset="1" stop-color="#E0C397"/>
<stop offset="1" stop-color="#FFE668"/>
</linearGradient>
<linearGradient id="paint6_linear_2608_10178" x1="138.094" y1="60.3835" x2="604.568" y2="60.3835" gradientUnits="userSpaceOnUse">
<stop stop-color="#FFE668"/>
<stop offset="0.1453" stop-color="#FE9A03"/>
<stop offset="1" stop-color="#FFE668"/>
</linearGradient>
<linearGradient id="paint7_linear_2608_10178" x1="687.593" y1="341.367" x2="693.364" y2="335.508" gradientUnits="userSpaceOnUse">
<stop stop-color="#F72F2F"/>
<stop offset="1" stop-color="#FF8A8A"/>
</linearGradient>
<linearGradient id="paint8_linear_2608_10178" x1="696.195" y1="333.908" x2="706.777" y2="344.33" gradientUnits="userSpaceOnUse">
<stop stop-color="#EDA85F"/>
<stop offset="1" stop-color="#FE9A03"/>
</linearGradient>
<linearGradient id="paint9_linear_2608_10178" x1="683.288" y1="321.14" x2="696.378" y2="334.032" gradientUnits="userSpaceOnUse">
<stop stop-color="#FFF18F"/>
<stop offset="1" stop-color="#FFFAE3"/>
</linearGradient>
<linearGradient id="paint10_linear_2608_10178" x1="685.751" y1="344.147" x2="696.317" y2="354.553" gradientUnits="userSpaceOnUse">
<stop stop-color="#AB5F0B"/>
<stop offset="1" stop-color="#D0710D"/>
</linearGradient>
<linearGradient id="paint11_linear_2608_10178" x1="673.113" y1="331.471" x2="686.218" y2="344.379" gradientUnits="userSpaceOnUse">
<stop stop-color="#EDA85F"/>
<stop offset="1" stop-color="#A36700"/>
</linearGradient>
<linearGradient id="paint12_linear_2608_10178" x1="687.208" y1="342.754" x2="695.061" y2="350.489" gradientUnits="userSpaceOnUse">
<stop stop-color="#FFBE45"/>
<stop offset="1" stop-color="#FFF0AB"/>
</linearGradient>
<linearGradient id="paint13_linear_2608_10178" x1="677.696" y1="333.338" x2="687.387" y2="342.883" gradientUnits="userSpaceOnUse">
<stop stop-color="#6E4500"/>
<stop offset="1" stop-color="#CF9353"/>
</linearGradient>
<linearGradient id="paint14_linear_2608_10178" x1="694.716" y1="335.1" x2="702.584" y2="342.85" gradientUnits="userSpaceOnUse">
<stop stop-color="#A15900"/>
<stop offset="1" stop-color="#E39644"/>
</linearGradient>
<linearGradient id="paint15_linear_2608_10178" x1="685.219" y1="325.701" x2="694.893" y2="335.23" gradientUnits="userSpaceOnUse">
<stop stop-color="#AB5F0B"/>
<stop offset="0.0001" stop-color="#FE9A03"/>
<stop offset="1" stop-color="#753C00"/>
</linearGradient>
<linearGradient id="paint16_linear_2608_10178" x1="693.275" y1="336.331" x2="698.392" y2="341.37" gradientUnits="userSpaceOnUse">
<stop stop-color="#FF5E5E"/>
<stop offset="1" stop-color="#B80000"/>
</linearGradient>
<linearGradient id="paint17_linear_2608_10178" x1="682.28" y1="335.206" x2="688.555" y2="341.387" gradientUnits="userSpaceOnUse">
<stop stop-color="#FF5E5E"/>
<stop offset="1" stop-color="#B80000"/>
</linearGradient>
<linearGradient id="paint18_linear_2608_10178" x1="690.296" y1="335.905" x2="690.261" y2="332.653" gradientUnits="userSpaceOnUse">
<stop stop-color="#FF8C8C"/>
<stop offset="1" stop-color="#FF5252"/>
</linearGradient>
<linearGradient id="paint19_linear_2608_10178" x1="691.025" y1="343.901" x2="691.002" y2="341.717" gradientUnits="userSpaceOnUse">
<stop stop-color="#FF6666"/>
<stop offset="1" stop-color="#DE0000"/>
</linearGradient>
<linearGradient id="paint20_linear_2608_10178" x1="55.2693" y1="340.367" x2="49.4986" y2="334.508" gradientUnits="userSpaceOnUse">
<stop stop-color="#F72F2F"/>
<stop offset="1" stop-color="#FF8A8A"/>
</linearGradient>
<linearGradient id="paint21_linear_2608_10178" x1="46.6671" y1="332.908" x2="36.0858" y2="343.33" gradientUnits="userSpaceOnUse">
<stop stop-color="#EDA85F"/>
<stop offset="1" stop-color="#A36700"/>
</linearGradient>
<linearGradient id="paint22_linear_2608_10178" x1="59.5742" y1="320.14" x2="46.4847" y2="333.032" gradientUnits="userSpaceOnUse">
<stop stop-color="#FFF18F"/>
<stop offset="1" stop-color="#FFFAE3"/>
</linearGradient>
<linearGradient id="paint23_linear_2608_10178" x1="57.1109" y1="342.969" x2="46.5457" y2="353.375" gradientUnits="userSpaceOnUse">
<stop stop-color="#AB5F0B"/>
<stop offset="1" stop-color="#753C00"/>
</linearGradient>
<linearGradient id="paint24_linear_2608_10178" x1="69.7496" y1="330.471" x2="56.6443" y2="343.379" gradientUnits="userSpaceOnUse">
<stop stop-color="#EDA85F"/>
<stop offset="1" stop-color="#A36700"/>
</linearGradient>
<linearGradient id="paint25_linear_2608_10178" x1="55.6541" y1="341.754" x2="47.8013" y2="349.489" gradientUnits="userSpaceOnUse">
<stop stop-color="#FFBE45"/>
<stop offset="1" stop-color="#FFF0AB"/>
</linearGradient>
<linearGradient id="paint26_linear_2608_10178" x1="65.1661" y1="332.338" x2="55.4756" y2="341.883" gradientUnits="userSpaceOnUse">
<stop stop-color="#6E4500"/>
<stop offset="1" stop-color="#CF9353"/>
</linearGradient>
<linearGradient id="paint27_linear_2608_10178" x1="48.1463" y1="334.1" x2="40.2778" y2="341.85" gradientUnits="userSpaceOnUse">
<stop stop-color="#A15900"/>
<stop offset="1" stop-color="#E39644"/>
</linearGradient>
<linearGradient id="paint28_linear_2608_10178" x1="57.6435" y1="324.701" x2="47.969" y2="334.23" gradientUnits="userSpaceOnUse">
<stop stop-color="#AB5F0B"/>
<stop offset="1" stop-color="#753C00"/>
</linearGradient>
<linearGradient id="paint29_linear_2608_10178" x1="49.5868" y1="335.331" x2="44.47" y2="340.37" gradientUnits="userSpaceOnUse">
<stop stop-color="#FF5E5E"/>
<stop offset="1" stop-color="#B80000"/>
</linearGradient>
<linearGradient id="paint30_linear_2608_10178" x1="60.5827" y1="334.206" x2="54.3071" y2="340.387" gradientUnits="userSpaceOnUse">
<stop stop-color="#FF5E5E"/>
<stop offset="1" stop-color="#B80000"/>
</linearGradient>
<linearGradient id="paint31_linear_2608_10178" x1="52.5665" y1="334.905" x2="52.6013" y2="331.653" gradientUnits="userSpaceOnUse">
<stop stop-color="#FF8C8C"/>
<stop offset="1" stop-color="#FF5252"/>
</linearGradient>
<linearGradient id="paint32_linear_2608_10178" x1="51.8377" y1="342.901" x2="51.8605" y2="340.717" gradientUnits="userSpaceOnUse">
<stop stop-color="#FF6666"/>
<stop offset="1" stop-color="#DE0000"/>
</linearGradient>
<linearGradient id="paint33_linear_2608_10178" x1="371.501" y1="84" x2="371.501" y2="19" gradientUnits="userSpaceOnUse">
<stop stop-color="#FFE668"/>
<stop offset="1" stop-color="#36302B" stop-opacity="0"/>
</linearGradient>
<linearGradient id="paint34_linear_2608_10178" x1="278" y1="12.9987" x2="376.988" y2="12.9987" gradientUnits="userSpaceOnUse">
<stop stop-color="#DE8C26"/>
<stop offset="0.7175" stop-color="#FFD24F"/>
<stop offset="1" stop-color="#FFE48A"/>
</linearGradient>
<linearGradient id="paint35_linear_2608_10178" x1="376.988" y1="12.9987" x2="475.977" y2="12.9987" gradientUnits="userSpaceOnUse">
<stop stop-color="#945200"/>
<stop offset="1" stop-color="#E39919"/>
</linearGradient>
<linearGradient id="paint36_linear_2608_10178" x1="288.729" y1="15.9143" x2="376.988" y2="15.9143" gradientUnits="userSpaceOnUse">
<stop stop-color="#473626"/>
<stop offset="1" stop-color="#E8E7B3"/>
</linearGradient>
<linearGradient id="paint37_linear_2608_10178" x1="138.094" y1="25.1017" x2="604.568" y2="25.1017" gradientUnits="userSpaceOnUse">
<stop stop-color="#FFE668"/>
<stop offset="0.1453" stop-color="#FE9A03"/>
<stop offset="1" stop-color="#FFE668"/>
</linearGradient>
<linearGradient id="paint38_linear_2608_10178" x1="679.526" y1="52.2881" x2="700.905" y2="30.9096" gradientUnits="userSpaceOnUse">
<stop stop-color="#FE9A03"/>
<stop offset="1" stop-color="#FFE668"/>
</linearGradient>
<linearGradient id="paint39_linear_2608_10178" x1="359.4" y1="27" x2="359.4" y2="63" gradientUnits="userSpaceOnUse">
<stop offset="0.233938" stop-color="#FFE600"/>
<stop offset="0.654751" stop-color="#E1A713"/>
</linearGradient>
<linearGradient id="paint40_linear_2608_10178" x1="353.725" y1="153" x2="353.725" y2="194.452" gradientUnits="userSpaceOnUse">
<stop offset="0.233938" stop-color="#FFE600"/>
<stop offset="0.654751" stop-color="#E1A713"/>
</linearGradient>
</defs>
</svg>
