<svg width="563" height="411" viewBox="0 0 563 411" fill="none" xmlns="http://www.w3.org/2000/svg">
<g filter="url(#filter0_b_475_1782)">
<path d="M415.711 26.0967C415.711 26.0967 445.445 26.7102 467.904 0C467.904 0 468.825 23.051 454.1 25.7899L415.711 26.0967Z" fill="#190D04"/>
<path d="M403.418 26.0966C403.418 26.0966 427.28 26.5787 445.291 5.14917C445.291 5.14917 446.014 23.6425 434.204 25.8337L403.418 26.0966Z" fill="#190D04"/>
<path d="M399.847 26.0967C399.847 26.0967 416.828 26.4472 429.646 11.1968C429.646 11.1968 430.172 24.3656 421.758 25.9214L399.847 26.0967Z" fill="#190D04"/>
<path d="M150.865 26.0967C150.865 26.0967 121.131 26.7102 98.672 0C98.672 0 97.7517 23.051 112.476 25.7899L150.865 26.0967Z" fill="#190D04"/>
<path d="M163.179 26.0966C163.179 26.0966 139.318 26.5787 121.306 5.14917C121.306 5.14917 120.583 23.6425 132.394 25.8337L163.179 26.0966Z" fill="#190D04"/>
<path d="M166.752 26.0967C166.752 26.0967 149.771 26.4472 136.952 11.1968C136.952 11.1968 136.426 24.3656 144.84 25.9214L166.752 26.0967Z" fill="#190D04"/>
<path d="M529 25H32V381H529V25Z" fill="#190D04"/>
</g>
<path d="M535.568 383H528.995V63.3025L558.137 34.8394V49.2572H552.769L535.568 66.0634V383Z" fill="url(#paint0_linear_475_1782)"/>
<path d="M26.5691 382.5H33.1426V63.3025L4.00017 34.8394V49.2572H9.3685L26.5691 66.0634V382.5Z" fill="url(#paint1_linear_475_1782)"/>
<path d="M305.564 73.9464C311.559 73.7622 317.554 73.6063 323.549 73.5212C329.544 73.4362 335.539 73.3228 341.534 73.3087L359.519 73.2378L377.504 73.3228H377.702L377.858 73.4362C381.486 75.9589 385.058 78.5808 388.658 81.1319L388.176 81.146L397.955 73.7763L398.011 73.7338H398.082L405.225 73.9322L398.082 74.1307L398.21 74.0881L388.672 81.7838L388.445 81.968L388.19 81.798C384.519 79.3461 380.806 76.9368 377.15 74.4425L377.504 74.5558L359.519 74.6409L341.534 74.57C335.539 74.57 329.544 74.4425 323.549 74.3574C317.554 74.2866 311.559 74.1165 305.564 73.9464Z" fill="url(#paint2_linear_475_1782)"/>
<path d="M256.301 73.9464C250.306 74.1306 244.312 74.2865 238.317 74.3716C232.322 74.4566 226.327 74.57 220.332 74.5842L202.347 74.655L184.362 74.57L184.716 74.4566C181.074 76.951 177.361 79.3603 173.676 81.8121L173.421 81.9822L173.194 81.798L163.656 74.1023L163.784 74.1448L156.641 73.9464L163.784 73.748H163.854L163.911 73.7905L173.69 81.1602L173.208 81.146C176.808 78.5808 180.38 75.9589 184.008 73.4504L184.164 73.337H184.362L202.347 73.252L220.332 73.3228C226.327 73.3228 232.322 73.4504 238.317 73.5354C244.326 73.5921 250.306 73.7622 256.301 73.9464Z" fill="url(#paint3_linear_475_1782)"/>
<path d="M562.903 410.142H548.485V404.796L531.679 387.573H94V381H534.44L562.903 410.142Z" fill="url(#paint4_linear_475_1782)"/>
<path d="M14.4178 410.142H0L28.4631 381H276.502V387.573H31.224L14.4178 404.796V410.142Z" fill="url(#paint5_linear_475_1782)"/>
<path d="M513.569 66.3773L455.263 66.9251L396.956 67.2319L280.321 67.4729L163.707 67.2319L105.4 66.9251L47.0938 66.3773L105.4 65.8514L163.707 65.5447L280.321 65.2817L396.956 65.5447L455.263 65.8514L513.569 66.3773Z" fill="url(#paint6_linear_475_1782)"/>
<g filter="url(#filter1_d_475_1782)">
<path fill-rule="evenodd" clip-rule="evenodd" d="M523.619 373.505L523.385 352.888L500.177 350.278L503.035 373.549L523.619 373.505Z" fill="#999999"/>
<path fill-rule="evenodd" clip-rule="evenodd" d="M517.881 367.853L508.059 367.888L506.685 356.687L517.766 357.963L517.881 367.853Z" fill="#4D4D4D"/>
<path fill-rule="evenodd" clip-rule="evenodd" d="M515.746 365.751L509.93 365.778L509.099 359.135L515.685 359.866L515.746 365.751Z" fill="url(#paint7_linear_475_1782)"/>
<path fill-rule="evenodd" clip-rule="evenodd" d="M520.699 367.162L520.587 357.968L520.61 355.425L523.385 352.888L523.5 362.778L523.618 373.505L520.749 370.679L520.699 367.162Z" fill="url(#paint8_linear_475_1782)"/>
<path fill-rule="evenodd" clip-rule="evenodd" d="M516.638 354.98L503.431 353.483L500.177 350.278L518.123 352.282L523.385 352.888L520.61 355.425L516.638 354.98Z" fill="url(#paint9_linear_475_1782)"/>
<path fill-rule="evenodd" clip-rule="evenodd" d="M507.757 370.611L516.952 370.584L520.47 370.581L523.338 373.407L512.611 373.451L502.755 373.451L502.79 373.416L505.284 370.603L507.757 370.611Z" fill="url(#paint10_linear_475_1782)"/>
<path fill-rule="evenodd" clip-rule="evenodd" d="M503.431 353.483L505.059 366.736L505.53 370.736L505.564 370.701L503.105 373.548L503.07 373.583L503.035 373.549L502.384 368.262L500.177 350.278L503.431 353.483Z" fill="url(#paint11_linear_475_1782)"/>
<path fill-rule="evenodd" clip-rule="evenodd" d="M508.059 367.888L512.587 367.84L517.881 367.853L519.28 369.232L520.75 370.679L517.232 370.682L508.037 370.709L505.564 370.701L508.059 367.888Z" fill="url(#paint12_linear_475_1782)"/>
<path fill-rule="evenodd" clip-rule="evenodd" d="M507.733 365.14L508.059 367.888L505.564 370.701L505.53 370.736L505.059 366.736L503.431 353.482L506.684 356.687L507.733 365.14Z" fill="url(#paint13_linear_475_1782)"/>
<path fill-rule="evenodd" clip-rule="evenodd" d="M517.881 367.854L517.821 362.525L517.766 357.963L520.61 355.425L520.587 357.968L520.699 367.162L520.75 370.679L519.28 369.232L517.881 367.854Z" fill="url(#paint14_linear_475_1782)"/>
<path fill-rule="evenodd" clip-rule="evenodd" d="M515.048 357.644L506.685 356.687L503.431 353.483L516.638 354.98L520.61 355.425L517.766 357.963L515.048 357.644Z" fill="url(#paint15_linear_475_1782)"/>
<path fill-rule="evenodd" clip-rule="evenodd" d="M517.766 357.963L515.685 359.866L515.711 365.717L517.881 367.854L517.766 357.963Z" fill="url(#paint16_linear_475_1782)"/>
<path fill-rule="evenodd" clip-rule="evenodd" d="M508.059 367.888L509.93 365.778L509.099 359.135L506.685 356.687L508.059 367.888Z" fill="url(#paint17_linear_475_1782)"/>
<path fill-rule="evenodd" clip-rule="evenodd" d="M513.803 359.677L509.099 359.135L506.685 356.687L515.048 357.643L517.766 357.963L515.685 359.866L513.803 359.677Z" fill="url(#paint18_linear_475_1782)"/>
<path fill-rule="evenodd" clip-rule="evenodd" d="M509.93 365.778L515.712 365.717L515.746 365.752L517.881 367.854L512.587 367.84L508.059 367.888L509.93 365.778Z" fill="url(#paint19_linear_475_1782)"/>
</g>
<g filter="url(#filter2_d_475_1782)">
<path fill-rule="evenodd" clip-rule="evenodd" d="M37.1925 374.505L37.4262 353.888L60.6341 351.278L57.776 374.549L37.1925 374.505Z" fill="#999999"/>
<path fill-rule="evenodd" clip-rule="evenodd" d="M42.93 368.853L52.7516 368.888L54.1264 357.687L43.045 358.963L42.93 368.853Z" fill="#4D4D4D"/>
<path fill-rule="evenodd" clip-rule="evenodd" d="M45.0641 366.751L50.8804 366.778L51.7119 360.135L45.1259 360.866L45.0641 366.751Z" fill="url(#paint20_linear_475_1782)"/>
<path fill-rule="evenodd" clip-rule="evenodd" d="M40.112 368.162L40.2238 358.968L40.2006 356.425L37.426 353.888L37.311 363.778L37.1922 374.505L40.0611 371.679L40.112 368.162Z" fill="url(#paint21_linear_475_1782)"/>
<path fill-rule="evenodd" clip-rule="evenodd" d="M44.1734 355.98L57.3804 354.483L60.6341 351.278L42.6881 353.282L37.4262 353.888L40.2009 356.425L44.1734 355.98Z" fill="url(#paint22_linear_475_1782)"/>
<path fill-rule="evenodd" clip-rule="evenodd" d="M53.0534 371.434L43.8587 371.406L40.341 371.404L37.4721 374.229L48.1992 374.273L58.0557 374.273L58.021 374.238L55.5263 371.425L53.0534 371.434Z" fill="url(#paint23_linear_475_1782)"/>
<path fill-rule="evenodd" clip-rule="evenodd" d="M57.3805 354.483L55.7525 367.736L55.2814 371.736L55.2467 371.701L57.7065 374.548L57.7412 374.583L57.7762 374.549L58.4273 369.262L60.6343 351.278L57.3805 354.483Z" fill="url(#paint24_linear_475_1782)"/>
<path fill-rule="evenodd" clip-rule="evenodd" d="M52.7519 368.888L48.2244 368.84L42.9303 368.854L41.5309 370.232L40.0614 371.679L43.5791 371.682L52.7738 371.71L55.2467 371.701L52.7519 368.888Z" fill="url(#paint25_linear_475_1782)"/>
<path fill-rule="evenodd" clip-rule="evenodd" d="M53.0779 366.14L52.7518 368.888L55.2466 371.701L55.2813 371.736L55.7524 367.736L57.3804 354.483L54.1266 357.687L53.0779 366.14Z" fill="url(#paint26_linear_475_1782)"/>
<path fill-rule="evenodd" clip-rule="evenodd" d="M42.9299 368.854L42.9892 363.525L43.0449 358.963L40.2006 356.425L40.2237 358.968L40.112 368.162L40.061 371.679L41.5304 370.232L42.9299 368.854Z" fill="url(#paint27_linear_475_1782)"/>
<path fill-rule="evenodd" clip-rule="evenodd" d="M45.7632 358.644L54.1265 357.687L57.3803 354.483L44.1733 355.98L40.2008 356.425L43.0451 358.963L45.7632 358.644Z" fill="url(#paint28_linear_475_1782)"/>
<path fill-rule="evenodd" clip-rule="evenodd" d="M43.0449 358.963L45.1259 360.866L45.0991 366.717L42.93 368.854L43.0449 358.963Z" fill="url(#paint29_linear_475_1782)"/>
<path fill-rule="evenodd" clip-rule="evenodd" d="M52.7517 368.888L50.8806 366.778L51.7121 360.135L54.1265 357.687L52.7517 368.888Z" fill="url(#paint30_linear_475_1782)"/>
<path fill-rule="evenodd" clip-rule="evenodd" d="M47.0076 360.677L51.712 360.135L54.1264 357.687L45.7631 358.643L43.045 358.963L45.126 360.866L47.0076 360.677Z" fill="url(#paint31_linear_475_1782)"/>
<path fill-rule="evenodd" clip-rule="evenodd" d="M50.8808 366.778L45.0995 366.717L45.0645 366.752L42.9304 368.854L48.2244 368.84L52.7519 368.888L50.8808 366.778Z" fill="url(#paint32_linear_475_1782)"/>
</g>
<rect x="32" y="26.45" width="497" height="42.55" fill="url(#paint33_linear_475_1782)" fill-opacity="0.5"/>
<g filter="url(#filter3_d_475_1782)">
<path d="M231.59 57.2H228.238V51.9382C227.496 51.7507 226.812 51.45 226.187 51.0359C225.57 50.6218 225.039 50.1296 224.594 49.5593C224.148 48.9812 223.801 48.3445 223.551 47.6492C223.309 46.946 223.187 46.2078 223.187 45.4343V40.3953H226.551V45.4343C226.551 45.8953 226.637 46.3328 226.809 46.7468C226.988 47.1531 227.23 47.5085 227.535 47.8132C227.84 48.1179 228.195 48.3601 228.602 48.5398C229.016 48.7117 229.453 48.7976 229.914 48.7976C230.375 48.7976 230.809 48.7117 231.215 48.5398C231.629 48.3601 231.988 48.1179 232.293 47.8132C232.598 47.5085 232.836 47.1531 233.008 46.7468C233.187 46.3328 233.277 45.8953 233.277 45.4343V40.3953H236.629V45.4343C236.629 46.2078 236.504 46.946 236.254 47.6492C236.012 48.3445 235.668 48.9812 235.223 49.5593C234.777 50.1296 234.246 50.6218 233.629 51.0359C233.012 51.45 232.332 51.7507 231.59 51.9382V57.2ZM250.211 50.8132C250.211 51.7507 250.043 52.6257 249.707 53.4382C249.371 54.2429 248.914 54.9421 248.336 55.5359C247.758 56.1218 247.078 56.5867 246.297 56.9304C245.523 57.2664 244.691 57.4343 243.801 57.4343C242.918 57.4343 242.086 57.2664 241.305 56.9304C240.531 56.5867 239.852 56.1218 239.266 55.5359C238.687 54.9421 238.23 54.2429 237.895 53.4382C237.559 52.6257 237.391 51.7507 237.391 50.8132C237.391 49.8601 237.559 48.9773 237.895 48.1648C238.23 47.3523 238.687 46.6531 239.266 46.0671C239.852 45.4734 240.531 45.0085 241.305 44.6726C242.086 44.3367 242.918 44.1687 243.801 44.1687C244.691 44.1687 245.523 44.3289 246.297 44.6492C247.078 44.9617 247.758 45.4109 248.336 45.9968C248.914 46.575 249.371 47.2742 249.707 48.0945C250.043 48.907 250.211 49.8132 250.211 50.8132ZM246.988 50.8132C246.988 50.2976 246.902 49.8328 246.73 49.4187C246.566 48.9968 246.34 48.6375 246.051 48.3406C245.762 48.0359 245.422 47.8054 245.031 47.6492C244.648 47.4851 244.238 47.4031 243.801 47.4031C243.363 47.4031 242.949 47.4851 242.559 47.6492C242.176 47.8054 241.84 48.0359 241.551 48.3406C241.27 48.6375 241.047 48.9968 240.883 49.4187C240.719 49.8328 240.637 50.2976 240.637 50.8132C240.637 51.2976 240.719 51.7468 240.883 52.1609C241.047 52.575 241.27 52.9343 241.551 53.239C241.84 53.5437 242.176 53.7859 242.559 53.9656C242.949 54.1375 243.363 54.2234 243.801 54.2234C244.238 54.2234 244.648 54.1414 245.031 53.9773C245.422 53.8132 245.762 53.5828 246.051 53.2859C246.34 52.989 246.566 52.6296 246.73 52.2078C246.902 51.7859 246.988 51.321 246.988 50.8132ZM261.203 55.7351C260.945 55.9695 260.668 56.1921 260.371 56.4031C260.082 56.6062 259.777 56.7859 259.457 56.9421C259.137 57.0906 258.805 57.2078 258.461 57.2937C258.125 57.3875 257.781 57.4343 257.43 57.4343C256.656 57.4343 255.93 57.2976 255.25 57.0242C254.57 56.7507 253.973 56.364 253.457 55.864C252.949 55.3562 252.547 54.7429 252.25 54.0242C251.961 53.2976 251.816 52.4851 251.816 51.5867V44.6492H255.004V51.5867C255.004 52.0085 255.066 52.3875 255.191 52.7234C255.324 53.0515 255.5 53.3289 255.719 53.5554C255.937 53.782 256.191 53.9539 256.48 54.071C256.777 54.1882 257.094 54.2468 257.43 54.2468C257.758 54.2468 258.066 54.1726 258.355 54.0242C258.652 53.8679 258.91 53.6648 259.129 53.4148C259.348 53.1648 259.52 52.8835 259.645 52.571C259.77 52.2507 259.832 51.9226 259.832 51.5867V44.6492H263.031V57.2H262.258L261.203 55.7351ZM268.68 57.2H265.48V44.6492H266.254L267.309 46.1375C267.824 45.6687 268.41 45.3093 269.066 45.0593C269.723 44.8015 270.402 44.6726 271.105 44.6726H273.93V47.8601H271.105C270.77 47.8601 270.453 47.9226 270.156 48.0476C269.859 48.1726 269.602 48.3445 269.383 48.5632C269.164 48.782 268.992 49.0398 268.867 49.3367C268.742 49.6335 268.68 49.95 268.68 50.2859V57.2ZM299.16 52.3953C299.16 53.0906 299.027 53.7468 298.762 54.364C298.504 54.9734 298.145 55.5085 297.684 55.9695C297.23 56.4226 296.695 56.782 296.078 57.0476C295.469 57.3054 294.816 57.4343 294.121 57.4343C293.496 57.4343 292.895 57.325 292.316 57.1062C291.746 56.8875 291.23 56.5671 290.77 56.1453C290.309 56.5671 289.789 56.8875 289.211 57.1062C288.633 57.325 288.031 57.4343 287.406 57.4343C286.711 57.4343 286.055 57.3054 285.437 57.0476C284.828 56.782 284.293 56.4226 283.832 55.9695C283.379 55.5085 283.02 54.9734 282.754 54.364C282.496 53.7468 282.367 53.0906 282.367 52.3953V40.3953H285.73V52.3953C285.73 52.6296 285.773 52.8523 285.859 53.0632C285.945 53.2664 286.062 53.446 286.211 53.6023C286.367 53.7507 286.547 53.8679 286.75 53.9539C286.953 54.0398 287.172 54.0828 287.406 54.0828C287.641 54.0828 287.859 54.0398 288.062 53.9539C288.266 53.8679 288.441 53.7507 288.59 53.6023C288.746 53.446 288.867 53.2664 288.953 53.0632C289.039 52.8523 289.082 52.6296 289.082 52.3953V40.3953H292.445V52.3953C292.445 52.6296 292.488 52.8523 292.574 53.0632C292.66 53.2664 292.777 53.446 292.926 53.6023C293.082 53.7507 293.262 53.8679 293.465 53.9539C293.668 54.0398 293.887 54.0828 294.121 54.0828C294.355 54.0828 294.574 54.0398 294.777 53.9539C294.98 53.8679 295.156 53.7507 295.305 53.6023C295.461 53.446 295.582 53.2664 295.668 53.0632C295.762 52.8523 295.809 52.6296 295.809 52.3953V40.3953H299.16V52.3953ZM313.82 57.2H313.047L311.805 55.4773C311.5 55.7507 311.176 56.0085 310.832 56.2507C310.496 56.4851 310.141 56.6921 309.766 56.8718C309.391 57.0437 309.004 57.1804 308.605 57.282C308.215 57.3835 307.816 57.4343 307.41 57.4343C306.527 57.4343 305.695 57.2859 304.914 56.989C304.141 56.6921 303.461 56.2625 302.875 55.7C302.297 55.1296 301.84 54.4343 301.504 53.614C301.168 52.7937 301 51.8601 301 50.8132C301 49.8367 301.168 48.9421 301.504 48.1296C301.84 47.3093 302.297 46.6062 302.875 46.0203C303.461 45.4343 304.141 44.9812 304.914 44.6609C305.695 44.3328 306.527 44.1687 307.41 44.1687C307.816 44.1687 308.219 44.2195 308.617 44.321C309.016 44.4226 309.402 44.5632 309.777 44.7429C310.152 44.9226 310.508 45.1335 310.844 45.3757C311.187 45.6179 311.508 45.8796 311.805 46.1609L313.047 44.6726H313.82V57.2ZM310.598 50.8132C310.598 50.3757 310.512 49.9539 310.34 49.5476C310.176 49.1335 309.949 48.7703 309.66 48.4578C309.371 48.1375 309.031 47.8835 308.641 47.696C308.258 47.5007 307.848 47.4031 307.41 47.4031C306.973 47.4031 306.559 47.4773 306.168 47.6257C305.785 47.7742 305.449 47.9929 305.16 48.282C304.879 48.571 304.656 48.9304 304.492 49.3601C304.328 49.782 304.246 50.2664 304.246 50.8132C304.246 51.3601 304.328 51.8484 304.492 52.2781C304.656 52.7 304.879 53.0554 305.16 53.3445C305.449 53.6335 305.785 53.8523 306.168 54.0007C306.559 54.1492 306.973 54.2234 307.41 54.2234C307.848 54.2234 308.258 54.1296 308.641 53.9421C309.031 53.7468 309.371 53.4929 309.66 53.1804C309.949 52.8601 310.176 52.4968 310.34 52.0906C310.512 51.6765 310.598 51.2507 310.598 50.8132ZM319.492 57.2H316.27V39.657H319.492V57.2ZM325.164 57.2H321.941V39.657H325.164V57.2ZM332.605 54.1296C332.73 54.1687 332.855 54.196 332.98 54.2117C333.105 54.2195 333.23 54.2234 333.355 54.2234C333.668 54.2234 333.969 54.1804 334.258 54.0945C334.547 54.0085 334.816 53.8875 335.066 53.7312C335.324 53.5671 335.551 53.3718 335.746 53.1453C335.949 52.9109 336.113 52.6531 336.238 52.3718L338.582 54.7273C338.285 55.1492 337.941 55.5281 337.551 55.864C337.168 56.2 336.75 56.4851 336.297 56.7195C335.852 56.9539 335.379 57.1296 334.879 57.2468C334.387 57.3718 333.879 57.4343 333.355 57.4343C332.473 57.4343 331.641 57.2703 330.859 56.9421C330.086 56.614 329.406 56.157 328.82 55.571C328.242 54.9851 327.785 54.2898 327.449 53.4851C327.113 52.6726 326.945 51.782 326.945 50.8132C326.945 49.821 327.113 48.9148 327.449 48.0945C327.785 47.2742 328.242 46.575 328.82 45.9968C329.406 45.4187 330.086 44.9695 330.859 44.6492C331.641 44.3289 332.473 44.1687 333.355 44.1687C333.879 44.1687 334.391 44.2312 334.891 44.3562C335.391 44.4812 335.863 44.6609 336.309 44.8953C336.762 45.1296 337.184 45.4187 337.574 45.7625C337.965 46.0984 338.309 46.4773 338.605 46.8992L332.605 54.1296ZM334.246 47.532C334.098 47.4773 333.949 47.4421 333.801 47.4265C333.66 47.4109 333.512 47.4031 333.355 47.4031C332.918 47.4031 332.504 47.4851 332.113 47.6492C331.73 47.8054 331.395 48.032 331.105 48.3289C330.824 48.6257 330.602 48.9851 330.437 49.407C330.273 49.821 330.191 50.2898 330.191 50.8132C330.191 50.9304 330.195 51.0632 330.203 51.2117C330.219 51.3601 330.238 51.5125 330.262 51.6687C330.293 51.8171 330.328 51.9617 330.367 52.1023C330.406 52.2429 330.457 52.3679 330.52 52.4773L334.246 47.532ZM346.516 57.2C345.742 57.2 345.016 57.0554 344.336 56.7664C343.656 56.4695 343.059 56.0671 342.543 55.5593C342.035 55.0437 341.633 54.446 341.336 53.7664C341.047 53.0867 340.902 52.3601 340.902 51.5867V47.8601H339.344V44.6726H340.902V39.657H344.09V44.6726H348.941V47.8601H344.09V51.5867C344.09 51.9226 344.152 52.239 344.277 52.5359C344.402 52.825 344.574 53.0789 344.793 53.2976C345.012 53.5164 345.27 53.6921 345.566 53.825C345.863 53.95 346.18 54.0125 346.516 54.0125H348.941V57.2H346.516Z" fill="url(#paint34_linear_475_1782)"/>
</g>
<path fill-rule="evenodd" clip-rule="evenodd" d="M187 28.6H285.968V1C273.726 17.725 224.177 21.175 204.139 13.6C197.631 17.65 191.253 23.425 187 28.6Z" fill="url(#paint35_linear_475_1782)"/>
<path fill-rule="evenodd" clip-rule="evenodd" d="M385 28.6H285.968V1C298.21 17.725 347.758 21.175 367.797 13.6C374.369 17.65 380.683 23.425 385 28.6Z" fill="url(#paint36_linear_475_1782)"/>
<g style="mix-blend-mode:screen">
<path fill-rule="evenodd" clip-rule="evenodd" d="M276.818 19.975C256.586 28.225 218.894 27.85 197.76 28.6H286.032V7.67505C285.967 13.75 284.357 16.9 276.818 19.975Z" fill="url(#paint37_linear_475_1782)"/>
</g>
<path d="M513.569 26.7099L455.263 27.3398L396.956 27.6926L280.321 27.9698L163.707 27.6926L105.4 27.3398L47.0938 26.7099L105.4 26.1051L163.707 25.7523L280.321 25.45L396.956 25.7523L455.263 26.1051L513.569 26.7099Z" fill="url(#paint38_linear_475_1782)"/>
<path d="M512.915 42.5852L520.845 34.6831L523.294 34.3492L518.397 29.4521L518.063 31.9007L510.161 39.8306L502.231 31.9007L501.897 29.4521L497 34.3492L499.449 34.6831L507.378 42.5852L499.449 50.5151L497 50.849L501.897 55.746L502.231 53.2975L510.161 45.3676L518.063 53.2975L518.397 55.746L523.294 50.849L520.845 50.5151L512.915 42.5852Z" fill="url(#paint39_linear_475_1782)"/>
<defs>
<filter id="filter0_b_475_1782" x="28" y="-4" width="505" height="389" filterUnits="userSpaceOnUse" color-interpolation-filters="sRGB">
<feFlood flood-opacity="0" result="BackgroundImageFix"/>
<feGaussianBlur in="BackgroundImage" stdDeviation="2"/>
<feComposite in2="SourceAlpha" operator="in" result="effect1_backgroundBlur_475_1782"/>
<feBlend mode="normal" in="SourceGraphic" in2="effect1_backgroundBlur_475_1782" result="shape"/>
</filter>
<filter id="filter1_d_475_1782" x="496.177" y="346.278" width="31.4419" height="31.3057" filterUnits="userSpaceOnUse" color-interpolation-filters="sRGB">
<feFlood flood-opacity="0" result="BackgroundImageFix"/>
<feColorMatrix in="SourceAlpha" type="matrix" values="0 0 0 0 0 0 0 0 0 0 0 0 0 0 0 0 0 0 127 0" result="hardAlpha"/>
<feOffset/>
<feGaussianBlur stdDeviation="2"/>
<feComposite in2="hardAlpha" operator="out"/>
<feColorMatrix type="matrix" values="0 0 0 0 0 0 0 0 0 0 0 0 0 0 0 0 0 0 0.7 0"/>
<feBlend mode="normal" in2="BackgroundImageFix" result="effect1_dropShadow_475_1782"/>
<feBlend mode="normal" in="SourceGraphic" in2="effect1_dropShadow_475_1782" result="shape"/>
</filter>
<filter id="filter2_d_475_1782" x="33.1924" y="347.278" width="31.4419" height="31.3057" filterUnits="userSpaceOnUse" color-interpolation-filters="sRGB">
<feFlood flood-opacity="0" result="BackgroundImageFix"/>
<feColorMatrix in="SourceAlpha" type="matrix" values="0 0 0 0 0 0 0 0 0 0 0 0 0 0 0 0 0 0 127 0" result="hardAlpha"/>
<feOffset/>
<feGaussianBlur stdDeviation="2"/>
<feComposite in2="hardAlpha" operator="out"/>
<feColorMatrix type="matrix" values="0 0 0 0 0 0 0 0 0 0 0 0 0 0 0 0 0 0 0.7 0"/>
<feBlend mode="normal" in2="BackgroundImageFix" result="effect1_dropShadow_475_1782"/>
<feBlend mode="normal" in="SourceGraphic" in2="effect1_dropShadow_475_1782" result="shape"/>
</filter>
<filter id="filter3_d_475_1782" x="222.188" y="38.657" width="131.754" height="23.7773" filterUnits="userSpaceOnUse" color-interpolation-filters="sRGB">
<feFlood flood-opacity="0" result="BackgroundImageFix"/>
<feColorMatrix in="SourceAlpha" type="matrix" values="0 0 0 0 0 0 0 0 0 0 0 0 0 0 0 0 0 0 127 0" result="hardAlpha"/>
<feOffset dx="2" dy="2"/>
<feGaussianBlur stdDeviation="1.5"/>
<feComposite in2="hardAlpha" operator="out"/>
<feColorMatrix type="matrix" values="0 0 0 0 0 0 0 0 0 0 0 0 0 0 0 0 0 0 0.5 0"/>
<feBlend mode="normal" in2="BackgroundImageFix" result="effect1_dropShadow_475_1782"/>
<feBlend mode="normal" in="SourceGraphic" in2="effect1_dropShadow_475_1782" result="shape"/>
</filter>
<linearGradient id="paint0_linear_475_1782" x1="528.992" y1="339.504" x2="558.132" y2="339.504" gradientUnits="userSpaceOnUse">
<stop stop-color="#FFE668"/>
<stop offset="0.1453" stop-color="#FE9A03"/>
<stop offset="1" stop-color="#FFE668"/>
</linearGradient>
<linearGradient id="paint1_linear_475_1782" x1="33.1448" y1="339.504" x2="4.00477" y2="339.504" gradientUnits="userSpaceOnUse">
<stop stop-color="#FFE668"/>
<stop offset="0.1453" stop-color="#FE9A03"/>
<stop offset="1" stop-color="#FFE668"/>
</linearGradient>
<linearGradient id="paint2_linear_475_1782" x1="405.197" y1="77.6048" x2="305.57" y2="77.6048" gradientUnits="userSpaceOnUse">
<stop offset="0.1453" stop-color="#FE9A03"/>
<stop offset="1" stop-color="#FFE668"/>
</linearGradient>
<linearGradient id="paint3_linear_475_1782" x1="156.678" y1="77.6047" x2="256.305" y2="77.6047" gradientUnits="userSpaceOnUse">
<stop offset="0.1453" stop-color="#FE9A03"/>
<stop offset="1" stop-color="#FFE668"/>
</linearGradient>
<linearGradient id="paint4_linear_475_1782" x1="431.707" y1="381.006" x2="431.707" y2="410.146" gradientUnits="userSpaceOnUse">
<stop stop-color="#FFE668"/>
<stop offset="0.1453" stop-color="#FE9A03"/>
<stop offset="1" stop-color="#FFE668"/>
</linearGradient>
<linearGradient id="paint5_linear_475_1782" x1="138.246" y1="381.006" x2="138.246" y2="410.146" gradientUnits="userSpaceOnUse">
<stop stop-color="#FFE668"/>
<stop offset="0.1453" stop-color="#FE9A03"/>
<stop offset="1" stop-color="#E0C397"/>
<stop offset="1" stop-color="#FFE668"/>
</linearGradient>
<linearGradient id="paint6_linear_475_1782" x1="47.0942" y1="66.3835" x2="513.568" y2="66.3835" gradientUnits="userSpaceOnUse">
<stop stop-color="#FFE668"/>
<stop offset="0.1453" stop-color="#FE9A03"/>
<stop offset="1" stop-color="#FFE668"/>
</linearGradient>
<linearGradient id="paint7_linear_475_1782" x1="509.542" y1="365.367" x2="515.312" y2="359.508" gradientUnits="userSpaceOnUse">
<stop stop-color="#F72F2F"/>
<stop offset="1" stop-color="#FF8A8A"/>
</linearGradient>
<linearGradient id="paint8_linear_475_1782" x1="518.144" y1="357.908" x2="528.725" y2="368.33" gradientUnits="userSpaceOnUse">
<stop stop-color="#EDA85F"/>
<stop offset="1" stop-color="#FE9A03"/>
</linearGradient>
<linearGradient id="paint9_linear_475_1782" x1="505.237" y1="345.14" x2="518.327" y2="358.032" gradientUnits="userSpaceOnUse">
<stop stop-color="#FFF18F"/>
<stop offset="1" stop-color="#FFFAE3"/>
</linearGradient>
<linearGradient id="paint10_linear_475_1782" x1="507.701" y1="368.147" x2="518.266" y2="378.553" gradientUnits="userSpaceOnUse">
<stop stop-color="#AB5F0B"/>
<stop offset="1" stop-color="#D0710D"/>
</linearGradient>
<linearGradient id="paint11_linear_475_1782" x1="495.062" y1="355.471" x2="508.167" y2="368.379" gradientUnits="userSpaceOnUse">
<stop stop-color="#EDA85F"/>
<stop offset="1" stop-color="#A36700"/>
</linearGradient>
<linearGradient id="paint12_linear_475_1782" x1="509.157" y1="366.754" x2="517.01" y2="374.489" gradientUnits="userSpaceOnUse">
<stop stop-color="#FFBE45"/>
<stop offset="1" stop-color="#FFF0AB"/>
</linearGradient>
<linearGradient id="paint13_linear_475_1782" x1="499.645" y1="357.338" x2="509.336" y2="366.883" gradientUnits="userSpaceOnUse">
<stop stop-color="#6E4500"/>
<stop offset="1" stop-color="#CF9353"/>
</linearGradient>
<linearGradient id="paint14_linear_475_1782" x1="516.665" y1="359.1" x2="524.533" y2="366.85" gradientUnits="userSpaceOnUse">
<stop stop-color="#A15900"/>
<stop offset="1" stop-color="#E39644"/>
</linearGradient>
<linearGradient id="paint15_linear_475_1782" x1="507.168" y1="349.701" x2="516.842" y2="359.23" gradientUnits="userSpaceOnUse">
<stop stop-color="#AB5F0B"/>
<stop offset="0.0001" stop-color="#FE9A03"/>
<stop offset="1" stop-color="#753C00"/>
</linearGradient>
<linearGradient id="paint16_linear_475_1782" x1="515.224" y1="360.331" x2="520.341" y2="365.37" gradientUnits="userSpaceOnUse">
<stop stop-color="#FF5E5E"/>
<stop offset="1" stop-color="#B80000"/>
</linearGradient>
<linearGradient id="paint17_linear_475_1782" x1="504.229" y1="359.206" x2="510.504" y2="365.387" gradientUnits="userSpaceOnUse">
<stop stop-color="#FF5E5E"/>
<stop offset="1" stop-color="#B80000"/>
</linearGradient>
<linearGradient id="paint18_linear_475_1782" x1="512.246" y1="359.905" x2="512.211" y2="356.653" gradientUnits="userSpaceOnUse">
<stop stop-color="#FF8C8C"/>
<stop offset="1" stop-color="#FF5252"/>
</linearGradient>
<linearGradient id="paint19_linear_475_1782" x1="512.974" y1="367.901" x2="512.951" y2="365.717" gradientUnits="userSpaceOnUse">
<stop stop-color="#FF6666"/>
<stop offset="1" stop-color="#DE0000"/>
</linearGradient>
<linearGradient id="paint20_linear_475_1782" x1="51.2689" y1="366.367" x2="45.4981" y2="360.508" gradientUnits="userSpaceOnUse">
<stop stop-color="#F72F2F"/>
<stop offset="1" stop-color="#FF8A8A"/>
</linearGradient>
<linearGradient id="paint21_linear_475_1782" x1="42.6666" y1="358.908" x2="32.0853" y2="369.33" gradientUnits="userSpaceOnUse">
<stop stop-color="#EDA85F"/>
<stop offset="1" stop-color="#A36700"/>
</linearGradient>
<linearGradient id="paint22_linear_475_1782" x1="55.5737" y1="346.14" x2="42.4842" y2="359.032" gradientUnits="userSpaceOnUse">
<stop stop-color="#FFF18F"/>
<stop offset="1" stop-color="#FFFAE3"/>
</linearGradient>
<linearGradient id="paint23_linear_475_1782" x1="53.11" y1="368.969" x2="42.5447" y2="379.375" gradientUnits="userSpaceOnUse">
<stop stop-color="#AB5F0B"/>
<stop offset="1" stop-color="#753C00"/>
</linearGradient>
<linearGradient id="paint24_linear_475_1782" x1="65.7491" y1="356.471" x2="52.6438" y2="369.379" gradientUnits="userSpaceOnUse">
<stop stop-color="#EDA85F"/>
<stop offset="1" stop-color="#A36700"/>
</linearGradient>
<linearGradient id="paint25_linear_475_1782" x1="51.6541" y1="367.755" x2="43.8013" y2="375.489" gradientUnits="userSpaceOnUse">
<stop stop-color="#FFBE45"/>
<stop offset="1" stop-color="#FFF0AB"/>
</linearGradient>
<linearGradient id="paint26_linear_475_1782" x1="61.1657" y1="358.338" x2="51.4751" y2="367.883" gradientUnits="userSpaceOnUse">
<stop stop-color="#6E4500"/>
<stop offset="1" stop-color="#CF9353"/>
</linearGradient>
<linearGradient id="paint27_linear_475_1782" x1="44.1458" y1="360.1" x2="36.2773" y2="367.85" gradientUnits="userSpaceOnUse">
<stop stop-color="#A15900"/>
<stop offset="1" stop-color="#E39644"/>
</linearGradient>
<linearGradient id="paint28_linear_475_1782" x1="53.6431" y1="350.701" x2="43.9686" y2="360.23" gradientUnits="userSpaceOnUse">
<stop stop-color="#AB5F0B"/>
<stop offset="1" stop-color="#753C00"/>
</linearGradient>
<linearGradient id="paint29_linear_475_1782" x1="45.5863" y1="361.331" x2="40.4695" y2="366.37" gradientUnits="userSpaceOnUse">
<stop stop-color="#FF5E5E"/>
<stop offset="1" stop-color="#B80000"/>
</linearGradient>
<linearGradient id="paint30_linear_475_1782" x1="56.5822" y1="360.206" x2="50.3066" y2="366.387" gradientUnits="userSpaceOnUse">
<stop stop-color="#FF5E5E"/>
<stop offset="1" stop-color="#B80000"/>
</linearGradient>
<linearGradient id="paint31_linear_475_1782" x1="48.5655" y1="360.905" x2="48.6004" y2="357.653" gradientUnits="userSpaceOnUse">
<stop stop-color="#FF8C8C"/>
<stop offset="1" stop-color="#FF5252"/>
</linearGradient>
<linearGradient id="paint32_linear_475_1782" x1="47.8372" y1="368.901" x2="47.86" y2="366.717" gradientUnits="userSpaceOnUse">
<stop stop-color="#FF6666"/>
<stop offset="1" stop-color="#DE0000"/>
</linearGradient>
<linearGradient id="paint33_linear_475_1782" x1="280.5" y1="95.45" x2="280.5" y2="20.7" gradientUnits="userSpaceOnUse">
<stop stop-color="#FFE668"/>
<stop offset="1" stop-color="#36302B" stop-opacity="0"/>
</linearGradient>
<linearGradient id="paint34_linear_475_1782" x1="270.4" y1="33.2" x2="270.4" y2="74.6" gradientUnits="userSpaceOnUse">
<stop offset="0.233938" stop-color="#FFE600"/>
<stop offset="0.654751" stop-color="#E1A713"/>
</linearGradient>
<linearGradient id="paint35_linear_475_1782" x1="187" y1="14.7985" x2="285.988" y2="14.7985" gradientUnits="userSpaceOnUse">
<stop stop-color="#DE8C26"/>
<stop offset="0.7175" stop-color="#FFD24F"/>
<stop offset="1" stop-color="#FFE48A"/>
</linearGradient>
<linearGradient id="paint36_linear_475_1782" x1="285.988" y1="14.7985" x2="384.977" y2="14.7985" gradientUnits="userSpaceOnUse">
<stop stop-color="#945200"/>
<stop offset="1" stop-color="#E39919"/>
</linearGradient>
<linearGradient id="paint37_linear_475_1782" x1="197.729" y1="18.151" x2="285.988" y2="18.151" gradientUnits="userSpaceOnUse">
<stop stop-color="#473626"/>
<stop offset="1" stop-color="#E8E7B3"/>
</linearGradient>
<linearGradient id="paint38_linear_475_1782" x1="47.0942" y1="26.7169" x2="513.568" y2="26.7169" gradientUnits="userSpaceOnUse">
<stop stop-color="#FFE668"/>
<stop offset="0.1453" stop-color="#FE9A03"/>
<stop offset="1" stop-color="#FFE668"/>
</linearGradient>
<linearGradient id="paint39_linear_475_1782" x1="499.459" y1="53.2881" x2="520.837" y2="31.9096" gradientUnits="userSpaceOnUse">
<stop stop-color="#FE9A03"/>
<stop offset="1" stop-color="#FFE668"/>
</linearGradient>
</defs>
</svg>
