<svg width="190" height="50" viewBox="0 0 190 50" fill="none" xmlns="http://www.w3.org/2000/svg">
<path opacity="0.6" d="M177.161 5.5415H15.543V45.7556H177.161V5.5415Z" fill="url(#paint0_linear_415_1399)" stroke="#3D2319" stroke-miterlimit="10"/>
<path d="M26.6714 8.16165C38.7293 7.7545 50.7977 7.48307 62.8557 7.34735C74.9241 7.18031 86.9821 7.13856 99.0505 7.11768C111.119 7.13856 123.177 7.18031 135.245 7.34735C147.314 7.48307 159.372 7.7545 171.44 8.16165C159.372 8.56881 147.314 8.84024 135.245 8.97596C123.177 9.143 111.119 9.18475 99.0505 9.20563C86.9821 9.18475 74.9241 9.143 62.8557 8.97596C50.7977 8.84024 38.7293 8.56881 26.6714 8.16165Z" fill="#DDC357"/>
<path d="M19.1758 43.3545C25.7111 43.1144 32.2464 43.0205 38.7817 42.843L58.3876 42.5507C71.4583 42.3836 84.5289 42.3941 97.5995 42.3105C110.67 42.3941 123.741 42.3836 136.811 42.5507L156.417 42.843C162.953 43.0205 169.488 43.1144 176.023 43.3545C169.488 43.5946 162.953 43.6886 156.417 43.8661L136.811 44.1584C123.73 44.3254 110.66 44.315 97.5891 44.3985C84.5184 44.315 71.4478 44.3254 58.3876 44.1584L38.7817 43.8661C32.2464 43.699 25.7111 43.5946 19.1758 43.3545Z" fill="#DDC357"/>
<path d="M27.7572 5.48911H24.2077L15.5426 25.1264L24.9802 46.0059L21.4202 49.0961H11.2101L1 25.4396L12.1393 1H23.1219L27.7572 5.48911Z" fill="#FFE668"/>
<path d="M23.2682 48.9399L12.1394 25.6488L22.9759 1.3136L26.5046 4.96753L24.0512 5.01972L15.2296 25.0537L24.5732 45.7976L26.1914 46.1421L23.4353 48.9504L23.2682 48.9399Z" fill="#A65F00"/>
<path d="M12.1393 25.6487L1 25.4399L11.2101 49.0965L23.2681 48.9399L12.1393 25.6487Z" fill="#E09E3F"/>
<path d="M27.7572 5.48911H24.2077L15.5426 25.1264L24.8654 45.7554H27.7572L23.2368 49.0961H11.2101L1 25.4396L12.1393 1H23.1219L27.7572 5.48911Z" stroke="#583317" stroke-miterlimit="10"/>
<path d="M162.243 5.48923H165.792L174.457 25.1265L165.02 46.0061L168.58 49.0962H178.79L189 25.4397L177.861 1.00012H166.878L162.243 5.48923Z" fill="#FFE668"/>
<path d="M166.732 48.94L177.861 25.6489L167.024 1.31372L163.495 4.96765L165.949 5.01985L174.77 25.0538L165.427 45.7977L163.809 46.1422L166.565 48.9505L166.732 48.94Z" fill="#A65F00"/>
<path d="M177.861 25.6489L189 25.4401L178.79 49.0966L166.732 48.94L177.861 25.6489Z" fill="#E09E3F"/>
<path d="M162.243 5.48923H165.792L174.457 25.1265L165.134 45.7555H162.243L166.763 49.0962H178.79L189 25.4397L177.861 1.00012H166.878L162.243 5.48923Z" stroke="#583317" stroke-miterlimit="10"/>
<defs>
<linearGradient id="paint0_linear_415_1399" x1="15.5418" y1="25.6497" x2="177.165" y2="25.6497" gradientUnits="userSpaceOnUse">
<stop stop-color="#52382C"/>
<stop offset="0.5279" stop-color="#52351D" stop-opacity="0.8"/>
<stop offset="1" stop-color="#52330F"/>
</linearGradient>
</defs>
</svg>
