<?xml version="1.0" encoding="utf-8"?>
<!-- Generator: Adobe Illustrator 25.2.1, SVG Export Plug-In . SVG Version: 6.00 Build 0)  -->
<svg version="1.1" id="Layer_1" xmlns="http://www.w3.org/2000/svg" xmlns:xlink="http://www.w3.org/1999/xlink" x="0px" y="0px"
	 viewBox="0 0 479 100" style="enable-background:new 0 0 479 100;" xml:space="preserve">
<style type="text/css">
	.st0{fill:url(#SVGID_1_);}
	.st1{fill-rule:evenodd;clip-rule:evenodd;fill:url(#SVGID_2_);}
	.st2{fill-rule:evenodd;clip-rule:evenodd;fill:url(#SVGID_3_);}
	.st3{fill:none;}
	.st4{fill-rule:evenodd;clip-rule:evenodd;fill:#FFFFFF;}
	.st5{fill:#FFFFFF;}
</style>
<g>
	
		<linearGradient id="SVGID_1_" gradientUnits="userSpaceOnUse" x1="0.3984" y1="50" x2="87.14" y2="50" gradientTransform="matrix(1 0 0 -1 0 100)">
		<stop  offset="0" style="stop-color:#F7CE2A"/>
		<stop  offset="0.13" style="stop-color:#F7CF2D;stop-opacity:0.98"/>
		<stop  offset="0.26" style="stop-color:#F8D138;stop-opacity:0.94"/>
		<stop  offset="0.38" style="stop-color:#F8D549;stop-opacity:0.85"/>
		<stop  offset="0.51" style="stop-color:#F9DB61;stop-opacity:0.74"/>
		<stop  offset="0.64" style="stop-color:#FAE281;stop-opacity:0.59"/>
		<stop  offset="0.77" style="stop-color:#FCEBA7;stop-opacity:0.41"/>
		<stop  offset="0.89" style="stop-color:#FDF5D4;stop-opacity:0.2"/>
		<stop  offset="1" style="stop-color:#FFFFFF;stop-opacity:0"/>
	</linearGradient>
	<path class="st0" d="M81.94,66.86l-21.6,21.59c-5.46,5.54-14.38,5.61-19.93,0.14c-0.05-0.05-0.1-0.1-0.14-0.14L12,60.16
		c-5.61-5.59-5.63-14.67-0.04-20.28c0.01-0.01,0.03-0.03,0.04-0.04l28.3-28.3C45.78,6,54.71,5.95,60.25,11.42
		c0.04,0.04,0.08,0.08,0.12,0.12L81,32.24l5.2-5.2L65.55,6.34C61.5,2.31,56.03,0.03,50.31,0l0,0c-5.72,0.03-11.2,2.3-15.25,6.34
		L6.77,34.64c-8.48,8.47-8.5,22.21-0.03,30.69c0.01,0.01,0.02,0.02,0.03,0.03l28.29,28.3c3.68,3.68,8.57,5.91,13.76,6.28
		c0.51,0,1,0.06,1.48,0.06l0,0c0.49,0,1,0,1.48-0.06c5.19-0.37,10.08-2.6,13.76-6.28l21.6-21.6L81.94,66.86z"/>
	
		<linearGradient id="SVGID_2_" gradientUnits="userSpaceOnUse" x1="27.945" y1="58.6914" x2="74.155" y2="58.6914" gradientTransform="matrix(1 0 0 -1 0 100)">
		<stop  offset="0" style="stop-color:#FFFFFF"/>
		<stop  offset="0.13" style="stop-color:#FFFFFF;stop-opacity:0.98"/>
		<stop  offset="0.25" style="stop-color:#FFFFFF;stop-opacity:0.94"/>
		<stop  offset="0.38" style="stop-color:#FFFFFF;stop-opacity:0.86"/>
		<stop  offset="0.5" style="stop-color:#FFFFFF;stop-opacity:0.75"/>
		<stop  offset="0.63" style="stop-color:#FFFFFF;stop-opacity:0.61"/>
		<stop  offset="0.75" style="stop-color:#FFFFFF;stop-opacity:0.43"/>
		<stop  offset="0.88" style="stop-color:#FFFFFF;stop-opacity:0.23"/>
		<stop  offset="1" style="stop-color:#FFFFFF;stop-opacity:0"/>
	</linearGradient>
	<path class="st1" d="M50.21,25.12l19,19l5-5l-19-19c-1.29-1.48-3.17-2.31-5.13-2.25c-1.82,0.14-3.52,0.95-4.77,2.28L30.4,35.07
		c-3.27,3.28-3.27,6.57,0,9.86l19.81,19.82v-9.86L35.34,40L50.21,25.12z"/>
	
		<linearGradient id="SVGID_3_" gradientUnits="userSpaceOnUse" x1="26.45" y1="41.3085" x2="72.66" y2="41.3085" gradientTransform="matrix(1 0 0 -1 0 100)">
		<stop  offset="0" style="stop-color:#FFFFFF;stop-opacity:0"/>
		<stop  offset="0.12" style="stop-color:#FFFFFF;stop-opacity:0.23"/>
		<stop  offset="0.25" style="stop-color:#FFFFFF;stop-opacity:0.43"/>
		<stop  offset="0.37" style="stop-color:#FFFFFF;stop-opacity:0.61"/>
		<stop  offset="0.5" style="stop-color:#FFFFFF;stop-opacity:0.75"/>
		<stop  offset="0.62" style="stop-color:#FFFFFF;stop-opacity:0.86"/>
		<stop  offset="0.75" style="stop-color:#FFFFFF;stop-opacity:0.94"/>
		<stop  offset="0.87" style="stop-color:#FFFFFF;stop-opacity:0.98"/>
		<stop  offset="1" style="stop-color:#FFFFFF"/>
	</linearGradient>
	<path class="st2" d="M50.39,74.88l-19-19l-5,5l19,19c1.28,1.48,3.17,2.31,5.13,2.25c1.82-0.14,3.52-0.96,4.77-2.29l14.9-14.91
		c3.29-3.29,3.29-6.58,0-9.86l-19.8-19.82v9.86L65.27,60L50.39,74.88z"/>
	<path class="st3" d="M100.21,50c0.01,5.76-2.28,11.29-6.37,15.35l-6.69,6.7l-5.21-5.2l6.7-6.7c5.61-5.59,5.63-14.67,0.04-20.28
		c-0.01-0.01-0.03-0.03-0.04-0.04L81,32.24l5.2-5.2l7.6,7.6C97.9,38.7,100.21,44.23,100.21,50z"/>
	<polygon class="st4" points="74.18,49.09 79.14,44.1 84.11,49.09 79.14,54.05 	"/>
	<polygon class="st4" points="16.64,50.14 21.61,45.15 26.57,50.14 21.61,55.1 	"/>
	<path class="st5" d="M117.17,75.33V53.79h-6v-8.87h6V24.67h27c3.84-0.16,7.59,1.12,10.53,3.59c2.72,2.39,4.08,5.72,4.08,10
		c0,4.9-2.07,8.26-6.22,10.09c6,1.93,9,6.04,9,12.34c0.17,4.04-1.44,7.95-4.4,10.69c-3.07,2.72-7.07,4.15-11.17,4L117.17,75.33z
		 M126.53,33.54v11.38h16.62c1.64,0.06,3.25-0.48,4.51-1.54c1.2-1.05,1.86-2.59,1.78-4.19c0.09-1.61-0.58-3.16-1.82-4.19
		c-1.26-1.02-2.85-1.55-4.47-1.5L126.53,33.54z M126.53,53.79v12.67H145c1.84,0.03,3.63-0.57,5.08-1.7c1.44-1.08,2.25-2.8,2.18-4.6
		c0.07-1.8-0.73-3.52-2.14-4.63c-1.45-1.17-3.26-1.79-5.12-1.74H126.53z"/>
	<path class="st5" d="M165.73,67l7.1-6.37c4.36,4.62,9.36,6.91,15,6.86c2.69,0.1,5.37-0.41,7.83-1.49c2.85-1.29,4.28-3.3,4.28-6
		c0-2.95-2.82-4.92-8.47-5.89c-9.33-1.61-14.58-2.63-15.73-3.06c-5.65-2.15-8.48-6.18-8.47-12.1c0-4.95,2.36-8.82,7.09-11.62
		c4.2-2.48,9.01-3.74,13.88-3.63c8.39,0,15.11,2.58,20.17,7.75l-6.94,6.21c-4.09-4.04-8.66-6.04-13.71-6
		c-2.36-0.09-4.71,0.36-6.86,1.34c-2.53,1.24-3.79,3.04-3.79,5.4c0,2.96,2.82,4.9,8.47,5.81c9.19,1.51,14.43,2.51,15.73,3
		c5.65,2.2,8.48,6.29,8.47,12.26c0,5.43-2.47,9.74-7.42,12.91c-4.48,2.76-9.67,4.15-14.93,4C179.19,76.51,171.28,73.09,165.73,67z"
		/>
	<path class="st5" d="M256.81,60.49l7.58,5.51c-5.12,6.74-13.16,10.61-21.62,10.41c-7.18,0.16-14.12-2.55-19.28-7.54
		c-5.2-4.88-8.08-11.74-7.9-18.87c-0.17-7.12,2.7-13.97,7.9-18.84c5.17-4.98,12.11-7.7,19.28-7.54c8.45-0.21,16.5,3.65,21.62,10.38
		l-7.74,5.81c-3.02-4.71-8.29-7.5-13.88-7.35c-4.63-0.06-9.07,1.81-12.26,5.17c-6.77,6.83-6.77,17.85,0,24.68
		c6.73,6.83,17.71,6.91,24.54,0.18c0.64-0.63,1.23-1.31,1.76-2.03L256.81,60.49z"/>
	<path class="st5" d="M282.38,25.17v50.49h-4.83V25.17H282.38z"/>
	<path class="st5" d="M320.46,40H325v35.66h-4.48v-7.07c-3,4.91-8.37,7.87-14.13,7.79c-10.1,0-18.18-7.21-18.18-18.54
		s8.15-18.31,18.25-18.31c5.48,0,11.32,2.52,14,7.57V40z M293.06,57.81c0,8.44,6.05,14,13.55,14c18.4,0,18.4-27.92,0-27.92
		c-7.5,0.03-13.55,5.59-13.55,13.95V57.81z"/>
	<path class="st5" d="M337,40v20c0,7.43,4.47,11.68,11.69,11.61c6.85,0,11.68-5.34,11.68-12.19V40h4.76v35.66h-4.47l-0.15-6
		c-3,4.55-7.64,6.49-12.62,6.56c-9.23,0-15.72-6-15.72-16.15V40H337z"/>
	<path class="st5" d="M400.87,75.66v-20c0-7.66-4.48-11.66-11.62-11.66c-6.92,0.07-11.68,5.41-11.68,12.26v19.4h-4.83V40h4.62
		l0.14,6c2.7-4.2,7.4-6.69,12.4-6.57c9.24,0,15.87,5.48,15.87,16.16v20L400.87,75.66z"/>
	<path class="st5" d="M442.33,70.83c-3.5,3.49-8.26,5.44-13.2,5.4c-10.09,0-18.46-6.77-18.46-18.39s8.15-18.31,18.46-18.31
		c4.75-0.05,9.31,1.85,12.62,5.26l-3.17,3.1c-2.49-2.47-5.86-3.85-9.37-3.82c-7.58,0-13.71,5-13.71,13.77c0,9,6.2,13.78,13.63,13.78
		c3.69,0.02,7.24-1.42,9.88-4L442.33,70.83z"/>
	<path class="st5" d="M451.34,25.17v21.06c3-4.83,7.65-6.63,12.41-6.7c9.95,0,14.85,6.56,14.85,16.15v20h-4.83v-20
		c0-7.14-3.46-11.54-10.6-11.54c-6.92,0-11.76,5.41-11.76,12.33v19.19h-4.83V25.17H451.34z"/>
</g>
</svg>
